<svg width="100" height="100" viewBox="0 0 100 100" fill="none" xmlns="http://www.w3.org/2000/svg">
<path d="M50.2502 65.0002C50.8025 65.0002 51.2502 64.5524 51.2502 64.0002L51.2502 51.2502H64.0002C64.5525 51.2502 65.0002 50.8024 65.0002 50.2502V49.7502C65.0002 49.1979 64.5525 48.7502 64.0002 48.7502H51.2502V36.0002C51.2502 35.4479 50.8025 35.0002 50.2502 35.0002H49.7502C49.198 35.0002 48.7502 35.4479 48.7502 36.0002V48.7502L36.0132 48.5847C35.4559 48.5775 35.0002 49.0273 35.0002 49.5847V50.2502C35.0002 50.8024 35.448 51.2502 36.0002 51.2502L48.7502 51.2502V64.0002C48.7502 64.5524 49.198 65.0002 49.7502 65.0002H50.2502Z" fill="#4A90E2"/>
<circle cx="50" cy="50" r="48" stroke="#4A90E2" stroke-width="3" stroke-linecap="round" stroke-dasharray="8 10"/>
</svg>
