<svg width="24" height="24" viewBox="0 0 24 24" fill="none" xmlns="http://www.w3.org/2000/svg">
<g clip-path="url(#clip0_1370_680)">
<path d="M2.3439 7.3435C2.96518 7.32044 2.96471 6.42888 2.3439 6.40601H2.34353C1.72225 6.42916 1.72309 7.32072 2.3439 7.3435Z" fill="white"/>
<path d="M4.45327 7.3435C5.07455 7.32044 5.07408 6.42888 4.45327 6.40601H4.45294C3.83162 6.42916 3.83246 7.32072 4.45327 7.3435Z" fill="white"/>
<path d="M6.56265 7.3435C7.18393 7.32044 7.18346 6.42888 6.56265 6.40601H6.56228C5.941 6.42916 5.94184 7.32072 6.56265 7.3435Z" fill="white"/>
<path d="M10.8281 10.6248H2.57812C2.31928 10.6248 2.10938 10.8347 2.10938 11.0935V19.3435C2.10938 19.6023 2.31928 19.8122 2.57812 19.8122H10.8281C11.087 19.8122 11.2969 19.6023 11.2969 19.3435V11.0935C11.2969 10.8347 11.087 10.6248 10.8281 10.6248ZM6.70311 15.4945C6.25081 15.4945 5.8828 15.1265 5.8828 14.6742C5.92405 13.5875 7.48235 13.5878 7.52342 14.6742C7.52342 15.1265 7.1554 15.4945 6.70311 15.4945ZM8.80197 18.8747H4.60424C4.91736 16.3599 8.48974 16.3617 8.80197 18.8747ZM10.3594 18.8747H9.74275C9.65547 17.6042 8.78576 16.5454 7.61323 16.1776C9.11383 15.2668 8.48332 12.9269 6.70311 12.9164C4.92285 12.927 4.29252 15.2671 5.79303 16.1776C4.62046 16.5453 3.75079 17.6042 3.66351 18.8747H3.04687V11.5623H10.3594V18.8747Z" fill="white"/>
<path d="M12.9375 11.5623H15.9609C16.5822 11.5392 16.5817 10.6476 15.9609 10.6248H12.9375C12.3162 10.6479 12.3167 11.5394 12.9375 11.5623Z" fill="white"/>
<path d="M12.4688 13.156C12.4688 13.4148 12.6787 13.6248 12.9375 13.6248H18.9843C19.6056 13.6017 19.6052 12.7101 18.9843 12.6873H12.9375C12.6787 12.6873 12.4688 12.8972 12.4688 13.156Z" fill="white"/>
<path d="M18.9843 16.8123H12.9375C12.6787 16.8123 12.4688 17.0222 12.4688 17.281V19.3435C12.4688 19.6023 12.6787 19.8122 12.9375 19.8122H18.9843C19.2432 19.8122 19.4531 19.6023 19.4531 19.3435V17.281C19.4531 17.0222 19.2432 16.8123 18.9843 16.8123ZM18.5156 18.8747H13.4062V17.7498H18.5156V18.8747Z" fill="white"/>
<path d="M10.8281 20.9373H2.57809C1.95681 20.9603 1.95728 21.8519 2.57809 21.8748H10.8281C11.4494 21.8517 11.4489 20.9601 10.8281 20.9373Z" fill="white"/>
<path d="M24 5.14032C23.8266 -1.1897 14.9314 -1.86742 13.7565 4.29667H2.34374C1.0514 4.29667 0 5.34807 0 6.64041V21.6403C0 22.9327 1.0514 23.9841 2.34374 23.9841H19.2187C20.511 23.9841 21.5624 22.9327 21.5624 21.6403V9.52007C23.0248 8.60906 24 6.98644 24 5.14032ZM2.34374 5.23416H13.6884C13.6956 5.63766 13.7495 6.03 13.8447 6.40603H8.67184C8.413 6.40603 8.20309 6.61594 8.20309 6.87478C8.20309 7.77942 7.46716 8.5154 6.56252 8.5154H0.937496V6.64041C0.937496 5.865 1.56834 5.23416 2.34374 5.23416ZM20.6249 21.6403C20.6249 22.4158 19.9941 23.0466 19.2187 23.0466H2.34374C1.56834 23.0466 0.937496 22.4158 0.937496 21.6403V9.4529H6.56252C7.82406 9.4529 8.87687 8.54212 9.09789 7.34353H14.1823C15.219 9.6628 18.1721 10.9394 20.6249 9.97944V21.6403ZM18.8438 9.35905C16.5176 9.35905 14.625 7.46653 14.625 5.14032C14.8371 -0.448705 22.8512 -0.447205 23.0625 5.14037C23.0625 7.46653 21.17 9.35905 18.8438 9.35905Z" fill="white"/>
<path d="M20.7187 4.67159H19.3125V3.26534C19.2894 2.64407 18.3978 2.64453 18.375 3.26534V4.67159H16.9687C16.3474 4.69465 16.3479 5.58621 16.9687 5.60908H18.375V7.01533C18.398 7.63661 19.2896 7.63614 19.3125 7.01533V5.60908H20.7187C21.34 5.58602 21.3395 4.69446 20.7187 4.67159Z" fill="white"/>
</g>
<defs>
<clipPath id="clip0_1370_680">
<rect width="24" height="24" fill="white"/>
</clipPath>
</defs>
</svg>
