<svg width="28" height="28" viewBox="0 0 28 28" fill="none" xmlns="http://www.w3.org/2000/svg">
<path d="M12.7401 26.5999C11.1191 26.5999 9.80006 25.2808 9.80006 23.6599C9.80006 22.039 11.1191 20.7199 12.7401 20.7199C14.361 20.7199 15.6801 22.039 15.6801 23.6599C15.6801 25.2808 14.361 26.5999 12.7401 26.5999ZM12.7401 22.3999C12.0454 22.3999 11.4801 22.9652 11.4801 23.6599C11.4801 24.3546 12.0454 24.9199 12.7401 24.9199C13.4347 24.9199 14.0001 24.3546 14.0001 23.6599C14.0001 22.9652 13.4347 22.3999 12.7401 22.3999ZM21.1401 26.5999C19.5191 26.5999 18.2001 25.2808 18.2001 23.6599C18.2001 22.039 19.5191 20.7199 21.1401 20.7199C22.761 20.7199 24.0801 22.039 24.0801 23.6599C24.0801 25.2808 22.761 26.5999 21.1401 26.5999ZM21.1401 22.3999C20.4454 22.3999 19.8801 22.9652 19.8801 23.6599C19.8801 24.3546 20.4454 24.9199 21.1401 24.9199C21.8347 24.9199 22.4001 24.3546 22.4001 23.6599C22.4001 22.9652 21.8347 22.3999 21.1401 22.3999ZM27.262 7.60302C27.1029 7.39918 26.8588 7.2799 26.6001 7.2799H23.1818C22.7663 3.9703 19.9403 1.3999 16.5201 1.3999C13.0999 1.3999 10.2738 3.9703 9.8583 7.2799H7.39374L6.71222 4.21278C6.45406 3.05106 5.44214 2.2399 4.25214 2.2399H1.40006C0.936099 2.2399 0.560059 2.61594 0.560059 3.0799C0.560059 3.54386 0.936099 3.9199 1.40006 3.9199H4.25242C4.64918 3.9199 4.98658 4.19066 5.07282 4.57734L7.8479 17.067C8.10606 18.2287 9.11798 19.0399 10.3077 19.0399H22.7683C23.9269 19.0399 24.9324 18.2548 25.2132 17.1311L27.4149 8.32374C27.4779 8.07286 27.4213 7.80686 27.262 7.60302V7.60302ZM16.5201 3.0799C19.2993 3.0799 21.5601 5.34062 21.5601 8.1199C21.5601 10.8992 19.2993 13.1599 16.5201 13.1599C13.7408 13.1599 11.4801 10.8992 11.4801 8.1199C11.4801 5.34062 13.7408 3.0799 16.5201 3.0799V3.0799ZM23.5833 16.7235C23.4898 17.0981 23.1547 17.3599 22.7683 17.3599H10.3077C9.91094 17.3599 9.57354 17.0891 9.4873 16.7025L7.76726 8.9599H9.85858C10.2738 12.2695 13.0999 14.8399 16.5201 14.8399C19.9403 14.8399 22.7663 12.2695 23.1818 8.9599H25.5243L23.5833 16.7235ZM19.0401 7.2799H17.3601V5.5999C17.3601 5.13594 16.984 4.7599 16.5201 4.7599C16.0561 4.7599 15.6801 5.13594 15.6801 5.5999V7.2799H14.0001C13.5361 7.2799 13.1601 7.65594 13.1601 8.1199C13.1601 8.58386 13.5361 8.9599 14.0001 8.9599H15.6801V10.6399C15.6801 11.1039 16.0561 11.4799 16.5201 11.4799C16.984 11.4799 17.3601 11.1039 17.3601 10.6399V8.9599H19.0401C19.504 8.9599 19.8801 8.58386 19.8801 8.1199C19.8801 7.65594 19.504 7.2799 19.0401 7.2799Z" fill="#4A90E2"/>
</svg>
