<svg width="20" height="20" viewBox="0 0 20 20" fill="none" xmlns="http://www.w3.org/2000/svg">
<path fill-rule="evenodd" clip-rule="evenodd" d="M6.88889 5.32031V6.52873H4.55555V10.8203H4.55863L6.5 12.8203H13.5L15.3504 10.7827V6.52873H13.1111V5.32031H15.6778C15.9784 5.32031 16.5333 5.63371 16.5333 6.02031V10.8203C16.7911 10.8203 17 11.089 17 11.4203V17.2203C17 17.5517 16.7911 17.8203 16.5333 17.8203H3.46667C3.20894 17.8203 3 17.5517 3 17.2203V11.4203C3 11.089 3.20894 10.8203 3.46667 10.8203V6.02031C3.46667 5.63371 4.02153 5.32031 4.32222 5.32031H6.88889ZM4 12V16.8203H16V12L14 14H6L4 12ZM10.3889 2.8203V9.3203L12 7.3203L12.5 7.8203L10 10.8203L7.5 7.8203L8 7.3203L9.61111 9.3203L9.61111 2.8203H10.3889Z" fill="#4A90E2"/>
</svg>
