<svg width="25" height="25" viewBox="0 0 25 25" fill="none" xmlns="http://www.w3.org/2000/svg">
<g clip-path="url(#clip0_959_551)">
<path d="M21.7864 23.8343H3.21362C2.05661 23.8343 1.01912 23.2369 0.438418 22.2361C-0.142332 21.2355 -0.146336 20.0382 0.427726 19.0336L9.71407 2.78245C10.2925 1.7702 11.3341 1.16577 12.5 1.16577H12.5C13.666 1.16577 14.7074 1.77015 15.2859 2.78245L24.5722 19.0336C25.1463 20.0382 25.1424 21.2354 24.5616 22.2361C23.9809 23.2369 22.9434 23.8343 21.7864 23.8343ZM12.5 2.63046C11.8662 2.63046 11.3002 2.95899 10.9858 3.50918L1.69942 19.7603C1.38739 20.3064 1.38959 20.957 1.70523 21.5009C2.02087 22.0448 2.58478 22.3695 3.21362 22.3695H21.7864C22.4153 22.3695 22.9792 22.0448 23.2948 21.5009C23.6104 20.957 23.6126 20.3063 23.3006 19.7603L14.0142 3.50918C13.6998 2.95899 13.1337 2.63046 12.5 2.63046Z" fill="#FF8E00"/>
<path d="M21.0054 20.9049H3.99409C3.73303 20.9049 3.4917 20.7659 3.36066 20.5401C3.22962 20.3143 3.22869 20.0358 3.35822 19.8091L11.8639 4.92418C11.9942 4.69603 12.2369 4.55518 12.4997 4.55518C12.7625 4.55518 13.0052 4.69603 13.1355 4.92418L21.6412 19.8091C21.7707 20.0358 21.7698 20.3143 21.6387 20.5401C21.5078 20.7659 21.2665 20.9049 21.0054 20.9049ZM5.25607 19.4402H19.7434L12.4998 6.76364L5.25607 19.4402Z" fill="#FF8E00"/>
<path d="M12.4999 15.942C12.0955 15.942 11.7676 15.6141 11.7676 15.2097V10.6935C11.7676 10.2891 12.0955 9.96118 12.4999 9.96118C12.9044 9.96118 13.2323 10.2891 13.2323 10.6935V15.2097C13.2323 15.6142 12.9044 15.942 12.4999 15.942Z" fill="#FF8E00"/>
<path d="M12.5001 18.2611C12.8831 18.2611 13.2501 17.9242 13.2324 17.5287C13.2146 17.1319 12.9106 16.7964 12.5001 16.7964C12.117 16.7964 11.75 17.1332 11.7677 17.5287C11.7855 17.9255 12.0895 18.2611 12.5001 18.2611Z" fill="#FF8E00"/>
</g>
<defs>
<clipPath id="clip0_959_551">
<rect width="25" height="25" fill="white"/>
</clipPath>
</defs>
</svg>
