<svg width="24" height="24" viewBox="0 0 24 24" fill="none" xmlns="http://www.w3.org/2000/svg">
<g clip-path="url(#clip0_159_728)">
<path d="M22.1739 7.69558H20.9298C20.9203 7.68499 20.9114 7.67407 20.9012 7.66394L14.1186 0.881318C13.813 0.575693 13.3175 0.575693 13.0118 0.881318C12.7062 1.18694 12.7062 1.68246 13.0118 1.98808L18.7193 7.69554H5.28066L10.9882 1.98808C11.2938 1.68246 11.2938 1.18694 10.9882 0.881318C10.6826 0.575693 10.187 0.575693 9.88139 0.881318L3.09877 7.66394C3.08859 7.67411 3.07969 7.68504 3.07017 7.69558H1.82611C0.819187 7.69558 0 8.51477 0 9.52165V10.5651C0 11.5242 0.743203 12.313 1.68394 12.3858L3.18394 21.3859C3.37345 22.5227 4.34738 23.3478 5.49984 23.3478H18.7294C19.8902 23.3478 20.8894 22.4811 21.0536 21.3319L22.3318 12.3844C23.2651 12.3041 24 11.5188 24 10.5651V9.52165C24 8.51477 23.1808 7.69558 22.1739 7.69558ZM22.4348 10.5651C22.4348 10.709 22.3178 10.826 22.1739 10.826C21.9337 10.826 14.6907 10.826 14.3479 10.826C13.9157 10.826 13.5652 11.1764 13.5652 11.6086C13.5652 12.0408 13.9156 12.3912 14.3479 12.3912H20.7499L19.5042 21.1106C19.4495 21.4937 19.1164 21.7826 18.7294 21.7826H5.49984C5.1157 21.7826 4.79105 21.5075 4.72786 21.1286L3.27169 12.3912H9.65217C10.0844 12.3912 10.4348 12.0408 10.4348 11.6086C10.4348 11.1764 10.0844 10.826 9.65217 10.826C9.30881 10.826 2.06536 10.826 1.82611 10.826C1.68225 10.826 1.56525 10.7089 1.56525 10.5651V9.52165C1.56525 9.37779 1.6823 9.26079 1.82611 9.26079H22.1739C22.3178 9.26079 22.4348 9.37783 22.4348 9.52165V10.5651Z" fill="#4A4A4A"/>
<path d="M7.30435 13.9565C6.87217 13.9565 6.52173 14.3069 6.52173 14.7392V19.4348C6.52173 19.867 6.87212 20.2174 7.30435 20.2174C7.73659 20.2174 8.08698 19.8671 8.08698 19.4348V14.7391C8.08698 14.3069 7.73659 13.9565 7.30435 13.9565Z" fill="#4A4A4A"/>
<path d="M12 13.9565C11.5678 13.9565 11.2173 14.3069 11.2173 14.7392V19.4348C11.2173 19.867 11.5677 20.2174 12 20.2174C12.4322 20.2174 12.7826 19.8671 12.7826 19.4348V14.7391C12.7826 14.3069 12.4322 13.9565 12 13.9565Z" fill="#4A4A4A"/>
<path d="M16.6957 13.9565C16.2635 13.9565 15.913 14.3069 15.913 14.7392V19.4348C15.913 19.867 16.2634 20.2174 16.6957 20.2174C17.1278 20.2174 17.4783 19.8671 17.4783 19.4348V14.7391C17.4783 14.3069 17.1278 13.9565 16.6957 13.9565Z" fill="#4A4A4A"/>
</g>
<defs>
<clipPath id="clip0_159_728">
<rect width="24" height="24" fill="white"/>
</clipPath>
</defs>
</svg>
