<svg width="15" height="16" viewBox="0 0 15 16" fill="none" xmlns="http://www.w3.org/2000/svg">
<path fill-rule="evenodd" clip-rule="evenodd" d="M2.85071 16H12.9503C13.3711 16 13.7746 15.8321 14.0722 15.5333C14.3699 15.2343 14.5371 14.8288 14.5371 14.4061C14.5371 14.402 14.5371 14.398 14.5371 14.3939C14.5371 13.9712 14.3699 13.566 14.0722 13.2669C13.7746 12.9679 13.3711 12.8 12.9503 12.8H12.413V2.1289C12.413 0.953088 11.4641 0 10.2938 0H1.26235C0.969242 0 0.731445 0.238848 0.731445 0.533504V13.8714C0.731445 15.0469 1.68034 16 2.85071 16ZM12.9503 14.9335H3.91735V14.3939C3.91735 14.2541 3.97266 14.1199 4.07104 14.0211C4.16942 13.9223 4.30298 13.8668 4.44214 13.8668H12.9503C13.0895 13.8668 13.223 13.9223 13.3214 14.0211C13.4198 14.1199 13.4751 14.2541 13.4751 14.3939V14.4061C13.4751 14.5459 13.4198 14.6801 13.3214 14.7789C13.223 14.878 13.0895 14.9335 12.9503 14.9335ZM11.3512 12.8V2.1289C11.3512 1.54214 10.8777 1.06675 10.2938 1.06675H1.7935V13.8714C1.7935 14.4579 2.2668 14.9335 2.85071 14.9335H2.8553V14.3941C2.8553 13.9712 3.0225 13.566 3.32019 13.2669C3.61788 12.9679 4.02134 12.8 4.44214 12.8H11.3512ZM3.38645 7.46675H6.57236C6.86521 7.46675 7.10326 7.22765 7.10326 6.9335C7.10326 6.6391 6.86521 6.4 6.57236 6.4H3.38645C3.09335 6.4 2.8553 6.6391 2.8553 6.9335C2.8553 7.22765 3.09335 7.46675 3.38645 7.46675ZM3.38645 5.3335H9.75827C10.0511 5.3335 10.2892 5.0944 10.2892 4.8C10.2892 4.50586 10.0511 4.26675 9.75827 4.26675H3.38645C3.09335 4.26675 2.8553 4.50586 2.8553 4.8C2.8553 5.0944 3.09335 5.3335 3.38645 5.3335ZM3.38645 3.2H9.75827C10.0511 3.2 10.2892 2.96115 10.2892 2.66675C10.2892 2.37235 10.0511 2.1335 9.75827 2.1335H3.38645C3.09335 2.1335 2.8553 2.37235 2.8553 2.66675C2.8553 2.96115 3.09335 3.2 3.38645 3.2Z" fill="#4A90E2"/>
</svg>
