<svg width="30" height="32" viewBox="0 0 30 32" fill="none" xmlns="http://www.w3.org/2000/svg">
<g clip-path="url(#clip0_958_543)">
<path fill-rule="evenodd" clip-rule="evenodd" d="M6.76323 32H26.9624C27.804 32 28.611 31.6642 29.2062 31.0666C29.8016 30.4686 30.136 29.6576 30.136 28.8122C30.136 28.804 30.136 28.796 30.136 28.7878C30.136 27.9424 29.8016 27.132 29.2062 26.5338C28.611 25.9358 27.804 25.6 26.9624 25.6H25.8878V4.2578C25.8878 1.90618 23.99 0 21.6494 0H3.58651C3.00029 0 2.5247 0.477696 2.5247 1.06701V27.7428C2.5247 30.0938 4.42249 32 6.76323 32ZM26.9624 29.867H8.89651V28.7878C8.89651 28.5082 9.00713 28.2398 9.20389 28.0422C9.40065 27.8446 9.66777 27.7336 9.94609 27.7336H26.9624C27.2408 27.7336 27.5078 27.8446 27.7046 28.0422C27.9014 28.2398 28.012 28.5082 28.012 28.7878V28.8122C28.012 29.0918 27.9014 29.3602 27.7046 29.5578C27.5078 29.756 27.2408 29.867 26.9624 29.867ZM23.7642 25.6V4.2578C23.7642 3.08428 22.8172 2.1335 21.6494 2.1335H4.64881V27.7428C4.64881 28.9158 5.59541 29.867 6.76323 29.867H6.77241V28.7882C6.77241 27.9424 7.10681 27.132 7.70219 26.5338C8.29757 25.9358 9.10449 25.6 9.94609 25.6H23.7642ZM7.83471 14.9335H14.2065C14.7922 14.9335 15.2683 14.4553 15.2683 13.867C15.2683 13.2782 14.7922 12.8 14.2065 12.8H7.83471C7.24851 12.8 6.77241 13.2782 6.77241 13.867C6.77241 14.4553 7.24851 14.9335 7.83471 14.9335ZM7.83471 10.667H20.5784C21.164 10.667 21.6402 10.1888 21.6402 9.6C21.6402 9.01172 21.164 8.5335 20.5784 8.5335H7.83471C7.24851 8.5335 6.77241 9.01172 6.77241 9.6C6.77241 10.1888 7.24851 10.667 7.83471 10.667ZM7.83471 6.4H20.5784C21.164 6.4 21.6402 5.9223 21.6402 5.3335C21.6402 4.7447 21.164 4.267 20.5784 4.267H7.83471C7.24851 4.267 6.77241 4.7447 6.77241 5.3335C6.77241 5.9223 7.24851 6.4 7.83471 6.4Z" fill="#4A90E2"/>
<path d="M2 30L27 2" stroke="#4A90E2" stroke-width="3" stroke-linecap="round"/>
</g>
<defs>
<clipPath id="clip0_958_543">
<rect width="30" height="32" fill="white"/>
</clipPath>
</defs>
</svg>
