<svg width="16" height="16" viewBox="0 0 16 16" fill="none" xmlns="http://www.w3.org/2000/svg">
<path d="M11.4483 7.28502L10.7423 7.9917L11.4482 8.69848L14.8037 12.058C14.8038 12.0581 14.8039 12.0582 14.804 12.0583C14.9292 12.1841 14.9995 12.3544 14.9995 12.5319C14.9995 12.7095 14.9291 12.8799 14.8037 13.0057C14.8037 13.0057 14.8037 13.0058 14.8037 13.0058L13.0068 14.8042L13.0064 14.8046C12.9446 14.8665 12.8711 14.9157 12.7903 14.9492C12.7094 14.9827 12.6228 15 12.5352 15C12.4477 15 12.361 14.9827 12.2802 14.9492C12.1994 14.9157 12.1259 14.8665 12.0641 14.8046L12.0638 14.8043L8.70748 11.4444L8.00006 10.7362L7.29257 11.4443L3.94576 14.7942C3.81507 14.9158 3.64303 14.9836 3.46422 14.9836C3.28542 14.9836 3.11338 14.9158 2.98269 14.7942L1.19579 13.0058C1.19564 13.0056 1.19549 13.0055 1.19534 13.0053C1.07023 12.8795 1 12.7093 1 12.5319C1 12.3544 1.07028 12.1842 1.19548 12.0583C1.19558 12.0582 1.19568 12.0581 1.19579 12.058L4.55166 8.69913L5.2578 7.99234L4.55166 7.28556L1.19579 3.92664C1.19566 3.92652 1.19554 3.9264 1.19542 3.92628C1.07026 3.80047 1 3.63023 1 3.45278C1 3.27529 1.07029 3.10502 1.19549 2.9792C1.19559 2.97911 1.19569 2.97901 1.19579 2.97891L2.98325 1.18941C3.11394 1.06776 3.28596 1 3.46476 1C3.64356 1 3.81558 1.06776 3.94628 1.18942L7.29252 4.53923L7.99989 5.24735L8.70737 4.53934L12.0542 1.19C12.1849 1.06831 12.357 1.00053 12.5358 1.00053C12.7146 1.00053 12.8866 1.06831 13.0173 1.18999L14.8042 2.97838C14.8043 2.97846 14.8044 2.97855 14.8045 2.97863C14.9297 3.10445 15 3.27474 15 3.45224C15 3.62978 14.9297 3.8001 14.8044 3.92593C14.8043 3.92599 14.8043 3.92605 14.8042 3.92611L11.4483 7.28502Z" fill="white" stroke="#5C69DE" stroke-width="2"/>
</svg>
