<svg width="32" height="21" viewBox="0 0 32 21" fill="none" xmlns="http://www.w3.org/2000/svg">
<path d="M29.1653 0.545319C27.5567 0.193694 25.4254 6.44487e-06 23.1639 6.44487e-06C20.0451 6.44487e-06 16.4576 0.404506 15.0238 1.30094C13.5152 0.446311 11.8105 -0.00196045 10.0766 6.44487e-06C4.52031 6.44487e-06 0 4.52032 0 10.0766C0 15.6328 4.52031 20.1531 10.0766 20.1531C11.8103 20.1551 13.5149 19.7069 15.0235 18.8524C16.4574 19.7487 20.0454 20.1531 23.1639 20.1531C25.4254 20.1531 27.5567 19.9594 29.1653 19.6078C31.0728 19.1908 32 18.6094 32 17.8307V2.32244C32 1.54363 31.0728 0.962319 29.1653 0.545319ZM31 12.6428C30.9636 12.6994 30.6293 13.1266 28.7044 13.5133C27.1944 13.8166 25.2268 13.9837 23.1639 13.9837C21.9214 13.9866 20.6796 13.9217 19.4442 13.7892C19.9138 12.6078 20.1543 11.3479 20.1531 10.0766C20.1531 9.94776 20.1498 9.81976 20.145 9.69213C21.1069 9.77282 22.1191 9.81426 23.1637 9.81426C25.4253 9.81426 27.5566 9.62051 29.1651 9.26894C29.9355 9.10053 30.5471 8.90457 30.9999 8.68107L31 12.6428ZM31 7.47338C30.9637 7.52994 30.6294 7.95707 28.7044 8.34382C27.1944 8.64719 25.2268 8.81426 23.1639 8.81426C22.0841 8.81426 21.0408 8.76951 20.056 8.68126C19.8372 7.11039 19.2485 5.61391 18.3385 4.31494C19.7464 4.52951 21.4104 4.64482 23.1639 4.64482C25.4254 4.64482 27.5567 4.45107 29.1653 4.09951C29.9356 3.93109 30.5472 3.73513 31 3.51163V7.47338ZM23.1639 1.00001C25.2268 1.00001 27.1944 1.16707 28.7044 1.47044C30.4876 1.82869 30.9056 2.22151 30.9864 2.32244C30.9057 2.42332 30.4879 2.81619 28.7044 3.17438C27.1944 3.47776 25.2268 3.64482 23.1639 3.64482C20.9861 3.64482 18.8819 3.45357 17.3584 3.11863C16.9401 2.68127 16.4836 2.28216 15.9942 1.92607C17.1987 1.43351 19.7844 1.00001 23.1639 1.00001ZM1 10.0766C1 5.07176 5.07169 1.00001 10.0766 1.00001C15.0814 1.00001 19.1531 5.07176 19.1531 10.0766C19.1531 15.0814 15.0813 19.1531 10.0766 19.1531C5.07188 19.1531 1 15.0814 1 10.0766ZM28.7044 18.6828C27.1944 18.9861 25.2268 19.1533 23.1639 19.1533C19.7846 19.1533 17.1988 18.7199 15.994 18.2273C17.2511 17.3123 18.281 16.1207 19.0044 14.7445C20.3848 14.908 21.7738 14.9879 23.1639 14.9838C25.4254 14.9838 27.5567 14.7901 29.1653 14.4385C29.9356 14.27 30.5472 14.0741 31 13.8506V17.8122C30.9633 17.8693 30.6282 18.2962 28.7044 18.6828ZM12.1388 5.30882H8.41431C8.2817 5.30882 8.15453 5.3615 8.06076 5.45527C7.96699 5.54903 7.91431 5.67621 7.91431 5.80882V9.85782H6.34013C6.20752 9.85782 6.08034 9.9105 5.98657 10.0043C5.8928 10.098 5.84013 10.2252 5.84013 10.3578C5.84013 10.4904 5.8928 10.6176 5.98657 10.7114C6.08034 10.8051 6.20752 10.8578 6.34013 10.8578H7.91431V11.7435H6.34013C6.20752 11.7435 6.08034 11.7962 5.98657 11.89C5.8928 11.9837 5.84013 12.1109 5.84013 12.2435C5.84013 12.3761 5.8928 12.5033 5.98657 12.5971C6.08034 12.6908 6.20752 12.7435 6.34013 12.7435H7.91431V14.3442C7.91431 14.4768 7.96699 14.604 8.06076 14.6977C8.15453 14.7915 8.2817 14.8442 8.41431 14.8442C8.54692 14.8442 8.6741 14.7915 8.76787 14.6977C8.86163 14.604 8.91431 14.4768 8.91431 14.3442V12.7436H13.8129C13.9455 12.7436 14.0727 12.691 14.1665 12.5972C14.2603 12.5034 14.3129 12.3762 14.3129 12.2436C14.3129 12.111 14.2603 11.9838 14.1665 11.8901C14.0727 11.7963 13.9455 11.7436 13.8129 11.7436H8.91431V10.8578H12.1388C13.3376 10.8578 14.3129 9.69607 14.3129 8.26807V7.89838C14.3129 6.47032 13.3375 5.30882 12.1388 5.30882ZM13.3129 8.26819C13.3129 9.12994 12.7754 9.85794 12.1388 9.85794H8.91431V6.30882H12.1388C12.7752 6.30882 13.3129 7.03682 13.3129 7.89851V8.26819Z" fill="white"/>
</svg>
