<svg width="32" height="32" viewBox="0 0 32 32" fill="none" xmlns="http://www.w3.org/2000/svg">
<path d="M24.2338 13.5384C24.5879 13.5384 24.8749 13.2326 24.8749 12.8554C24.8749 12.4782 24.5879 12.1724 24.2338 12.1724C23.8798 12.1724 23.5928 12.4782 23.5928 12.8554C23.5928 13.2326 23.8798 13.5384 24.2338 13.5384Z" fill="#4A90E2"/>
<path d="M20.1166 13.5384C20.4707 13.5384 20.7577 13.2326 20.7577 12.8554C20.7577 12.4782 20.4707 12.1724 20.1166 12.1724C19.7626 12.1724 19.4756 12.4782 19.4756 12.8554C19.4756 13.2326 19.7626 13.5384 20.1166 13.5384Z" fill="#4A90E2"/>
<path d="M16.0004 13.5384C16.3545 13.5384 16.6415 13.2326 16.6415 12.8554C16.6415 12.4782 16.3545 12.1724 16.0004 12.1724C15.6464 12.1724 15.3594 12.4782 15.3594 12.8554C15.3594 13.2326 15.6464 13.5384 16.0004 13.5384Z" fill="#4A90E2"/>
<path d="M11.8832 13.5384C12.2373 13.5384 12.5243 13.2326 12.5243 12.8554C12.5243 12.4782 12.2373 12.1724 11.8832 12.1724C11.5292 12.1724 11.2422 12.4782 11.2422 12.8554C11.2422 13.2326 11.5292 13.5384 11.8832 13.5384Z" fill="#4A90E2"/>
<path d="M7.76702 13.5384C8.12105 13.5384 8.40806 13.2326 8.40806 12.8554C8.40806 12.4782 8.12105 12.1724 7.76702 12.1724C7.41298 12.1724 7.12598 12.4782 7.12598 12.8554C7.12598 13.2326 7.41298 13.5384 7.76702 13.5384Z" fill="#4A90E2"/>
<path d="M24.2338 17.9246C24.5879 17.9246 24.8749 17.6188 24.8749 17.2416C24.8749 16.8644 24.5879 16.5586 24.2338 16.5586C23.8798 16.5586 23.5928 16.8644 23.5928 17.2416C23.5928 17.6188 23.8798 17.9246 24.2338 17.9246Z" fill="#4A90E2"/>
<path d="M20.1166 17.9246C20.4707 17.9246 20.7577 17.6188 20.7577 17.2416C20.7577 16.8644 20.4707 16.5586 20.1166 16.5586C19.7626 16.5586 19.4756 16.8644 19.4756 17.2416C19.4756 17.6188 19.7626 17.9246 20.1166 17.9246Z" fill="#4A90E2"/>
<path d="M16.0004 17.9246C16.3545 17.9246 16.6415 17.6188 16.6415 17.2416C16.6415 16.8644 16.3545 16.5586 16.0004 16.5586C15.6464 16.5586 15.3594 16.8644 15.3594 17.2416C15.3594 17.6188 15.6464 17.9246 16.0004 17.9246Z" fill="#4A90E2"/>
<path d="M7.76702 17.9246C8.12105 17.9246 8.40806 17.6188 8.40806 17.2416C8.40806 16.8644 8.12105 16.5586 7.76702 16.5586C7.41298 16.5586 7.12598 16.8644 7.12598 17.2416C7.12598 17.6188 7.41298 17.9246 7.76702 17.9246Z" fill="#4A90E2"/>
<path d="M24.2338 22.3108C24.5879 22.3108 24.8749 22.005 24.8749 21.6278C24.8749 21.2506 24.5879 20.9448 24.2338 20.9448C23.8798 20.9448 23.5928 21.2506 23.5928 21.6278C23.5928 22.005 23.8798 22.3108 24.2338 22.3108Z" fill="#4A90E2"/>
<path d="M20.1166 22.3108C20.4707 22.3108 20.7577 22.005 20.7577 21.6278C20.7577 21.2506 20.4707 20.9448 20.1166 20.9448C19.7626 20.9448 19.4756 21.2506 19.4756 21.6278C19.4756 22.005 19.7626 22.3108 20.1166 22.3108Z" fill="#4A90E2"/>
<path d="M16.0004 22.3108C16.3545 22.3108 16.6415 22.005 16.6415 21.6278C16.6415 21.2506 16.3545 20.9448 16.0004 20.9448C15.6464 20.9448 15.3594 21.2506 15.3594 21.6278C15.3594 22.005 15.6464 22.3108 16.0004 22.3108Z" fill="#4A90E2"/>
<path d="M11.8832 22.3108C12.2373 22.3108 12.5243 22.005 12.5243 21.6278C12.5243 21.2506 12.2373 20.9448 11.8832 20.9448C11.5292 20.9448 11.2422 21.2506 11.2422 21.6278C11.2422 22.005 11.5292 22.3108 11.8832 22.3108Z" fill="#4A90E2"/>
<path d="M7.76702 22.3108C8.12105 22.3108 8.40806 22.005 8.40806 21.6278C8.40806 21.2506 8.12105 20.9448 7.76702 20.9448C7.41298 20.9448 7.12598 21.2506 7.12598 21.6278C7.12598 22.005 7.41298 22.3108 7.76702 22.3108Z" fill="#4A90E2"/>
<path d="M13.8168 14.5933H9.94753C9.64315 14.5933 9.39648 14.8561 9.39648 15.1804V19.3029C9.39648 19.6272 9.64315 19.89 9.94753 19.89H13.8168C14.1212 19.89 14.3678 19.6272 14.3678 19.3029V15.1805C14.3678 14.8561 14.1211 14.5933 13.8168 14.5933ZM13.2657 18.7157H10.4986V15.7675H13.2657V18.7157H13.2657Z" fill="#4A90E2"/>
<path d="M27.4968 6.73938H23.4495V5.98586C23.4495 5.62555 23.1753 5.3335 22.8372 5.3335C22.4991 5.3335 22.2249 5.62561 22.2249 5.98586V6.73938H18.8915V5.98586C18.8915 5.62555 18.6173 5.3335 18.2792 5.3335C17.941 5.3335 17.6669 5.62561 17.6669 5.98586V6.73938H14.3336V5.98586C14.3336 5.62555 14.0595 5.3335 13.7213 5.3335C13.3832 5.3335 13.1091 5.62561 13.1091 5.98586V6.73938H9.77568V5.98586C9.77568 5.62555 9.50156 5.3335 9.16339 5.3335C8.82521 5.3335 8.5511 5.62561 8.5511 5.98586V6.73938H4.50371C3.491 6.73938 2.66699 7.61726 2.66699 8.69636V24.7098C2.66699 25.7889 3.491 26.6668 4.50381 26.6668H27.4968C28.5097 26.6668 29.3337 25.7889 29.3337 24.7098V8.69636C29.3336 7.61726 28.5095 6.73938 27.4968 6.73938ZM27.4968 25.3622H4.50381C4.16621 25.3622 3.89152 25.0696 3.89152 24.7099V8.69636C3.89152 8.33666 4.16621 8.04399 4.50381 8.04399H8.55115V8.79746C8.55115 9.15766 8.82526 9.44982 9.16344 9.44982C9.50161 9.44982 9.77573 9.15772 9.77573 8.79746V8.04399H13.1091V8.79746C13.1091 9.15766 13.3832 9.44982 13.7214 9.44982C14.0596 9.44982 14.3337 9.15772 14.3337 8.79746V8.04399H17.667V8.79746C17.667 9.15766 17.9411 9.44982 18.2793 9.44982C18.6173 9.44982 18.8915 9.15772 18.8915 8.79746V8.04399H22.2249V8.79746C22.2249 9.15766 22.4991 9.44982 22.8372 9.44982C23.1754 9.44982 23.4495 9.15772 23.4495 8.79746V8.04399H27.4968C27.8344 8.04399 28.1091 8.33666 28.1091 8.69636V24.7098H28.1092C28.1091 25.0696 27.8344 25.3622 27.4968 25.3622Z" fill="#4A90E2"/>
</svg>
