<svg width="20" height="20" viewBox="0 0 20 20" fill="none" xmlns="http://www.w3.org/2000/svg">
<path d="M15.1458 8.46165C15.367 8.46165 15.5464 8.27054 15.5464 8.03478C15.5464 7.79903 15.367 7.60791 15.1458 7.60791C14.9245 7.60791 14.7451 7.79903 14.7451 8.03478C14.7451 8.27054 14.9245 8.46165 15.1458 8.46165Z" fill="#4A4A4A"/>
<path d="M12.5725 8.46165C12.7938 8.46165 12.9732 8.27054 12.9732 8.03478C12.9732 7.79903 12.7938 7.60791 12.5725 7.60791C12.3513 7.60791 12.1719 7.79903 12.1719 8.03478C12.1719 8.27054 12.3513 8.46165 12.5725 8.46165Z" fill="#4A4A4A"/>
<path d="M9.99977 8.46165C10.221 8.46165 10.4004 8.27054 10.4004 8.03478C10.4004 7.79903 10.221 7.60791 9.99977 7.60791C9.7785 7.60791 9.59912 7.79903 9.59912 8.03478C9.59912 8.27054 9.7785 8.46165 9.99977 8.46165Z" fill="#4A4A4A"/>
<path d="M7.42702 8.46165C7.64829 8.46165 7.82767 8.27054 7.82767 8.03478C7.82767 7.79903 7.64829 7.60791 7.42702 7.60791C7.20574 7.60791 7.02637 7.79903 7.02637 8.03478C7.02637 8.27054 7.20574 8.46165 7.42702 8.46165Z" fill="#4A4A4A"/>
<path d="M4.85378 8.46165C5.07505 8.46165 5.25443 8.27054 5.25443 8.03478C5.25443 7.79903 5.07505 7.60791 4.85378 7.60791C4.6325 7.60791 4.45312 7.79903 4.45312 8.03478C4.45312 8.27054 4.6325 8.46165 4.85378 8.46165Z" fill="#4A4A4A"/>
<path d="M15.1458 11.2029C15.367 11.2029 15.5464 11.0117 15.5464 10.776C15.5464 10.5402 15.367 10.3491 15.1458 10.3491C14.9245 10.3491 14.7451 10.5402 14.7451 10.776C14.7451 11.0117 14.9245 11.2029 15.1458 11.2029Z" fill="#4A4A4A"/>
<path d="M12.5725 11.2029C12.7938 11.2029 12.9732 11.0117 12.9732 10.776C12.9732 10.5402 12.7938 10.3491 12.5725 10.3491C12.3513 10.3491 12.1719 10.5402 12.1719 10.776C12.1719 11.0117 12.3513 11.2029 12.5725 11.2029Z" fill="#4A4A4A"/>
<path d="M9.99977 11.2029C10.221 11.2029 10.4004 11.0117 10.4004 10.776C10.4004 10.5402 10.221 10.3491 9.99977 10.3491C9.7785 10.3491 9.59912 10.5402 9.59912 10.776C9.59912 11.0117 9.7785 11.2029 9.99977 11.2029Z" fill="#4A4A4A"/>
<path d="M4.85378 11.2029C5.07505 11.2029 5.25443 11.0117 5.25443 10.776C5.25443 10.5402 5.07505 10.3491 4.85378 10.3491C4.6325 10.3491 4.45312 10.5402 4.45312 10.776C4.45312 11.0117 4.6325 11.2029 4.85378 11.2029Z" fill="#4A4A4A"/>
<path d="M15.1458 13.9446C15.367 13.9446 15.5464 13.7534 15.5464 13.5177C15.5464 13.2819 15.367 13.0908 15.1458 13.0908C14.9245 13.0908 14.7451 13.2819 14.7451 13.5177C14.7451 13.7534 14.9245 13.9446 15.1458 13.9446Z" fill="#4A4A4A"/>
<path d="M12.5725 13.9446C12.7938 13.9446 12.9732 13.7534 12.9732 13.5177C12.9732 13.2819 12.7938 13.0908 12.5725 13.0908C12.3513 13.0908 12.1719 13.2819 12.1719 13.5177C12.1719 13.7534 12.3513 13.9446 12.5725 13.9446Z" fill="#4A4A4A"/>
<path d="M9.99977 13.9446C10.221 13.9446 10.4004 13.7534 10.4004 13.5177C10.4004 13.2819 10.221 13.0908 9.99977 13.0908C9.7785 13.0908 9.59912 13.2819 9.59912 13.5177C9.59912 13.7534 9.7785 13.9446 9.99977 13.9446Z" fill="#4A4A4A"/>
<path d="M7.42702 13.9446C7.64829 13.9446 7.82767 13.7534 7.82767 13.5177C7.82767 13.2819 7.64829 13.0908 7.42702 13.0908C7.20574 13.0908 7.02637 13.2819 7.02637 13.5177C7.02637 13.7534 7.20574 13.9446 7.42702 13.9446Z" fill="#4A4A4A"/>
<path d="M4.85378 13.9446C5.07505 13.9446 5.25443 13.7534 5.25443 13.5177C5.25443 13.2819 5.07505 13.0908 4.85378 13.0908C4.6325 13.0908 4.45312 13.2819 4.45312 13.5177C4.45312 13.7534 4.6325 13.9446 4.85378 13.9446Z" fill="#4A4A4A"/>
<path d="M8.63525 9.12109H6.21696C6.02673 9.12109 5.87256 9.28535 5.87256 9.48803V12.0646C5.87256 12.2673 6.02673 12.4316 6.21696 12.4316H8.63525C8.82548 12.4316 8.97965 12.2673 8.97965 12.0646V9.4881C8.97965 9.28538 8.82545 9.12109 8.63525 9.12109ZM8.29085 11.6976H6.56136V9.85501H8.29082V11.6976H8.29085Z" fill="#4A4A4A"/>
<path d="M17.1851 4.21217H14.6555V3.74122C14.6555 3.51603 14.4842 3.3335 14.2729 3.3335C14.0616 3.3335 13.8902 3.51606 13.8902 3.74122V4.21217H11.8068V3.74122C11.8068 3.51603 11.6355 3.3335 11.4241 3.3335C11.2128 3.3335 11.0415 3.51606 11.0415 3.74122V4.21217H8.95816V3.74122C8.95816 3.51603 8.78684 3.3335 8.57548 3.3335C8.36412 3.3335 8.19279 3.51606 8.19279 3.74122V4.21217H6.10943V3.74122C6.10943 3.51603 5.93811 3.3335 5.72675 3.3335C5.51539 3.3335 5.34407 3.51606 5.34407 3.74122V4.21217H2.81445C2.18151 4.21217 1.6665 4.76085 1.6665 5.43528V15.4437C1.6665 16.1181 2.18151 16.6668 2.81452 16.6668H17.1852C17.8182 16.6668 18.3332 16.1181 18.3332 15.4437V5.43528C18.3331 4.76085 17.8181 4.21217 17.1851 4.21217ZM17.1851 15.8514H2.81452C2.60351 15.8514 2.43183 15.6685 2.43183 15.4437V5.43528C2.43183 5.21047 2.60351 5.02756 2.81452 5.02756H5.3441V5.49848C5.3441 5.7236 5.51542 5.9062 5.72678 5.9062C5.93814 5.9062 6.10946 5.72363 6.10946 5.49848V5.02756H8.19283V5.49848C8.19283 5.7236 8.36415 5.9062 8.57551 5.9062C8.78687 5.9062 8.95819 5.72363 8.95819 5.49848V5.02756H11.0415V5.49848C11.0415 5.7236 11.2128 5.9062 11.4242 5.9062C11.6355 5.9062 11.8068 5.72363 11.8068 5.49848V5.02756H13.8902V5.49848C13.8902 5.7236 14.0616 5.9062 14.2729 5.9062C14.4843 5.9062 14.6556 5.72363 14.6556 5.49848V5.02756H17.1852C17.3962 5.02756 17.5678 5.21047 17.5678 5.43528V15.4437H17.5679C17.5678 15.6685 17.3961 15.8514 17.1851 15.8514Z" fill="#4A4A4A"/>
</svg>
