<svg width="32" height="32" viewBox="0 0 32 32" fill="none" xmlns="http://www.w3.org/2000/svg">
<path d="M2.08691 16C2.08691 23.672 8.32819 29.9133 16.0002 29.9133C23.6722 29.9133 29.9135 23.672 29.9135 16C29.9135 8.32801 23.6722 2.08673 16.0002 2.08673C8.32851 2.08673 2.08691 8.32801 2.08691 16ZM16.0002 4.00673C22.6133 4.00673 27.9935 9.38689 27.9935 16C27.9935 22.6131 22.6133 27.9933 16.0002 27.9933C9.38707 27.9933 4.00691 22.6131 4.00691 16C4.00691 9.38689 9.38707 4.00673 16.0002 4.00673Z" fill="#4A90E2"/>
<path d="M14.6444 16.0633L10.9317 20.1392C10.5746 20.5315 10.6031 21.1385 10.9951 21.4953C11.1791 21.6627 11.4105 21.7456 11.6412 21.7456C11.902 21.7456 12.1618 21.64 12.3513 21.4323L16.0639 17.3565L20.1397 21.0688C20.3237 21.2361 20.5551 21.319 20.7858 21.319C21.0466 21.319 21.3065 21.2134 21.4959 21.0057C21.853 20.6134 21.8245 20.0064 21.4325 19.6496L17.3567 15.9366L21.0693 11.8608C21.4265 11.4688 21.398 10.8617 21.006 10.5046C20.614 10.1475 20.0066 10.176 19.6498 10.568L15.9372 14.6438L11.8613 10.9312C11.4693 10.5737 10.862 10.6025 10.5052 10.9945C10.1481 11.3865 10.1765 11.9936 10.5685 12.3507L14.6444 16.0633Z" fill="#4A90E2"/>
</svg>
