<svg width="24" height="24" viewBox="0 0 24 24" fill="none" xmlns="http://www.w3.org/2000/svg">
<g clip-path="url(#clip0_1303_1350)">
<path d="M9.58945 18.4026C9.13332 18.4026 8.68743 18.5378 8.30817 18.7913C7.92891 19.0447 7.63331 19.4049 7.45876 19.8263C7.2842 20.2477 7.23853 20.7114 7.32752 21.1588C7.41651 21.6061 7.63615 22.0171 7.95869 22.3396C8.28122 22.6621 8.69216 22.8818 9.13953 22.9708C9.5869 23.0598 10.0506 23.0141 10.472 22.8395C10.8934 22.665 11.2536 22.3694 11.507 21.9901C11.7604 21.6109 11.8957 21.165 11.8957 20.7088C11.895 20.0974 11.6517 19.5112 11.2194 19.0789C10.7871 18.6465 10.2009 18.4033 9.58945 18.4026ZM9.58945 22.3588C9.26311 22.3588 8.9441 22.2621 8.67276 22.0808C8.40142 21.8995 8.18994 21.6418 8.06505 21.3403C7.94017 21.0388 7.90749 20.707 7.97116 20.3869C8.03482 20.0669 8.19197 19.7729 8.42273 19.5421C8.65348 19.3114 8.94749 19.1542 9.26755 19.0905C9.58762 19.0269 9.91938 19.0596 10.2209 19.1844C10.5224 19.3093 10.7801 19.5208 10.9614 19.7921C11.1427 20.0635 11.2395 20.3825 11.2395 20.7088C11.2391 21.1464 11.0651 21.5659 10.7558 21.8753C10.4464 22.1848 10.027 22.3589 9.58945 22.3594V22.3588Z" fill="#4A4A4A"/>
<path d="M9.59089 19.6045C9.37239 19.6045 9.15881 19.6694 8.97716 19.7908C8.7955 19.9122 8.65393 20.0848 8.57035 20.2866C8.48677 20.4885 8.46493 20.7107 8.50759 20.925C8.55026 21.1392 8.65551 21.3361 8.81003 21.4906C8.96456 21.645 9.16143 21.7502 9.37574 21.7928C9.59004 21.8354 9.81217 21.8135 10.014 21.7298C10.2159 21.6462 10.3884 21.5045 10.5097 21.3229C10.6311 21.1412 10.6959 20.9276 10.6958 20.7091C10.6954 20.4162 10.5788 20.1354 10.3717 19.9284C10.1646 19.7213 9.88377 19.6048 9.59089 19.6045ZM9.59089 21.1577C9.5022 21.1577 9.41552 21.1314 9.34179 21.0821C9.26806 21.0328 9.21061 20.9627 9.17668 20.8808C9.14276 20.7988 9.13389 20.7087 9.15121 20.6217C9.16852 20.5347 9.21123 20.4548 9.27394 20.3921C9.33665 20.3294 9.41655 20.2867 9.50353 20.2694C9.59052 20.2521 9.68068 20.2609 9.76263 20.2948C9.84457 20.3288 9.91462 20.3862 9.96391 20.46C10.0132 20.5337 10.0395 20.6204 10.0396 20.7091C10.0395 20.828 9.99218 20.9421 9.90805 21.0262C9.82393 21.1103 9.70986 21.1576 9.59089 21.1577Z" fill="#4A4A4A"/>
<path d="M19.8141 18.4026C19.3579 18.4026 18.912 18.5378 18.5328 18.7913C18.1535 19.0447 17.8579 19.4049 17.6834 19.8263C17.5088 20.2477 17.4631 20.7114 17.5521 21.1588C17.6411 21.6061 17.8608 22.0171 18.1833 22.3396C18.5058 22.6621 18.9168 22.8818 19.3641 22.9708C19.8115 23.0598 20.2752 23.0141 20.6966 22.8395C21.118 22.665 21.4782 22.3694 21.7316 21.9901C21.9851 21.6109 22.1203 21.165 22.1203 20.7088C22.1195 20.0974 21.8763 19.5113 21.444 19.0789C21.0116 18.6466 20.4255 18.4034 19.8141 18.4026ZM19.8141 22.3588C19.4877 22.3588 19.1687 22.2621 18.8974 22.0808C18.626 21.8995 18.4145 21.6418 18.2897 21.3403C18.1648 21.0388 18.1321 20.707 18.1958 20.3869C18.2594 20.0669 18.4166 19.7729 18.6473 19.5421C18.8781 19.3114 19.1721 19.1542 19.4922 19.0905C19.8122 19.0269 20.144 19.0596 20.4455 19.1844C20.747 19.3093 21.0047 19.5208 21.186 19.7921C21.3673 20.0635 21.4641 20.3825 21.4641 20.7088C21.4637 21.1464 21.2897 21.5659 20.9804 21.8753C20.6711 22.1848 20.2516 22.3589 19.8141 22.3594V22.3588Z" fill="#4A4A4A"/>
<path d="M19.8139 19.6045C19.5954 19.6045 19.3818 19.6692 19.2001 19.7906C19.0184 19.912 18.8768 20.0845 18.7931 20.2864C18.7095 20.4883 18.6876 20.7104 18.7302 20.9247C18.7728 21.139 18.878 21.3359 19.0326 21.4904C19.1871 21.6449 19.3839 21.7502 19.5983 21.7928C19.8126 21.8354 20.0347 21.8135 20.2366 21.7299C20.4385 21.6462 20.611 21.5046 20.7324 21.3229C20.8538 21.1412 20.9185 20.9276 20.9185 20.7091C20.918 20.4162 20.8015 20.1356 20.5945 19.9285C20.3874 19.7215 20.1067 19.6049 19.8139 19.6045ZM19.8139 21.1577C19.7252 21.1578 19.6385 21.1315 19.5647 21.0823C19.4909 21.033 19.4334 20.963 19.3994 20.881C19.3655 20.7991 19.3565 20.7089 19.3738 20.6219C19.3911 20.5349 19.4338 20.455 19.4965 20.3922C19.5592 20.3295 19.6391 20.2867 19.7261 20.2694C19.813 20.2521 19.9032 20.2609 19.9852 20.2948C20.0672 20.3287 20.1372 20.3862 20.1865 20.4599C20.2359 20.5336 20.2622 20.6203 20.2622 20.7091C20.2619 20.8279 20.2146 20.9418 20.1306 21.0258C20.0466 21.1099 19.9328 21.1573 19.8139 21.1577Z" fill="#4A4A4A"/>
<path d="M23.0083 5.00625C23.0184 4.95846 23.0178 4.90901 23.0064 4.86151C22.9949 4.81401 22.9731 4.76966 22.9423 4.7317C22.9116 4.69373 22.8728 4.66311 22.8287 4.64207C22.7846 4.62102 22.7364 4.61009 22.6875 4.61006H6.98231L6.45 2.13225C6.37888 1.80795 6.19942 1.51756 5.94117 1.3089C5.68293 1.10025 5.36131 0.985788 5.02931 0.984375H1.3125C1.2694 0.98435 1.22672 0.992821 1.1869 1.0093C1.14708 1.02578 1.1109 1.04995 1.08043 1.08043C1.04995 1.1109 1.02578 1.14708 1.0093 1.1869C0.992821 1.22672 0.98435 1.2694 0.984375 1.3125V2.57044C0.98435 2.61353 0.992821 2.65621 1.0093 2.69603C1.02578 2.73586 1.04995 2.77204 1.08043 2.80251C1.1109 2.83299 1.14708 2.85715 1.1869 2.87364C1.22672 2.89012 1.2694 2.89859 1.3125 2.89856H4.65675L7.54519 16.3472C7.61623 16.6716 7.79567 16.962 8.05392 17.1708C8.31217 17.3795 8.63382 17.494 8.96588 17.4954H20.8547C20.9417 17.4954 21.0251 17.4608 21.0867 17.3993C21.1482 17.3378 21.1828 17.2543 21.1828 17.1673V15.9094C21.1828 15.8224 21.1482 15.7389 21.0867 15.6774C21.0252 15.6158 20.9417 15.5812 20.8547 15.5812H9.33862L8.95594 13.8H20.8547C20.9297 13.8 21.0025 13.7742 21.0609 13.727C21.1192 13.6799 21.1596 13.6141 21.1753 13.5407L23.0083 5.00625ZM21.8113 7.45388H18.7551L18.99 5.26556H22.2817L21.8113 7.45388ZM21.2004 10.2984H18.45L18.6849 8.11013H21.6713L21.2004 10.2984ZM15.0304 13.1437V10.9554H17.7188L17.4836 13.1437H15.0304ZM11.9209 13.1437L11.6859 10.9554H14.3741V13.1437H11.9209ZM7.73419 8.11087H10.7203L10.9553 10.2992H8.20406L7.73419 8.11087ZM11.3805 8.11087H14.3741V10.2992H11.6154L11.3805 8.11087ZM14.3741 7.45462H11.31L11.0749 5.26631H14.3749L14.3741 7.45462ZM15.0304 5.26631H18.3304L18.0938 7.45462H15.0304V5.26631ZM15.0304 10.2992V8.11087H18.0242L17.7891 10.2992H15.0304ZM10.4149 5.26631L10.65 7.45462H7.59375L7.12313 5.26631H10.4149ZM20.5266 16.2375V16.8392H8.96588C8.78379 16.8384 8.6074 16.7756 8.46578 16.6612C8.32416 16.5467 8.22577 16.3874 8.18681 16.2096L5.24306 2.50163C5.22732 2.42822 5.18688 2.36244 5.1285 2.31525C5.07012 2.26806 4.99732 2.24232 4.92225 2.24231H1.64063V1.64063H5.02931C5.21136 1.64142 5.38771 1.70419 5.52932 1.8186C5.67093 1.93302 5.76935 2.09224 5.80838 2.27006L8.75213 15.9782C8.76786 16.0517 8.80837 16.1176 8.86687 16.1648C8.92538 16.212 8.99832 16.2377 9.0735 16.2375H20.5266ZM8.34506 10.9554H11.025L11.2609 13.1437H8.81512L8.34506 10.9554ZM20.5894 13.1437H18.1436L18.3787 10.9554H21.06L20.5894 13.1437Z" fill="#4A4A4A"/>
</g>
<defs>
<clipPath id="clip0_1303_1350">
<rect width="24" height="24" fill="white"/>
</clipPath>
</defs>
</svg>
