<svg width="30" height="30" viewBox="0 0 30 30" fill="none" xmlns="http://www.w3.org/2000/svg">
<path d="M14.0569 25.277C14.0569 26.2271 13.2924 27 12.3527 27C11.4129 27 10.6484 26.2271 10.6484 25.277C10.6484 24.327 11.4129 23.5541 12.3527 23.5541C13.2924 23.5541 14.0569 24.3268 14.0569 25.277ZM22.9237 23.554C21.9839 23.554 21.2194 24.3269 21.2194 25.277C21.2194 26.2271 21.9839 27 22.9237 27C23.8634 27 24.6279 26.227 24.6279 25.277C24.6279 24.3269 23.8634 23.554 22.9237 23.554ZM26.8587 8.66848C26.743 8.52786 26.5715 8.44654 26.3906 8.4463L8.21502 8.42656L7.00804 3.46942C6.94079 3.19379 6.69628 3 6.41561 3H3.61016C3.2731 3 3 3.2761 3 3.61686C3 3.95763 3.2731 4.23373 3.61016 4.23373H5.93726L9.41142 18.5026L9.93283 20.9873C10.144 21.9946 11.0367 22.7257 12.0553 22.7257H23.8088C24.1459 22.7257 24.419 22.4496 24.419 22.1089C24.419 21.7681 24.1459 21.492 23.8088 21.492H12.0553C11.6096 21.492 11.219 21.1721 11.1268 20.7313L10.7597 18.9819H24.7066C25.0012 18.9819 25.2537 18.769 25.3068 18.476L26.99 9.17402C27.0226 8.99418 26.9745 8.80887 26.8587 8.66848Z" fill="#707070"/>
</svg>
