<svg width="24" height="24" viewBox="0 0 24 24" fill="none" xmlns="http://www.w3.org/2000/svg">
<path d="M4.5 4.5H22.5L20.25 14.25H6.75M20.25 17.25H7.5L3.75 1.5H1.5" stroke="#4A4A4A" stroke-width="2" stroke-linecap="round" stroke-linejoin="round"/>
<path d="M18.75 21.75C19.5784 21.75 20.25 21.0784 20.25 20.25C20.25 19.4216 19.5784 18.75 18.75 18.75C17.9216 18.75 17.25 19.4216 17.25 20.25C17.25 21.0784 17.9216 21.75 18.75 21.75Z" stroke="#4A4A4A" stroke-width="2" stroke-linecap="round" stroke-linejoin="round"/>
<path d="M9 21.75C9.82843 21.75 10.5 21.0784 10.5 20.25C10.5 19.4216 9.82843 18.75 9 18.75C8.17157 18.75 7.5 19.4216 7.5 20.25C7.5 21.0784 8.17157 21.75 9 21.75Z" stroke="#4A4A4A" stroke-width="2" stroke-linecap="round" stroke-linejoin="round"/>
</svg>
