<svg width="32" height="32" viewBox="0 0 32 32" fill="none" xmlns="http://www.w3.org/2000/svg">
<path d="M12.2815 22.4346C10.2992 22.4346 8.68652 23.9072 8.68652 25.7174C8.68652 27.5275 10.2992 29.0001 12.2815 29.0001C14.2638 29.0001 15.8765 27.5275 15.8765 25.7174C15.8765 23.9072 14.2638 22.4346 12.2815 22.4346ZM12.2815 27.0304C11.4885 27.0304 10.8435 26.4415 10.8435 25.7174C10.8435 24.9932 11.4885 24.4043 12.2815 24.4043C13.0742 24.4043 13.7195 24.9932 13.7195 25.7174C13.7195 26.4415 13.0746 27.0304 12.2815 27.0304Z" fill="#03C03C"/>
<path d="M22.9231 22.4346C20.9408 22.4346 19.3281 23.9072 19.3281 25.7174C19.3281 27.5275 20.9408 29.0001 22.9231 29.0001C24.9054 29.0001 26.5181 27.5275 26.5181 25.7174C26.5181 23.9072 24.9054 22.4346 22.9231 22.4346ZM22.9231 27.0304C22.1301 27.0304 21.4851 26.4415 21.4851 25.7174C21.4851 24.9932 22.1301 24.4043 22.9231 24.4043C23.7162 24.4043 24.3611 24.9932 24.3611 25.7174C24.3611 26.4415 23.7162 27.0304 22.9231 27.0304Z" fill="#03C03C"/>
<path d="M29.1596 9.41232C28.9547 9.17726 28.6441 9.0404 28.3155 9.0404H9.43111L8.45075 4.51607C8.36483 4.11983 8.0226 3.81159 7.58723 3.73872L3.27325 3.01651C2.68622 2.91769 2.12539 3.2726 2.01789 3.80768C1.9104 4.34276 2.29828 4.85585 2.88431 4.95401L6.47713 5.55541L9.64215 20.1634C9.74208 20.6246 10.1853 20.9572 10.7001 20.9572H25.799C26.3013 20.9572 26.7366 20.6411 26.8499 20.1936L29.3664 10.2468C29.4404 9.95431 29.3642 9.64703 29.1596 9.41232Z" fill="#03C03C"/>
</svg>
