<svg width="30" height="30" viewBox="0 0 30 30" fill="none" xmlns="http://www.w3.org/2000/svg">
<g clip-path="url(#clip0_149_369)">
<path d="M13.8211 27.7067C13.8211 28.8814 12.8655 29.837 11.6909 29.837C10.5162 29.837 9.56055 28.8814 9.56055 27.7067C9.56055 26.5321 10.5162 25.5764 11.6909 25.5764C12.8655 25.5764 13.8211 26.5319 13.8211 27.7067ZM24.9046 25.5764C23.7299 25.5764 22.7743 26.532 22.7743 27.7067C22.7743 28.8814 23.7299 29.837 24.9046 29.837C26.0793 29.837 27.0349 28.8813 27.0349 27.7067C27.0349 26.532 26.0793 25.5764 24.9046 25.5764ZM29.8234 7.17168C29.6788 6.9978 29.4644 6.89726 29.2383 6.89697L6.51878 6.87256L5.01006 0.743479C4.92599 0.402694 4.62035 0.163086 4.26952 0.163086H0.762697C0.341373 0.163086 0 0.504459 0 0.925783C0 1.34711 0.341373 1.68848 0.762697 1.68848H3.67157L8.01428 19.3307L8.66604 22.4029C8.93006 23.6483 10.0459 24.5522 11.3191 24.5522H26.0111C26.4324 24.5522 26.7738 24.2109 26.7738 23.7895C26.7738 23.3682 26.4324 23.0268 26.0111 23.0268H11.3191C10.762 23.0268 10.2737 22.6313 10.1584 22.0863L9.69962 19.9234H27.1333C27.5015 19.9234 27.8171 19.6601 27.8835 19.2978L29.9875 7.79673C30.0283 7.57437 29.9682 7.34525 29.8234 7.17168Z" fill="#707070"/>
</g>
<defs>
<clipPath id="clip0_149_369">
<rect width="30" height="30" fill="white"/>
</clipPath>
</defs>
</svg>
