<svg width="20" height="21" viewBox="0 0 20 21" fill="none" xmlns="http://www.w3.org/2000/svg">
<path d="M5.9375 14.3867C5.75208 14.3867 5.57082 14.4417 5.41665 14.5447C5.26248 14.6477 5.14232 14.7941 5.07136 14.9655C5.00041 15.1368 4.98184 15.3253 5.01801 15.5071C5.05419 15.689 5.14348 15.856 5.27459 15.9871C5.4057 16.1182 5.57275 16.2075 5.7546 16.2437C5.93646 16.2799 6.12496 16.2613 6.29627 16.1904C6.46757 16.1194 6.61399 15.9992 6.717 15.8451C6.82002 15.6909 6.875 15.5096 6.875 15.3242C6.87472 15.0757 6.77586 14.8374 6.6001 14.6616C6.42435 14.4859 6.18605 14.387 5.9375 14.3867ZM5.9375 15.6367C5.87569 15.6367 5.81528 15.6184 5.76388 15.5841C5.71249 15.5497 5.67244 15.5009 5.64879 15.4438C5.62514 15.3867 5.61895 15.3239 5.63101 15.2633C5.64306 15.2026 5.67283 15.147 5.71653 15.1032C5.76023 15.0595 5.81592 15.0298 5.87653 15.0177C5.93715 15.0057 5.99999 15.0119 6.05709 15.0355C6.11419 15.0592 6.163 15.0992 6.19734 15.1506C6.23167 15.202 6.25 15.2624 6.25 15.3242C6.24991 15.4071 6.21695 15.4865 6.15837 15.5451C6.09978 15.6037 6.02035 15.6366 5.9375 15.6367V15.6367Z" fill="#4A4A4A"/>
<path d="M19.0625 11.8867H18.4375V5.94922C18.4376 5.90818 18.4296 5.86753 18.4139 5.8296C18.3982 5.79168 18.3752 5.75723 18.3462 5.72824C18.3171 5.69924 18.2826 5.67628 18.2447 5.66068C18.2067 5.64507 18.166 5.63712 18.125 5.6373V5.63672H10.3125V5.01172H11.875C11.9579 5.01172 12.0374 4.97879 12.096 4.92019C12.1546 4.86158 12.1875 4.7821 12.1875 4.69922V3.76172C12.1871 3.43031 12.0553 3.11259 11.821 2.87825C11.5866 2.64391 11.2689 2.51209 10.9375 2.51172H8.75C8.41859 2.51209 8.10087 2.64391 7.86653 2.87825C7.63219 3.11259 7.50038 3.43031 7.5 3.76172V6.08395C5.35651 7.25683 3.4677 8.84431 1.94347 10.754L1.94362 10.7541C1.89915 10.8094 1.87494 10.8783 1.875 10.9492V11.8867H0.9375C0.85462 11.8867 0.775135 11.9196 0.71653 11.9782C0.657925 12.0369 0.625001 12.1163 0.625 12.1992V17.1992C0.625001 17.2821 0.657925 17.3616 0.71653 17.4202C0.775135 17.4788 0.85462 17.5117 0.9375 17.5117H19.0625C19.1454 17.5117 19.2249 17.4788 19.2835 17.4202C19.3421 17.3616 19.375 17.2821 19.375 17.1992V12.1992C19.375 12.1163 19.3421 12.0369 19.2835 11.9782C19.2249 11.9196 19.1454 11.8867 19.0625 11.8867V11.8867ZM12.1875 11.8867V11.0594C13.731 9.16001 15.6449 7.59449 17.8125 6.45806V11.8867H12.1875ZM13.2196 6.26172H16.8725C16.5297 6.45908 16.1932 6.66741 15.8628 6.88672H12.2821L13.2196 6.26172ZM10.9375 3.13672C11.1032 3.13691 11.2621 3.20282 11.3792 3.31999C11.4964 3.43716 11.5623 3.59602 11.5625 3.76172V4.38672H10.3125V3.76172C10.3127 3.59602 10.3786 3.43716 10.4958 3.31999C10.6129 3.20282 10.7718 3.13691 10.9375 3.13672ZM8.125 3.76172C8.12519 3.59602 8.1911 3.43716 8.30827 3.31999C8.42544 3.20282 8.5843 3.13691 8.75 3.13672H9.85527C9.74512 3.32657 9.68723 3.54222 9.6875 3.76172V6.57422H8.125V3.76172ZM7.5 6.80059V6.88672C7.5 6.9696 7.53293 7.04908 7.59153 7.10769C7.65014 7.16629 7.72962 7.19922 7.8125 7.19922H10C10.0829 7.19922 10.1624 7.16629 10.221 7.10769C10.2796 7.04908 10.3125 6.9696 10.3125 6.88672V6.26172H12.0929L11.0767 6.93921C11.0208 6.97641 10.9785 7.03058 10.9558 7.09371C10.9332 7.15684 10.9315 7.22559 10.9509 7.28978C10.9703 7.35398 11.0099 7.41022 11.0638 7.45018C11.1176 7.49015 11.1829 7.51173 11.25 7.51172H14.9795C13.7725 8.41772 12.68 9.46708 11.7261 10.6367H2.85316C4.17255 9.10293 5.74407 7.80559 7.5 6.80059V6.80059ZM2.5 11.2617H11.5625V11.8867H2.5V11.2617ZM10.9375 13.7617H11.5625V16.8867H10.9375V13.7617ZM1.25 12.5117H10.3125V13.1367H1.25V12.5117ZM1.25 13.7617H10.3125V16.8867H1.25V13.7617ZM10.9375 13.1367V12.5117H18.75V13.1367H10.9375ZM18.75 16.8867H12.1875V13.7617H18.75V16.8867Z" fill="#4A4A4A"/>
<path d="M6.5625 8.13672H7.1875V8.76172H6.5625V8.13672Z" fill="#4A4A4A"/>
<path d="M7.8125 8.13672H8.4375V8.76172H7.8125V8.13672Z" fill="#4A4A4A"/>
<path d="M9.0625 8.13672H9.6875V8.76172H9.0625V8.13672Z" fill="#4A4A4A"/>
<path d="M10.3125 8.13672H10.9375V8.76172H10.3125V8.13672Z" fill="#4A4A4A"/>
<path d="M11.5625 8.13672H12.1875V8.76172H11.5625V8.13672Z" fill="#4A4A4A"/>
<path d="M5 9.38672H5.625V10.0117H5V9.38672Z" fill="#4A4A4A"/>
<path d="M6.25 9.38672H6.875V10.0117H6.25V9.38672Z" fill="#4A4A4A"/>
<path d="M7.5 9.38672H8.125V10.0117H7.5V9.38672Z" fill="#4A4A4A"/>
<path d="M8.75 9.38672H9.375V10.0117H8.75V9.38672Z" fill="#4A4A4A"/>
<path d="M10 9.38672H10.625V10.0117H10V9.38672Z" fill="#4A4A4A"/>
</svg>
