<svg width="24" height="24" viewBox="0 0 24 24" fill="none" xmlns="http://www.w3.org/2000/svg">
<path d="M5.70611 2.61938H4.7934V17.2533H5.70611V2.61938Z" fill="#4A4A4A"/>
<path d="M22 0H5.24964C3.45782 0 2 1.17502 2 2.61923V21.3808C2 22.825 3.45776 24 5.24964 24H22V19.8798H21.0873V23.2643H5.24958C3.96105 23.2643 2.91266 22.4194 2.91266 21.3807C2.91266 20.3421 3.96099 19.4971 5.24958 19.4971H21.9999V0H22ZM21.0872 18.7615H5.70599V18.0037H4.79328V18.788C4.05986 18.8715 3.40408 19.1524 2.91272 19.5625V2.61923C2.91272 1.70653 3.72243 0.943594 4.79328 0.772031V1.86877H5.70599V0.735656H21.0873V18.7615H21.0872Z" fill="#4A4A4A"/>
<path d="M5.2496 20.6229V19.8872C4.22784 19.8872 3.39661 20.5572 3.39661 21.3807C3.39661 22.2042 4.22784 22.8743 5.2496 22.8743V22.1385C4.73113 22.1385 4.30938 21.7985 4.30938 21.3807C4.30938 20.9628 4.73119 20.6229 5.2496 20.6229Z" fill="#4A4A4A"/>
<path d="M6.63714 19.8799H5.72443V22.8819H6.63714V19.8799Z" fill="#4A4A4A"/>
<path d="M20.6122 19.8872H7.11169V20.6229H20.6122V19.8872Z" fill="#4A4A4A"/>
<path d="M20.6122 21.0127H7.11169V21.7484H20.6122V21.0127Z" fill="#4A4A4A"/>
<path d="M20.6122 22.1387H7.11169V22.8743H20.6122V22.1387Z" fill="#4A4A4A"/>
<path d="M15.9572 16.8857H10.8362V17.6214H15.9572V16.8857Z" fill="#4A4A4A"/>
<path d="M18.7411 1.87622H8.052V8.61563H18.7411V1.87622ZM17.8284 7.87992H8.96478V2.61188H17.8284V7.87992H17.8284Z" fill="#4A4A4A"/>
<path d="M16.8883 3.37695H9.90527V4.11261H16.8883V3.37695Z" fill="#4A4A4A"/>
<path d="M15.0263 4.87793H9.90527V5.61359H15.0263V4.87793Z" fill="#4A4A4A"/>
<path d="M14.0951 6.37866H9.90527V7.11432H14.0951V6.37866Z" fill="#4A4A4A"/>
</svg>
