<svg width="24" height="24" viewBox="0 0 24 24" fill="none" xmlns="http://www.w3.org/2000/svg">
<path d="M5.67188 18.375V0C4.12079 0 2.85938 1.26141 2.85938 2.8125V19.0961C3.44879 18.6498 4.17426 18.375 4.96875 18.375H5.67188Z" fill="#707070"/>
<path d="M10.5938 4.92188H17.625V7.78125H10.5938V4.92188Z" fill="#707070"/>
<path d="M7.07812 18.375H21.1406V0H7.07812V18.375ZM17.625 14.8125H10.5938V13.4062H17.625V14.8125ZM9.1875 3.51562H19.0312V9.1875H9.1875V3.51562ZM9.1875 10.5938H19.0312V12H9.1875V10.5938Z" fill="#707070"/>
<path d="M4.96875 24H21.1406V19.7812H4.96875C3.80383 19.7812 2.85938 20.7257 2.85938 21.8906C2.85938 23.0555 3.80383 24 4.96875 24Z" fill="#707070"/>
</svg>
