<svg width="32" height="32" viewBox="0 0 32 32" fill="none" xmlns="http://www.w3.org/2000/svg">
<path d="M27.3335 11H21.3335V6.99996C21.3335 5.16196 19.8382 3.66663 18.0002 3.66663H4.66683C2.82883 3.66663 1.3335 5.16196 1.3335 6.99996V15C1.3335 16.838 2.82883 18.3333 4.66683 18.3333H6.00016V22.3333C6.00016 22.603 6.1625 22.846 6.4115 22.9493C6.49416 22.9833 6.58083 23 6.66683 23C6.8405 23 7.0105 22.9323 7.13816 22.8046L11.6095 18.3333H12.6668V21C12.6668 22.838 14.1622 24.3333 16.0002 24.3333H21.0575L24.8622 28.138C24.9898 28.2656 25.1598 28.3333 25.3335 28.3333C25.4195 28.3333 25.5062 28.3166 25.5888 28.2826C25.8378 28.1793 26.0002 27.9363 26.0002 27.6666V24.3333H27.3335C29.1715 24.3333 30.6668 22.838 30.6668 21V14.3333C30.6668 12.4953 29.1715 11 27.3335 11ZM11.3335 17C11.1568 17 10.9872 17.0703 10.8622 17.1953L7.3335 20.724V17.6666C7.3335 17.2986 7.03483 17 6.66683 17H4.66683C3.56383 17 2.66683 16.103 2.66683 15V6.99996C2.66683 5.89696 3.56383 4.99996 4.66683 4.99996H18.0002C19.1032 4.99996 20.0002 5.89696 20.0002 6.99996V15C20.0002 16.103 19.1032 17 18.0002 17H11.3335ZM29.3335 21C29.3335 22.103 28.4365 23 27.3335 23H25.3335C24.9655 23 24.6668 23.2986 24.6668 23.6666V26.0573L21.8048 23.1953C21.6798 23.0703 21.5102 23 21.3335 23H16.0002C14.8972 23 14.0002 22.103 14.0002 21V18.3333H18.0002C19.8382 18.3333 21.3335 16.838 21.3335 15V12.3333H27.3335C28.4365 12.3333 29.3335 13.2303 29.3335 14.3333V21ZM26.6668 15C26.6668 15.368 26.3682 15.6666 26.0002 15.6666H23.3335C22.9655 15.6666 22.6668 15.368 22.6668 15C22.6668 14.632 22.9655 14.3333 23.3335 14.3333H26.0002C26.3682 14.3333 26.6668 14.632 26.6668 15ZM26.6668 17.6666C26.6668 18.0346 26.3682 18.3333 26.0002 18.3333H22.6668C22.2988 18.3333 22.0002 18.0346 22.0002 17.6666C22.0002 17.2986 22.2988 17 22.6668 17H26.0002C26.3682 17 26.6668 17.2986 26.6668 17.6666ZM26.6668 20.3333C26.6668 20.7013 26.3682 21 26.0002 21H17.3335C16.9655 21 16.6668 20.7013 16.6668 20.3333C16.6668 19.9653 16.9655 19.6666 17.3335 19.6666H26.0002C26.3682 19.6666 26.6668 19.9653 26.6668 20.3333ZM17.3335 8.33329C17.3335 8.70129 17.0348 8.99996 16.6668 8.99996H11.3335H6.00016C5.63216 8.99996 5.3335 8.70129 5.3335 8.33329C5.3335 7.96529 5.63216 7.66663 6.00016 7.66663H16.6668C17.0348 7.66663 17.3335 7.96529 17.3335 8.33329ZM15 11C15 11.368 14.6467 11.6666 14.2787 11.6666H6.00016C5.63216 11.6666 5.3335 11.368 5.3335 11C5.3335 10.632 5.63216 10.3333 6.00016 10.3333H14.2787C14.6467 10.3333 15 10.632 15 11ZM13.265 13.6666C13.265 14.0346 12.868 14.3333 12.5 14.3333H6.00016C5.63216 14.3333 5.3335 14.0346 5.3335 13.6666C5.3335 13.2986 5.63216 13 6.00016 13H12.5C12.868 13 13.265 13.2986 13.265 13.6666Z" fill="#4A90E2"/>
<path d="M5 28L26 4" stroke="#4A90E2" stroke-linecap="round"/>
</svg>
