<svg width="18" height="32" viewBox="0 0 18 32" fill="none" xmlns="http://www.w3.org/2000/svg">
<path d="M17.7598 10.2831L16.9081 2.32227C16.7663 0.998344 15.6555 0 14.324 0H3.45042C2.11897 0 1.0081 0.998344 0.866435 2.32227L0.0147045 10.2831C-0.0636572 11.0152 0.173728 11.7491 0.665859 12.2967C1.15799 12.8443 1.86248 13.1583 2.59869 13.1583H4.85026V29.5332C4.85026 29.7367 4.96836 29.9217 5.15297 30.0075L9.34002 31.9515C9.41009 31.984 9.48524 32 9.56012 32C9.66385 32 9.76697 31.9692 9.85537 31.9087L12.6966 29.9647C12.839 29.8672 12.9242 29.7058 12.9242 29.5331V13.1583H15.1757C15.912 13.1583 16.6165 12.8442 17.1086 12.2966C17.6008 11.749 17.8381 11.0151 17.7598 10.2831ZM9.23579 9.51606C9.23579 9.70827 9.07942 9.86465 8.88721 9.86465C8.695 9.86465 8.53863 9.70827 8.53863 9.51606C8.53863 9.32385 8.695 9.16748 8.88721 9.16748C9.07942 9.16748 9.23579 9.32385 9.23579 9.51606ZM5.89594 13.1583H9.03724V30.6579L5.89594 29.1994V13.1583ZM10.083 23.7754H11.8785V25.8699H10.083V23.7754ZM10.083 22.7297V18.093H11.8785V22.7297H10.083ZM10.083 17.0473V15.4013H11.8785V17.0473H10.083ZM10.083 30.4858V26.9158H11.8785V29.2573L10.083 30.4858ZM11.8785 14.3556H10.083V13.1583H11.8785V14.3556ZM16.3309 11.5977C16.0324 11.9297 15.6222 12.1126 15.1758 12.1126H2.59862C2.15222 12.1126 1.74201 11.9297 1.44362 11.5977C1.14516 11.2656 1.00698 10.8382 1.05446 10.3944L1.90619 2.43353C1.9909 1.64239 2.65474 1.04575 3.45042 1.04575H6.22891V2.9311L4.91433 4.24561C4.74074 4.16788 4.54901 4.12368 4.34683 4.12368C3.578 4.12368 2.9525 4.74918 2.9525 5.51801C2.9525 6.28685 3.578 6.91235 4.34683 6.91235C5.11567 6.91235 5.74117 6.28685 5.74117 5.51801C5.74117 5.33452 5.70464 5.1596 5.63994 4.99897L7.12149 3.51742C7.21958 3.41933 7.27466 3.28638 7.27466 3.14771V1.04575H8.36433V8.22442C7.85401 8.43176 7.49287 8.93218 7.49287 9.51606C7.49287 10.2849 8.11837 10.9104 8.88721 10.9104C9.65605 10.9104 10.2815 10.2849 10.2815 9.51606C10.2815 8.93218 9.92041 8.43176 9.41009 8.22442V1.04575H10.4998V4.98475C10.4998 5.12342 10.5548 5.25644 10.6529 5.35446L12.1344 6.83594C12.0697 6.9965 12.0332 7.17142 12.0332 7.35484C12.0332 8.12368 12.6587 8.74918 13.4275 8.74918C14.1964 8.74918 14.8219 8.12368 14.8219 7.35484C14.8219 6.586 14.1964 5.96051 13.4275 5.96051C13.2253 5.96051 13.0335 6.00478 12.8599 6.08251L11.5455 4.76821V1.04575H14.324C15.1197 1.04575 15.7835 1.64239 15.8682 2.43353L16.7199 10.3944C16.7674 10.8382 16.6293 11.2656 16.3309 11.5977ZM4.69542 5.51801C4.69542 5.71022 4.53904 5.8666 4.34683 5.8666C4.15463 5.8666 3.99825 5.71022 3.99825 5.51801C3.99825 5.3258 4.15463 5.16943 4.34683 5.16943C4.53904 5.16943 4.69542 5.32587 4.69542 5.51801ZM13.4276 7.00633C13.6198 7.00633 13.7762 7.1627 13.7762 7.35491C13.7762 7.54712 13.6198 7.70349 13.4276 7.70349C13.2354 7.70349 13.079 7.54712 13.079 7.35491C13.079 7.1627 13.2354 7.00633 13.4276 7.00633Z" fill="#4A90E2"/>
</svg>
