<svg width="24" height="24" viewBox="0 0 24 24" fill="none" xmlns="http://www.w3.org/2000/svg">
<path d="M21.9862 6.26268C21.9854 5.56604 21.526 5 20.9617 5C20.9612 5 20.9608 5 20.9604 5L3.02305 5.03042C2.74942 5.03086 2.49227 5.16282 2.29902 5.40196C2.10582 5.64115 1.99965 5.95893 2 6.29658L2.01387 18.7373C2.01422 19.075 2.12113 19.3924 2.31488 19.6309C2.50828 19.869 2.76512 20 3.03828 20C3.03875 20 3.03926 20 3.03965 20L20.977 19.9696C21.5417 19.9686 22.0007 19.4007 22 18.7034L21.9862 6.26268ZM19.8364 6.26635L12.0008 12.9895L4.15001 6.29296L19.8364 6.26635ZM15.3143 14.2584L19.9616 18.7069L4.0252 18.7339L8.70083 14.2584C8.92435 14.0444 8.96505 13.6473 8.79169 13.3713C8.61829 13.0954 8.29658 13.0452 8.07298 13.2592L3.03754 18.0791L3.02504 6.87047L11.7104 14.2789C11.798 14.3537 11.8998 14.391 12.0016 14.391C12.1038 14.391 12.2061 14.3533 12.294 14.2779L20.9624 6.8402L20.9755 18.0773L15.9421 13.2592C15.7187 13.0453 15.3968 13.0955 15.2235 13.3714C15.0501 13.6472 15.0907 14.0444 15.3143 14.2584Z" fill="#4A4A4A"/>
</svg>
