<svg width="16" height="16" viewBox="0 0 16 16" fill="none" xmlns="http://www.w3.org/2000/svg">
<path d="M13.2194 4.30307C12.9101 4.30307 12.6594 4.55465 12.6594 4.86505V14.2814C12.6594 14.6114 12.3924 14.8826 12.0603 14.8826H3.50094C3.17211 14.8826 2.90188 14.6147 2.90188 14.2814V4.86178C2.90188 4.55139 2.65119 4.2998 2.34515 4.2998C2.03585 4.2998 1.78516 4.55139 1.78516 4.86178V14.2782C1.78516 15.2257 2.55352 16 3.50094 16H12.0603C13.0045 16 13.7761 15.2289 13.7761 14.2782V4.86178C13.7761 4.55139 13.5254 4.30307 13.2194 4.30307Z" fill="#FF0000"/>
<path d="M14.7013 2.47989H11.3056V1.83296C11.3056 0.823361 10.4851 0 9.4791 0H6.08659C5.07731 0 4.26011 0.823361 4.26011 1.83296V2.47989H0.864352C0.555055 2.47989 0.307617 2.73147 0.307617 3.04186C0.307617 3.35226 0.558311 3.60057 0.864352 3.60057H14.7013C15.0106 3.60057 15.2613 3.34899 15.2613 3.04186C15.2581 2.7282 15.0106 2.47989 14.7013 2.47989ZM5.37684 1.83296C5.37684 1.44088 5.6959 1.12069 6.08659 1.12069H9.4791C9.86979 1.12069 10.1889 1.44088 10.1889 1.83296V2.47989H5.37684V1.83296Z" fill="#FF0000"/>
<path d="M8.34296 12.9583V5.91076C8.34296 5.60037 8.09227 5.35205 7.78623 5.35205C7.48019 5.35205 7.22949 5.60363 7.22949 5.91076V12.9583C7.22949 13.2687 7.48019 13.517 7.78623 13.517C8.09227 13.517 8.34296 13.2687 8.34296 12.9583Z" fill="#FF0000"/>
<path d="M5.87161 12.9583V5.91076C5.87161 5.60037 5.62091 5.35205 5.31162 5.35205C5.00232 5.35205 4.75488 5.60363 4.75488 5.91076V12.9583C4.75488 13.2687 5.00558 13.517 5.31162 13.517C5.62091 13.517 5.87161 13.2687 5.87161 12.9583Z" fill="#FF0000"/>
<path d="M10.8107 12.9583V5.91076C10.8107 5.60037 10.56 5.35205 10.254 5.35205C9.94796 5.35205 9.69727 5.60363 9.69727 5.91076V12.9583C9.69727 13.2687 9.94796 13.517 10.254 13.517C10.56 13.517 10.8107 13.2687 10.8107 12.9583Z" fill="#FF0000"/>
</svg>
