<svg width="32" height="32" viewBox="0 0 32 32" fill="none" xmlns="http://www.w3.org/2000/svg">
<path d="M28.9275 14.2L26.9745 8.342C26.9413 8.2424 26.8776 8.15576 26.7925 8.09438C26.7073 8.03299 26.605 7.99997 26.5 8H21.5V7.5C21.5 7.36739 21.4473 7.24021 21.3536 7.14645C21.2598 7.05268 21.1326 7 21 7H19C18.8674 7 18.7402 7.05268 18.6464 7.14645C18.5527 7.24021 18.5 7.36739 18.5 7.5V16.278C18.258 16.1375 17.9889 16.0501 17.7105 16.0215C17.8852 15.7352 17.9842 15.4093 17.9983 15.0743C18.0124 14.7392 17.9412 14.4061 17.7912 14.1061C17.6412 13.8062 17.4175 13.5493 17.141 13.3596C16.8645 13.1699 16.5443 13.0535 16.2105 13.0215C16.3943 12.7192 16.4941 12.3732 16.4996 12.0194C16.5052 11.6656 16.4162 11.3168 16.2418 11.0088C16.0675 10.7009 15.8142 10.4451 15.508 10.2677C15.2018 10.0904 14.8538 9.99797 14.5 10H6C5.64616 9.99797 5.29819 10.0904 4.992 10.2677C4.6858 10.4451 4.43248 10.7009 4.25816 11.0088C4.08384 11.3168 3.99484 11.6656 4.00035 12.0194C4.00586 12.3732 4.10568 12.7192 4.2895 13.0215C3.9557 13.0535 3.63551 13.1699 3.35901 13.3596C3.0825 13.5493 2.85876 13.8062 2.7088 14.1061C2.55883 14.4061 2.48756 14.7392 2.50167 15.0743C2.51579 15.4093 2.61483 15.7352 2.7895 16.0215C2.42157 16.0576 2.07106 16.1958 1.77752 16.4206C1.48397 16.6453 1.25908 16.9476 1.12821 17.2934C0.997339 17.6391 0.965707 18.0146 1.03688 18.3774C1.10805 18.7401 1.2792 19.0758 1.531 19.3465C1.51251 19.3957 1.50205 19.4475 1.5 19.5V21H1C0.867392 21 0.740215 21.0527 0.646447 21.1464C0.552678 21.2402 0.5 21.3674 0.5 21.5V23.5C0.5 23.6326 0.552678 23.7598 0.646447 23.8536C0.740215 23.9473 0.867392 24 1 24H4.212C4.38573 24.4019 4.66249 24.7509 5.01432 25.0115C5.36614 25.2722 5.78054 25.4354 6.21564 25.4845C6.65073 25.5337 7.0911 25.4671 7.49221 25.2915C7.89332 25.1159 8.24097 24.8375 8.5 24.4845C8.75903 24.8375 9.10668 25.1159 9.50779 25.2915C9.9089 25.4671 10.3493 25.5337 10.7844 25.4845C11.2195 25.4354 11.6339 25.2722 11.9857 25.0115C12.3375 24.7509 12.6143 24.4019 12.788 24H24.212C24.4058 24.4457 24.7256 24.8251 25.1321 25.0916C25.5385 25.358 26.014 25.5 26.5 25.5C26.986 25.5 27.4615 25.358 27.8679 25.0916C28.2744 24.8251 28.5942 24.4457 28.788 24H31C31.1326 24 31.2598 23.9473 31.3536 23.8536C31.4473 23.7598 31.5 23.6326 31.5 23.5V16.5C31.5 16.425 31.4832 16.351 31.4507 16.2834C31.4183 16.2158 31.371 16.1564 31.3125 16.1095L28.9275 14.2ZM27.806 14H23.5V11H26.8065L27.806 14ZM26.1395 9L26.473 10H23C22.8674 10 22.7402 10.0527 22.6464 10.1464C22.5527 10.2402 22.5 10.3674 22.5 10.5V14.5C22.5 14.6326 22.5527 14.7598 22.6464 14.8536C22.7402 14.9473 22.8674 15 23 15H28.3245L29.5745 16H29C28.8674 16 28.7402 16.0527 28.6464 16.1464C28.5527 16.2402 28.5 16.3674 28.5 16.5V18.5C28.5 18.6326 28.5527 18.7598 28.6464 18.8536C28.7402 18.9473 28.8674 19 29 19H30.5V21H28V21.013C27.5707 20.6805 27.043 20.5001 26.5 20.5001C25.957 20.5001 25.4293 20.6805 25 21.013V21H21.5V9H26.1395ZM30.5 17V18H29.5V17H30.5ZM19.5 8H20.5V21H19.5V8ZM18.5 18C18.5 18.2652 18.3946 18.5196 18.2071 18.7071C18.0196 18.8946 17.7652 19 17.5 19H10.722C10.9039 18.6982 11 18.3524 11 18C11 17.6476 10.9039 17.3018 10.722 17H17.5C17.7652 17 18.0196 17.1054 18.2071 17.2929C18.3946 17.4804 18.5 17.7348 18.5 18ZM8.5 15C8.5 15.1978 8.44135 15.3911 8.33147 15.5556C8.22159 15.72 8.06541 15.8482 7.88268 15.9239C7.69996 15.9996 7.49889 16.0194 7.30491 15.9808C7.11093 15.9422 6.93275 15.847 6.79289 15.7071C6.65304 15.5673 6.5578 15.3891 6.51921 15.1951C6.48063 15.0011 6.50043 14.8 6.57612 14.6173C6.65181 14.4346 6.77998 14.2784 6.94443 14.1685C7.10888 14.0586 7.30222 14 7.5 14C7.76522 14 8.01957 14.1054 8.20711 14.2929C8.39464 14.4804 8.5 14.7348 8.5 15ZM5 18C5 17.8022 5.05865 17.6089 5.16853 17.4444C5.27841 17.28 5.43459 17.1518 5.61732 17.0761C5.80004 17.0004 6.00111 16.9806 6.19509 17.0192C6.38907 17.0578 6.56725 17.153 6.70711 17.2929C6.84696 17.4327 6.9422 17.6109 6.98079 17.8049C7.01937 17.9989 6.99957 18.2 6.92388 18.3827C6.84819 18.5654 6.72002 18.7216 6.55557 18.8315C6.39112 18.9414 6.19778 19 6 19C5.73478 19 5.48043 18.8946 5.29289 18.7071C5.10536 18.5196 5 18.2652 5 18ZM8 18C8 17.8022 8.05865 17.6089 8.16853 17.4444C8.27841 17.28 8.43459 17.1518 8.61732 17.0761C8.80004 17.0004 9.00111 16.9806 9.19509 17.0192C9.38907 17.0578 9.56725 17.153 9.70711 17.2929C9.84696 17.4327 9.9422 17.6109 9.98079 17.8049C10.0194 17.9989 9.99957 18.2 9.92388 18.3827C9.84819 18.5654 9.72002 18.7216 9.55557 18.8315C9.39112 18.9414 9.19778 19 9 19C8.73478 19 8.48043 18.8946 8.29289 18.7071C8.10536 18.5196 8 18.2652 8 18ZM17 15C17 15.2652 16.8946 15.5196 16.7071 15.7071C16.5196 15.8946 16.2652 16 16 16H9.222C9.40389 15.6982 9.50001 15.3524 9.50001 15C9.50001 14.6476 9.40389 14.3018 9.222 14H10.793L12.1465 15.3535C12.2402 15.4473 12.3674 15.5 12.5 15.5H14V14.5H12.707L12.207 14H16C16.2652 14 16.5196 14.1054 16.7071 14.2929C16.8946 14.4804 17 14.7348 17 15ZM15.5 12C15.5 12.2652 15.3946 12.5196 15.2071 12.7071C15.0196 12.8946 14.7652 13 14.5 13H7.722C7.90389 12.6982 8.00001 12.3524 8.00001 12C8.00001 11.6476 7.90389 11.3018 7.722 11H12.2935L11.7885 11.505C11.5415 11.5 11.1465 11.5 10.5 11.5V12.5H11.865C11.8951 12.5128 11.9273 12.5196 11.96 12.52C12.179 12.52 12.5165 12.191 13.707 11H14.5C14.7652 11 15.0196 11.1054 15.2071 11.2929C15.3946 11.4804 15.5 11.7348 15.5 12ZM6 11C6.19778 11 6.39112 11.0586 6.55557 11.1685C6.72002 11.2784 6.84819 11.4346 6.92388 11.6173C6.99957 11.8 7.01937 12.0011 6.98079 12.1951C6.9422 12.3891 6.84696 12.5673 6.70711 12.7071C6.56725 12.847 6.38907 12.9422 6.19509 12.9808C6.00111 13.0194 5.80004 12.9996 5.61732 12.9239C5.43459 12.8482 5.27841 12.72 5.16853 12.5556C5.05865 12.3911 5 12.1978 5 12C5 11.7348 5.10536 11.4804 5.29289 11.2929C5.48043 11.1054 5.73478 11 6 11ZM4.5 14C4.69778 14 4.89112 14.0586 5.05557 14.1685C5.22002 14.2784 5.34819 14.4346 5.42388 14.6173C5.49957 14.8 5.51937 15.0011 5.48079 15.1951C5.4422 15.3891 5.34696 15.5673 5.20711 15.7071C5.06725 15.847 4.88907 15.9422 4.69509 15.9808C4.50111 16.0194 4.30004 15.9996 4.11732 15.9239C3.93459 15.8482 3.77841 15.72 3.66853 15.5556C3.55865 15.3911 3.5 15.1978 3.5 15C3.5 14.7348 3.60536 14.4804 3.79289 14.2929C3.98043 14.1054 4.23478 14 4.5 14ZM3 17C3.19778 17 3.39112 17.0586 3.55557 17.1685C3.72002 17.2784 3.84819 17.4346 3.92388 17.6173C3.99957 17.8 4.01937 18.0011 3.98079 18.1951C3.9422 18.3891 3.84696 18.5673 3.70711 18.7071C3.56725 18.847 3.38907 18.9422 3.19509 18.9808C3.00111 19.0194 2.80004 18.9996 2.61732 18.9239C2.43459 18.8482 2.27841 18.72 2.16853 18.5556C2.05865 18.3911 2 18.1978 2 18C2 17.7348 2.10536 17.4804 2.29289 17.2929C2.48043 17.1054 2.73478 17 3 17ZM2.5 20H18.5V21H12V21.013C11.7391 20.8116 11.4405 20.6645 11.1217 20.5805C10.803 20.4965 10.4707 20.4772 10.1444 20.5239C9.81812 20.5705 9.50448 20.682 9.22204 20.8519C8.9396 21.0218 8.69408 21.2466 8.5 21.513C8.30592 21.2466 8.0604 21.0218 7.77796 20.8519C7.49552 20.682 7.18188 20.5705 6.85559 20.5239C6.5293 20.4772 6.19698 20.4965 5.87826 20.5805C5.55955 20.6645 5.26091 20.8116 5 21.013V21H2.5V20ZM1.5 23V22H4.212C4.07282 22.315 4.00063 22.6556 4 23H1.5ZM6.5 24.5C6.20333 24.5 5.91332 24.412 5.66664 24.2472C5.41997 24.0824 5.22771 23.8481 5.11418 23.574C5.00065 23.2999 4.97094 22.9983 5.02882 22.7074C5.0867 22.4164 5.22956 22.1491 5.43934 21.9393C5.64912 21.7296 5.91639 21.5867 6.20736 21.5288C6.49834 21.4709 6.79994 21.5007 7.07403 21.6142C7.34811 21.7277 7.58238 21.92 7.7472 22.1666C7.91203 22.4133 8 22.7033 8 23C8 23.3978 7.84196 23.7794 7.56066 24.0607C7.27936 24.342 6.89782 24.5 6.5 24.5ZM10.5 24.5C10.2033 24.5 9.91332 24.412 9.66665 24.2472C9.41997 24.0824 9.22771 23.8481 9.11418 23.574C9.00065 23.2999 8.97094 22.9983 9.02882 22.7074C9.0867 22.4164 9.22956 22.1491 9.43934 21.9393C9.64912 21.7296 9.91639 21.5867 10.2074 21.5288C10.4983 21.4709 10.7999 21.5007 11.074 21.6142C11.3481 21.7277 11.5824 21.92 11.7472 22.1666C11.912 22.4133 12 22.7033 12 23C12 23.3978 11.842 23.7794 11.5607 24.0607C11.2794 24.342 10.8978 24.5 10.5 24.5ZM13 23C12.9997 22.6555 12.9275 22.3149 12.788 22H24.212C24.0725 22.3149 24.0003 22.6555 24 23H13ZM26.5 24.5C26.2033 24.5 25.9133 24.412 25.6666 24.2472C25.42 24.0824 25.2277 23.8481 25.1142 23.574C25.0007 23.2999 24.9709 22.9983 25.0288 22.7074C25.0867 22.4164 25.2296 22.1491 25.4393 21.9393C25.6491 21.7296 25.9164 21.5867 26.2074 21.5288C26.4983 21.4709 26.7999 21.5007 27.074 21.6142C27.3481 21.7277 27.5824 21.92 27.7472 22.1666C27.912 22.4133 28 22.7033 28 23C28 23.3978 27.842 23.7794 27.5607 24.0607C27.2794 24.342 26.8978 24.5 26.5 24.5ZM29 23C28.9997 22.6555 28.9275 22.3149 28.788 22H30.5V23H29Z" fill="#4A90E2"/>
<path d="M16 14.5H15V15.5H16V14.5Z" fill="#4A90E2"/>
</svg>
