<svg width="32" height="32" viewBox="0 0 32 32" fill="none" xmlns="http://www.w3.org/2000/svg">
<path d="M31.9302 28.4797L29.9739 24.931C29.9287 24.8504 29.8649 24.784 29.7889 24.738C29.7128 24.6921 29.6271 24.6683 29.54 24.669C29.4529 24.6696 29.3674 24.6947 29.292 24.7418C29.2165 24.7888 29.1536 24.8563 29.1094 24.9375L28.3332 26.3942L25.4033 25.0646V12.8182C25.4023 12.7115 25.3726 12.6074 25.318 12.5187C25.2633 12.4299 25.186 12.3601 25.0955 12.318L16.5015 8.4224V6.69143H17.8616C17.9488 6.69115 18.0344 6.6663 18.11 6.61933C18.1856 6.57236 18.2485 6.50488 18.2927 6.42355C18.3369 6.34222 18.3607 6.24983 18.3618 6.1555C18.363 6.06117 18.3414 5.96815 18.2992 5.8856L16.438 2.27767C16.3944 2.19346 16.3309 2.12334 16.254 2.07453C16.1771 2.02573 16.0896 2 16.0004 2C15.9113 2 15.8237 2.02573 15.7468 2.07453C15.6699 2.12334 15.6064 2.19346 15.5629 2.27767L13.7017 5.8856C13.6595 5.96815 13.6379 6.06117 13.639 6.1555C13.6402 6.24983 13.664 6.34222 13.7082 6.42355C13.7523 6.50488 13.8153 6.57236 13.8909 6.61933C13.9665 6.6663 14.052 6.69115 14.1392 6.69143H15.4993V8.4224L6.90507 12.318C6.81505 12.3609 6.73826 12.4308 6.68377 12.5194C6.62927 12.6081 6.59935 12.7117 6.59754 12.8182V25.0646L3.6674 26.3926L2.89142 24.936C2.84768 24.8541 2.78494 24.7861 2.70943 24.7386C2.63392 24.691 2.54825 24.6657 2.4609 24.665C2.37356 24.6644 2.28757 24.6884 2.21145 24.7348C2.13534 24.7812 2.07173 24.8483 2.02695 24.9295L0.0706627 28.4782C0.0253639 28.5605 0.000993787 28.6542 2.97556e-05 28.75C-0.000934276 28.8457 0.0215421 28.9401 0.0651741 29.0234C0.108806 29.1067 0.172038 29.176 0.248443 29.2243C0.324848 29.2726 0.411701 29.2981 0.500175 29.2983H0.509338L4.32685 29.2388C4.41418 29.2374 4.49965 29.2113 4.5748 29.1631C4.64996 29.1149 4.71218 29.0464 4.75532 28.9642C4.79846 28.882 4.82101 28.789 4.82074 28.6945C4.82047 28.5999 4.79739 28.5071 4.75378 28.4252L4.17394 27.3383L7.09949 26.0121L15.8043 29.9578H15.8066C15.8091 29.9578 15.812 29.9578 15.8149 29.9606C15.9336 30.0131 16.0667 30.0131 16.1854 29.9606C16.188 29.9606 16.1908 29.9606 16.1937 29.9578H16.196L24.9008 26.0121L27.8266 27.3383L27.2468 28.4252C27.2033 28.5071 27.1803 28.5999 27.18 28.6943C27.1798 28.7888 27.2023 28.8817 27.2454 28.9639C27.2885 29.046 27.3506 29.1146 27.4257 29.1628C27.5008 29.211 27.5862 29.2372 27.6734 29.2388L31.4909 29.2983H31.4984C31.5868 29.2984 31.6737 29.2731 31.7503 29.2251C31.8268 29.1771 31.8902 29.108 31.9341 29.0248C31.9779 28.9417 32.0007 28.8475 32 28.7517C31.9993 28.656 31.9752 28.5621 31.9302 28.4797V28.4797ZM16.0004 3.65346L17.0081 5.60604H14.9928L16.0004 3.65346ZM1.39127 28.2002L2.45074 26.2786L3.45837 28.1673L1.39127 28.2002ZM16.5015 21.0299V17.2137L24.4011 13.6333V24.6102L16.5015 21.0299ZM23.6051 12.8166L16.5015 16.0378V9.5986L23.6051 12.8166ZM15.4993 9.5986V16.0378L8.39605 12.8182L15.4993 9.5986ZM7.59973 13.6333L15.4993 17.2137V21.0299L7.59973 24.6102V13.6333ZM15.4993 22.2061V28.6459L8.39605 25.4257L15.4993 22.2061ZM16.5015 28.6452V22.2061L23.6051 25.4257L16.5015 28.6452ZM28.5431 28.1689L29.5504 26.2801L30.6099 28.2017L28.5431 28.1689Z" fill="#4A4A4A"/>
</svg>
