<svg width="32" height="32" viewBox="0 0 32 32" fill="none" xmlns="http://www.w3.org/2000/svg">
<path d="M29.908 26.066L28.2 23.2035C28.1605 23.1385 28.1048 23.0849 28.0384 23.0478C27.972 23.0108 27.8971 22.9916 27.8211 22.9921C27.7451 22.9927 27.6705 23.0129 27.6046 23.0509C27.5387 23.0888 27.4838 23.1432 27.4452 23.2088L26.7675 24.3838L24.2095 23.3113V13.433C24.2085 13.347 24.1827 13.263 24.1349 13.1914C24.0872 13.1198 24.0198 13.0635 23.9407 13.0295L16.4375 9.88726V8.49101H17.625C17.7011 8.49079 17.7758 8.47075 17.8418 8.43286C17.9078 8.39497 17.9628 8.34054 18.0013 8.27493C18.0399 8.20933 18.0607 8.13481 18.0617 8.05872C18.0626 7.98263 18.0438 7.9076 18.007 7.84101L16.382 4.93076C16.344 4.86284 16.2885 4.80628 16.2214 4.76691C16.1542 4.72754 16.0778 4.70679 16 4.70679C15.9221 4.70679 15.8457 4.72754 15.7786 4.76691C15.7114 4.80628 15.656 4.86284 15.618 4.93076L13.993 7.84101C13.9561 7.9076 13.9373 7.98263 13.9383 8.05872C13.9393 8.13481 13.9601 8.20933 13.9986 8.27493C14.0372 8.34054 14.0922 8.39497 14.1582 8.43286C14.2241 8.47075 14.2989 8.49079 14.375 8.49101H15.5625V9.88726L8.05897 13.0295C7.98037 13.0641 7.91333 13.1205 7.86575 13.192C7.81818 13.2635 7.79205 13.3471 7.79047 13.433V23.3113L5.23222 24.3825L4.55472 23.2075C4.51653 23.1415 4.46176 23.0866 4.39583 23.0483C4.3299 23.0099 4.25511 22.9895 4.17884 22.989C4.10258 22.9884 4.02751 23.0078 3.96105 23.0452C3.8946 23.0827 3.83907 23.1368 3.79997 23.2023L2.09197 26.0648C2.05242 26.1311 2.03114 26.2068 2.0303 26.284C2.02946 26.3612 2.04908 26.4373 2.08718 26.5045C2.12527 26.5717 2.18048 26.6276 2.24718 26.6666C2.31389 26.7055 2.38972 26.7261 2.46697 26.7263H2.47497L5.80797 26.6783C5.88421 26.6771 5.95884 26.6561 6.02446 26.6172C6.09007 26.5784 6.1444 26.5231 6.18206 26.4568C6.21972 26.3905 6.23941 26.3155 6.23917 26.2392C6.23894 26.163 6.21879 26.0881 6.18072 26.022L5.67447 25.1453L8.22872 24.0755L15.8287 27.2583H15.8307C15.833 27.2583 15.8355 27.2583 15.838 27.2605C15.9416 27.3029 16.0578 27.3029 16.1615 27.2605C16.1637 27.2605 16.1662 27.2605 16.1687 27.2583H16.1707L23.7707 24.0755L26.3252 25.1453L25.819 26.022C25.781 26.0881 25.7609 26.1629 25.7607 26.2391C25.7605 26.3153 25.7802 26.3903 25.8178 26.4565C25.8554 26.5228 25.9096 26.5781 25.9752 26.617C26.0407 26.6559 26.1153 26.677 26.1915 26.6783L29.5245 26.7263H29.531C29.6082 26.7263 29.6841 26.706 29.7509 26.6672C29.8177 26.6285 29.8731 26.5728 29.9113 26.5057C29.9496 26.4386 29.9695 26.3626 29.9689 26.2854C29.9683 26.2082 29.9473 26.1325 29.908 26.066V26.066ZM16 6.04051L16.8797 7.61551H15.1202L16 6.04051ZM3.24497 25.8405L4.16997 24.2905L5.04972 25.814L3.24497 25.8405ZM16.4375 20.0568V16.9785L23.3345 14.0905V22.9448L16.4375 20.0568ZM22.6395 13.4318L16.4375 16.03V10.836L22.6395 13.4318ZM15.5625 10.836V16.03L9.36072 13.433L15.5625 10.836ZM8.66547 14.0905L15.5625 16.9785V20.0568L8.66547 22.9448V14.0905ZM15.5625 21.0055V26.2L9.36072 23.6025L15.5625 21.0055ZM16.4375 26.1995V21.0055L22.6395 23.6025L16.4375 26.1995ZM26.9507 25.8153L27.8302 24.2918L28.7552 25.8418L26.9507 25.8153Z" fill="#4A4A4A"/>
</svg>
