<svg width="24" height="24" viewBox="0 0 24 24" fill="none" xmlns="http://www.w3.org/2000/svg">
<path d="M20.0943 5.50568H11.4057V3.94589C11.4057 3.4244 10.9995 3 10.5 3H3.9057C3.4062 3 3 3.42409 3 3.94589V8.32456V8.95098V18.6542C3 19.1757 3.4062 19.6001 3.9057 19.6001H20.0943C20.5938 19.6001 21 19.176 21 18.6542V8.95098V8.32456V6.45157C21 5.92976 20.5938 5.50568 20.0943 5.50568ZM20.4 18.6542C20.4 18.8305 20.2629 18.9737 20.0943 18.9737H3.9057C3.7371 18.9737 3.6 18.8305 3.6 18.6542V8.95098H20.4V18.6542ZM3.6 8.32456V3.94589C3.6 3.76956 3.7371 3.62642 3.9057 3.62642H10.5C10.6686 3.62642 10.8057 3.76956 10.8057 3.94589V6.13209H20.0943C20.2629 6.13209 20.4 6.27523 20.4 6.45157V8.32456H3.6Z" fill="#4A4A4A"/>
<path d="M19.5 13.6492H13.2V18.0341H19.5V13.6492ZM18.9 17.4077H13.8V14.2756H18.9V17.4077Z" fill="#4A4A4A"/>
<path d="M14.7 15.5283H15.9C16.0656 15.5283 16.2 15.3883 16.2 15.2151C16.2 15.0419 16.0656 14.9019 15.9 14.9019H14.7C14.5344 14.9019 14.4 15.0419 14.4 15.2151C14.4 15.3883 14.5344 15.5283 14.7 15.5283Z" fill="#4A4A4A"/>
<path d="M17.1 15.5283H17.4C17.5656 15.5283 17.7 15.3883 17.7 15.2151C17.7 15.0419 17.5656 14.9019 17.4 14.9019H17.1C16.9344 14.9019 16.8 15.0419 16.8 15.2151C16.8 15.3883 16.9344 15.5283 17.1 15.5283Z" fill="#4A4A4A"/>
<path d="M14.7 16.7812H18C18.1656 16.7812 18.3 16.6412 18.3 16.468C18.3 16.2948 18.1656 16.1548 18 16.1548H14.7C14.5344 16.1548 14.4 16.2948 14.4 16.468C14.4 16.6412 14.5344 16.7812 14.7 16.7812Z" fill="#4A4A4A"/>
</svg>
