<svg width="24" height="24" viewBox="0 0 24 24" fill="none" xmlns="http://www.w3.org/2000/svg">
<g clip-path="url(#clip0_691_478)">
<path d="M21.6762 3.50886L18.3206 0.159851C18.3173 0.156556 18.3144 0.153992 18.3117 0.151795C18.1799 0.0247194 18.0042 -0.046875 17.8207 -0.046875H5.307C4.91641 -0.046875 4.59975 0.269166 4.59975 0.658815V14.9967C3.15736 15.8255 2.18408 17.3799 2.18408 19.1569C2.18408 21.8015 4.33978 23.9532 6.98973 23.9532C8.69485 23.9532 10.1952 23.0622 11.0483 21.7224H21.1763C21.5668 21.7224 21.8833 21.4064 21.8833 21.0165V4.008C21.8833 3.82087 21.8088 3.64124 21.6762 3.50886V3.50886ZM18.5278 2.3628L19.4638 3.297L18.5278 3.29407V2.3628ZM6.98973 22.5416C5.11969 22.5416 3.5984 21.0233 3.5984 19.1569C3.5984 17.2905 5.11969 15.772 6.98973 15.772C8.85978 15.772 10.3811 17.2905 10.3811 19.1569C10.3811 21.0233 8.85978 22.5416 6.98973 22.5416V22.5416ZM11.6545 20.3108C11.7464 19.9411 11.7954 19.5546 11.7954 19.1569C11.7954 16.5121 9.6395 14.3606 6.98973 14.3606C6.65546 14.3606 6.32926 14.3949 6.01407 14.4601V1.36469H17.1134V3.99757C17.1134 4.38648 17.4288 4.70216 17.8185 4.70344L20.4692 4.7115V20.3108H11.6545Z" fill="#4A90E2"/>
<path d="M9.42309 19.2115C9.19578 18.8944 8.75418 18.8213 8.4366 19.0482L7.69651 19.5766V17.296C7.69651 16.9062 7.38003 16.5903 6.98944 16.5903C6.59884 16.5903 6.28237 16.9062 6.28237 17.296V19.5436L5.62667 19.0562C5.3135 18.8233 4.87043 18.8879 4.63707 19.2005C4.40388 19.5131 4.46865 19.9553 4.78182 20.1882L6.56692 21.5153C6.56802 21.5162 6.56912 21.5162 6.57022 21.5168C6.68764 21.6034 6.83239 21.655 6.98944 21.655C7.14208 21.655 7.28298 21.6063 7.39856 21.5243C7.3993 21.5238 7.40021 21.5239 7.40095 21.5234L9.25944 20.1961C9.5772 19.9694 9.6504 19.5284 9.42309 19.2115V19.2115Z" fill="#4A90E2"/>
<path d="M8.84379 7.72113H14.1079C14.4983 7.72113 14.815 7.40509 14.815 7.01526C14.815 6.62561 14.4983 6.30957 14.1079 6.30957H8.84379C8.45338 6.30957 8.13672 6.62561 8.13672 7.01526C8.13672 7.40509 8.45319 7.72113 8.84379 7.72113Z" fill="#4A90E2"/>
<path d="M17.3607 9.13281H8.84379C8.45338 9.13281 8.13672 9.44885 8.13672 9.83869C8.13672 10.2283 8.45338 10.5444 8.84379 10.5444H17.3607C17.7511 10.5444 18.0678 10.2283 18.0678 9.83869C18.0678 9.44885 17.7511 9.13281 17.3607 9.13281Z" fill="#4A90E2"/>
<path d="M17.3607 11.9556H8.84379C8.45338 11.9556 8.13672 12.2716 8.13672 12.6613C8.13672 13.0511 8.45338 13.3671 8.84379 13.3671H17.3607C17.7511 13.3671 18.0678 13.0511 18.0678 12.6613C18.0678 12.2716 17.7511 11.9556 17.3607 11.9556Z" fill="#4A90E2"/>
</g>
<defs>
<clipPath id="clip0_691_478">
<rect width="24" height="24" fill="white"/>
</clipPath>
</defs>
</svg>
