<svg width="23" height="23" viewBox="0 0 23 23" fill="none" xmlns="http://www.w3.org/2000/svg">
<path d="M2.55397 3.70044H9.44648C9.63543 3.70044 9.78854 3.54959 9.78854 3.36353C9.78854 3.17746 9.63543 3.02661 9.44648 3.02661H2.55397C2.36502 3.02661 2.21191 3.17746 2.21191 3.36353C2.21191 3.54959 2.36502 3.70044 2.55397 3.70044V3.70044Z" fill="white"/>
<path d="M2.55397 5.91846H9.44648C9.63543 5.91846 9.78854 5.76761 9.78854 5.58154C9.78854 5.39548 9.63543 5.24463 9.44648 5.24463H2.55397C2.36502 5.24463 2.21191 5.39548 2.21191 5.58154C2.21191 5.76761 2.36502 5.91846 2.55397 5.91846V5.91846Z" fill="white"/>
<path d="M16.0297 9.67599C16.0297 9.48993 15.8766 9.33908 15.6876 9.33908H2.82741C2.63846 9.33908 2.48535 9.48993 2.48535 9.67599C2.48535 9.86206 2.63846 10.0129 2.82741 10.0129H15.6876C15.8766 10.0129 16.0297 9.86206 16.0297 9.67599Z" fill="white"/>
<path d="M14.5905 12.1288H2.82741C2.63846 12.1288 2.48535 12.2797 2.48535 12.4657C2.48535 12.6518 2.63846 12.8026 2.82741 12.8026H14.5905C14.7795 12.8026 14.9326 12.6518 14.9326 12.4657C14.9326 12.2797 14.7794 12.1288 14.5905 12.1288Z" fill="white"/>
<path d="M14.9326 15.2555C14.9326 15.0694 14.7795 14.9186 14.5905 14.9186H2.82741C2.63846 14.9186 2.48535 15.0694 2.48535 15.2555C2.48535 15.4416 2.63846 15.5924 2.82741 15.5924H14.5905C14.7794 15.5924 14.9326 15.4416 14.9326 15.2555Z" fill="white"/>
<path d="M2.82741 17.7083C2.63846 17.7083 2.48535 17.8592 2.48535 18.0453C2.48535 18.2313 2.63846 18.3822 2.82741 18.3822H12.0348C12.2237 18.3822 12.3768 18.2313 12.3768 18.0453C12.3768 17.8592 12.2237 17.7083 12.0348 17.7083H2.82741Z" fill="white"/>
<path d="M22.9462 17.9812C22.8369 17.7215 22.582 17.5537 22.2966 17.5537H20.4722V12.4567C20.4722 11.8815 19.9971 11.4135 19.4131 11.4135H16.9336C16.3496 11.4135 15.8745 11.8815 15.8745 12.4567V17.5537H14.0501C13.7647 17.5537 13.5097 17.7214 13.4005 17.9812C13.2913 18.2409 13.3512 18.5371 13.5529 18.7359L17.6762 22.7971C17.8089 22.9279 17.9855 23 18.1733 23C18.3611 23 18.5377 22.9279 18.6705 22.7972L22.7937 18.7359C22.9956 18.5371 23.0553 18.2409 22.9462 17.9812ZM22.31 18.2594L18.1868 22.3207C18.1852 22.3222 18.1812 22.3262 18.1734 22.3262C18.1655 22.3262 18.1615 22.3222 18.16 22.3207L14.0367 18.2594C14.0313 18.2541 14.0278 18.2506 14.0326 18.239C14.0374 18.2275 14.0425 18.2275 14.0501 18.2275H16.2166C16.4056 18.2275 16.5587 18.0766 16.5587 17.8906V12.4567C16.5587 12.253 16.7269 12.0873 16.9336 12.0873H19.4131C19.6199 12.0873 19.7881 12.253 19.7881 12.4567V17.8906C19.7881 18.0766 19.9412 18.2275 20.1302 18.2275H22.2967C22.3043 18.2275 22.3093 18.2275 22.3142 18.239C22.3191 18.2506 22.3154 18.2541 22.31 18.2594V18.2594Z" fill="white"/>
<path d="M16.0908 22.3262H1.54947C1.07232 22.3262 0.684111 21.9438 0.684111 21.4739V1.52613C0.684111 1.05616 1.07232 0.673828 1.54947 0.673828H12.5066V4.68302C12.5066 5.36426 13.0693 5.91846 13.7609 5.91846H17.8313V10.0625C17.8313 10.2486 17.9844 10.3994 18.1734 10.3994C18.3623 10.3994 18.5154 10.2486 18.5154 10.0625V5.58154C18.5154 5.49219 18.4794 5.40648 18.4153 5.34332L13.0906 0.0986934C13.0264 0.0354883 12.9394 0 12.8487 0H1.54947C0.695057 0 0 0.684609 0 1.52613V21.4739C0 22.3154 0.695057 23 1.54947 23H16.0908C16.2798 23 16.4329 22.8492 16.4329 22.6631C16.4329 22.477 16.2798 22.3262 16.0908 22.3262V22.3262ZM13.7609 5.24463C13.4465 5.24463 13.1907 4.99271 13.1907 4.68302V1.15027L17.3476 5.24463H13.7609Z" fill="white"/>
</svg>
