<svg width="25" height="20" viewBox="0 0 25 20" fill="none" xmlns="http://www.w3.org/2000/svg">
<path d="M11.1875 13.9844H11.9687V13.2812H12.9922V12.6563H11.9922V12.1016C12.4837 12.1441 12.9788 12.0965 13.4531 11.9609C13.6953 11.8415 13.9024 11.6614 14.0543 11.4382C14.2061 11.2149 14.2975 10.9561 14.3195 10.687C14.3416 10.4179 14.2935 10.1476 14.18 9.90265C14.0665 9.65765 13.8914 9.44625 13.6719 9.28906C13.1953 8.92969 11.7812 9.10156 11.1875 9.0625V11.3438H10.6406V12.125H11.1875V12.6797H10.6406V13.3047H11.1875V13.9844ZM11.9687 9.82031H12.75C12.8644 9.79424 12.9832 9.79427 13.0976 9.82041C13.212 9.84655 13.3191 9.89813 13.4108 9.9713C13.5025 10.0445 13.5766 10.1374 13.6275 10.2431C13.6784 10.3488 13.7048 10.4647 13.7048 10.582C13.7048 10.6994 13.6784 10.8152 13.6275 10.9209C13.5766 11.0267 13.5025 11.1196 13.4108 11.1928C13.3191 11.2659 13.212 11.3175 13.0976 11.3437C12.9832 11.3698 12.8644 11.3698 12.75 11.3438H11.9687V9.82031ZM23.2422 3.125H16.0156V1.36719C16.0136 1.00522 15.8689 0.65866 15.6129 0.402706C15.357 0.146752 15.0104 0.00205086 14.6484 0H9.96094C9.59897 0.00205086 9.25241 0.146752 8.99646 0.402706C8.7405 0.65866 8.5958 1.00522 8.59375 1.36719V3.125H1.36719C1.00522 3.12705 0.65866 3.27175 0.402706 3.52771C0.146752 3.78366 0.00205086 4.13022 0 4.49219V18.5547C0.00205086 18.9167 0.146752 19.2632 0.402706 19.5192C0.65866 19.7751 1.00522 19.9198 1.36719 19.9219H23.2422C23.6042 19.9198 23.9507 19.7751 24.2067 19.5192C24.4626 19.2632 24.6073 18.9167 24.6094 18.5547V4.49219C24.6073 4.13022 24.4626 3.78366 24.2067 3.52771C23.9507 3.27175 23.6042 3.12705 23.2422 3.125V3.125ZM9.76562 1.36719C9.76562 1.31539 9.7862 1.26571 9.82283 1.22908C9.85946 1.19245 9.90914 1.17188 9.96094 1.17188H14.6484C14.7002 1.17188 14.7499 1.19245 14.7865 1.22908C14.8232 1.26571 14.8438 1.31539 14.8438 1.36719V3.125H9.76562V1.36719ZM1.17188 4.49219C1.17188 4.44039 1.19245 4.39071 1.22908 4.35408C1.26571 4.31745 1.31539 4.29688 1.36719 4.29688H23.2422C23.294 4.29688 23.3437 4.31745 23.3803 4.35408C23.4169 4.39071 23.4375 4.44039 23.4375 4.49219V6.625C21.8944 8.46467 19.7333 9.67851 17.3594 10.0391C17.0309 8.95418 16.3622 8.00375 15.4519 7.32827C14.5416 6.65278 13.4382 6.28809 12.3047 6.28809C11.1712 6.28809 10.0677 6.65278 9.15748 7.32827C8.24722 8.00375 7.57844 8.95418 7.25 10.0391C4.87604 9.67851 2.71502 8.46467 1.17188 6.625V4.49219ZM8.28125 10.7422C8.48492 9.71884 9.07453 8.81309 9.92789 8.21266C10.7812 7.61224 11.8329 7.36318 12.8649 7.5171C13.8969 7.67103 14.8301 8.21614 15.4711 9.03945C16.1121 9.86276 16.4118 10.9011 16.3079 11.9394C16.2041 12.9776 15.7048 13.9361 14.9135 14.6162C14.1221 15.2963 13.0994 15.6458 12.0574 15.5923C11.0153 15.5388 10.0338 15.0865 9.31626 14.3289C8.5987 13.5714 8.20012 12.5669 8.20312 11.5234C8.20412 11.2611 8.23029 10.9995 8.28125 10.7422V10.7422ZM23.2422 18.75H1.36719C1.31539 18.75 1.26571 18.7294 1.22908 18.6928C1.19245 18.6562 1.17188 18.6065 1.17188 18.5547V8.3125C2.7986 9.83543 4.84545 10.8344 7.04688 11.1797V11.5234C7.04688 12.922 7.60247 14.2634 8.59143 15.2523C9.58039 16.2413 10.9217 16.7969 12.3203 16.7969C13.7189 16.7969 15.0602 16.2413 16.0492 15.2523C17.0382 14.2634 17.5938 12.922 17.5938 11.5234C17.5938 11.4062 17.5938 11.2969 17.5938 11.1797C19.7952 10.8344 21.842 9.83543 23.4688 8.3125V18.5547C23.4691 18.5832 23.4632 18.6114 23.4515 18.6374C23.4398 18.6634 23.4226 18.6865 23.401 18.7051C23.3794 18.7238 23.354 18.7374 23.3266 18.7452C23.2991 18.7529 23.2703 18.7546 23.2422 18.75Z" fill="white"/>
</svg>
