<svg width="32" height="32" viewBox="0 0 32 32" fill="none" xmlns="http://www.w3.org/2000/svg">
<g clip-path="url(#clip0_414_351)">
<path d="M32 31C32 31.55 31.55 32 31 32H1C0.45 32 0 31.55 0 31C0 30.45 0.45 30 1 30H31C31.55 30 32 30.45 32 31ZM26.1064 5.90623L24.3814 8.89998L15.6752 23.975C15.5939 24.1125 15.4877 24.225 15.3564 24.3125L9.93145 27.8375C9.76895 27.9437 9.5752 28 9.3877 28C9.2127 28 9.04395 27.9562 8.8877 27.8625C8.5627 27.675 8.36895 27.3187 8.3877 26.9437L8.7502 20.5C8.75645 20.3437 8.80645 20.1937 8.88145 20.0562L19.3127 1.98123C20.5939 -0.237522 22.9752 -0.412522 24.6627 0.562478C26.3502 1.53748 27.3877 3.68748 26.1064 5.90623ZM22.1502 8.76248L18.8189 6.83748L10.7314 20.8437L10.4939 25.0812L14.0627 22.7625L22.1502 8.76248ZM23.6627 2.29373C22.8939 1.84998 21.7502 1.76248 21.0502 2.97498L19.8252 5.09998L23.1564 7.02498L24.3814 4.89998C25.0752 3.68748 24.4314 2.73748 23.6627 2.29373Z" fill="#4A90E2"/>
</g>
<defs>
<clipPath id="clip0_414_351">
<rect width="32" height="32" fill="white"/>
</clipPath>
</defs>
</svg>
