<svg width="19" height="19" viewBox="0 0 19 19" fill="none" xmlns="http://www.w3.org/2000/svg">
<path d="M16 17.924V18.4375H3.01555L3 17.9207L16 17.924ZM3.32868 17.0898C3.27795 17.0921 3.22737 17.0829 3.1813 17.063C3.13523 17.0431 3.09505 17.013 3.06423 16.9754C3.03341 16.9378 3.01288 16.8938 3.0044 16.8471C2.99592 16.8005 2.99974 16.7526 3.01555 16.7076L4.11462 13.6358C4.12944 13.592 4.1552 13.552 4.18977 13.5191L12.1838 6.07451L13.07 5.24894C13.2484 5.08921 13.4863 5 13.7338 5C13.9813 5 14.2192 5.08921 14.3976 5.24894L15.7253 6.47708C15.9012 6.64117 16 6.8636 16 7.09552C16 7.32743 15.9012 7.54987 15.7253 7.71396L14.8391 8.54827L6.8482 15.9958C6.81295 16.028 6.77004 16.052 6.72295 16.0658L3.42574 17.0752C3.39466 17.0857 3.36173 17.0906 3.32868 17.0898ZM12.8414 6.27871L14.6199 7.93566L15.2838 7.31722C15.3131 7.2901 15.3364 7.25784 15.3523 7.22229C15.3682 7.18674 15.3764 7.14861 15.3764 7.1101C15.3764 7.07159 15.3682 7.03346 15.3523 6.99792C15.3364 6.96237 15.3131 6.9301 15.2838 6.90298L13.9561 5.66027C13.927 5.63292 13.8924 5.61122 13.8542 5.59641C13.8161 5.5816 13.7751 5.57398 13.7338 5.57398C13.6925 5.57398 13.6515 5.5816 13.6134 5.59641C13.5752 5.61122 13.5406 5.63292 13.5115 5.66027L12.8414 6.27871ZM3.81715 16.343L6.45679 15.5203L14.1753 8.34115L12.4062 6.69295L4.70016 13.8838L3.81715 16.343Z" fill="#4A90E2"/>
</svg>
