<svg width="21" height="21" viewBox="0 0 21 21" fill="none" xmlns="http://www.w3.org/2000/svg">
<path d="M16.625 8.77218V4.37501C16.625 3.40987 15.8402 2.625 14.875 2.625H1.74997C0.784834 2.625 0 3.40983 0 4.37501V13.125C0 14.0901 0.784834 14.875 1.75001 14.875H11.5616C12.1348 16.8919 13.9893 18.375 16.1875 18.375C17.0335 18.375 17.8653 18.1524 18.5942 17.7307C18.8031 17.6098 18.8749 17.3423 18.7535 17.133C18.6326 16.9237 18.3647 16.8514 18.1558 16.9737C17.5602 17.318 16.8796 17.5 16.1875 17.5C14.0162 17.5 12.25 15.7338 12.25 13.5625C12.25 11.3913 14.0162 9.62501 16.1875 9.62501C18.3587 9.62501 20.125 11.3913 20.125 13.5625V14C20.125 14.4824 19.7323 14.875 19.25 14.875C18.7676 14.875 18.375 14.4824 18.375 14V12.25C18.375 12.0082 18.1793 11.8125 17.9375 11.8125C17.8198 11.8125 17.7141 11.8601 17.6355 11.9355C17.2488 11.591 16.7449 11.375 16.1875 11.375C14.9814 11.375 14 12.3564 14 13.5625C14 14.7686 14.9814 15.75 16.1875 15.75C16.8395 15.75 17.4192 15.4575 17.8203 15.0034C18.1373 15.4537 18.6587 15.75 19.25 15.75C20.2152 15.75 21 14.9652 21 14V13.5625C21 11.0565 19.0741 8.99423 16.625 8.77218ZM1.75001 3.49999H14.875C14.8932 3.49999 14.9085 3.5093 14.9264 3.5104L8.67226 8.64404C8.44967 8.78419 8.12708 8.75511 7.98226 8.66627L1.69911 3.51032C1.71687 3.50926 1.73197 3.49999 1.75001 3.49999ZM15.75 8.77218C13.3009 8.99423 11.375 11.0565 11.375 13.5625C11.375 13.7102 11.3841 13.8557 11.3971 14H1.75001C1.26767 14 0.875027 13.6074 0.875027 13.125V4.37501C0.875027 4.25111 0.902385 4.13409 0.949061 4.0272L7.46575 9.37125C7.72037 9.53745 8.01306 9.62505 8.31255 9.62505C8.60052 9.62505 8.88206 9.54388 9.12987 9.39008C9.15465 9.37683 9.17815 9.36104 9.20038 9.34266L15.6759 4.02712C15.7226 4.13409 15.75 4.25111 15.75 4.37505V8.77218H15.75ZM16.1875 14.875C15.4638 14.875 14.875 14.2863 14.875 13.5625C14.875 12.8388 15.4638 12.25 16.1875 12.25C16.9113 12.25 17.5 12.8388 17.5 13.5625C17.5 14.2863 16.9113 14.875 16.1875 14.875Z" fill="#4A90E2"/>
</svg>
