<svg width="28" height="28" viewBox="0 0 28 28" fill="none" xmlns="http://www.w3.org/2000/svg">
<g clip-path="url(#clip0_133_676)">
<path d="M27.8346 13.4182C27.769 13.3126 26.1971 10.8059 23.6785 8.37092C21.4477 6.21431 17.9577 3.64355 14 3.64355C10.0422 3.64355 6.55228 6.21431 4.32146 8.37092C1.79616 10.8123 0.231147 13.3128 0.165797 13.4179C-0.0551806 13.7714 -0.0552443 14.228 0.165478 14.5813C0.231019 14.6868 1.79782 17.1889 4.32152 19.6288C6.55227 21.7854 10.0423 24.3562 14 24.3562C21.6658 24.3562 27.5862 14.9806 27.8346 14.5817C28.0551 14.2282 28.0552 13.7716 27.8346 13.4182ZM25.5006 14.1105C24.7669 15.1478 23.2359 17.1483 21.2256 18.8946C18.7327 21.0602 16.3017 22.1582 14 22.1582C11.6982 22.1582 9.26725 21.0602 6.7744 18.8947C4.76437 17.1486 3.23309 15.1477 2.49919 14.1106L2.42103 14.0002L2.49919 13.8897C3.23277 12.8526 4.76373 10.852 6.7744 9.10513C9.26731 6.93954 11.6983 5.84153 14 5.84153C16.3016 5.84153 18.7327 6.9396 21.2256 9.10513C23.2366 10.8522 24.7672 12.8527 25.5006 13.8897L25.5788 14.0002L25.5006 14.1105Z" fill="#4A90E2"/>
<path d="M13.9999 6.77246C10.0146 6.77246 6.77234 10.0148 6.77234 14.0003C6.77234 17.9856 10.0146 21.2279 13.9999 21.2279C17.9852 21.2279 21.2276 17.9856 21.2276 14.0003C21.2276 10.0149 17.9852 6.77246 13.9999 6.77246ZM13.9999 19.0297C11.2266 19.0297 8.97019 16.7736 8.97019 14.0003C8.97019 11.2268 11.2266 8.97044 13.9999 8.97044C16.7733 8.97044 19.0296 11.2268 19.0296 14.0003C19.0296 16.7736 16.7733 19.0297 13.9999 19.0297Z" fill="#4A90E2"/>
<path d="M14 11.6104C12.6825 11.6104 11.6107 12.6823 11.6107 14C11.6107 15.3174 12.6825 16.3892 14 16.3892C15.3175 16.3892 16.3893 15.3173 16.3893 14C16.3893 12.6824 15.3174 11.6104 14 11.6104Z" fill="#4A90E2"/>
</g>
<defs>
<clipPath id="clip0_133_676">
<rect width="28" height="28" fill="white"/>
</clipPath>
</defs>
</svg>
