<svg width="32" height="32" viewBox="0 0 32 32" fill="none" xmlns="http://www.w3.org/2000/svg">
<path d="M4.20729 28.0827H27.7921C30.1119 28.0827 32 26.2095 32 23.909V11.5441C32 9.24502 30.1164 7.37504 27.8011 7.37051L27.8335 7.36986V6.72129C27.8561 6.36465 27.6257 6.07531 27.2678 6.07531H25.0023C24.6444 6.07531 24.355 6.36465 24.355 6.72259V7.36986H23.5181C23.1725 5.41186 21.4494 3.9173 19.3775 3.9173H12.6219C10.5506 3.9173 8.82819 5.41186 8.4819 7.36986H4.20729C1.88745 7.36986 0 9.24243 0 11.5441V23.909C0 26.2095 1.88745 28.0827 4.20729 28.0827ZM1.39099 11.5441C1.39099 10.0095 2.65448 8.76151 4.20729 8.76151H8.41458H9.80557L9.91367 7.36986C10.238 6.18664 11.3234 5.30894 12.6219 5.30894H19.3775C20.6766 5.30894 21.762 6.186 22.0863 7.36986L22.1944 8.76151H23.5854H27.7921C29.3455 8.76151 30.609 10.0095 30.609 11.5441V23.909C30.609 25.4431 29.3455 26.6917 27.7921 26.6917H4.20729C2.65512 26.6917 1.39099 25.4431 1.39099 23.909V11.5441ZM11.805 8.44823H20.0979C20.3885 8.44823 20.6235 8.21326 20.6235 7.92264C20.6235 7.63201 20.3885 7.39705 20.0979 7.39705H11.805C11.515 7.39705 11.2794 7.63201 11.2794 7.92264C11.2794 8.21326 11.515 8.44823 11.805 8.44823ZM16.0006 25.4884C20.3303 25.4884 23.8534 21.9659 23.8534 17.6357C23.8534 13.306 20.3309 9.78291 16.0006 9.78291C11.6704 9.78291 8.1479 13.3054 8.1479 17.6357C8.1479 21.9659 11.6704 25.4884 16.0006 25.4884ZM16.0006 11.0975C19.606 11.0975 22.5388 14.0303 22.5388 17.6363C22.5388 21.2416 19.606 24.1751 16.0006 24.1751C12.3953 24.1751 9.46187 21.2423 9.46187 17.6363C9.46187 14.0303 12.3947 11.0975 16.0006 11.0975ZM11.862 18.0739C11.862 15.4699 13.9799 13.352 16.5838 13.352C16.8259 13.352 17.022 13.1559 17.022 12.9138C17.022 12.6717 16.8259 12.4756 16.5838 12.4756C13.4976 12.4756 10.9862 14.987 10.9862 18.0732C10.9862 18.3153 11.1823 18.5114 11.4244 18.5114C11.6658 18.5121 11.862 18.3159 11.862 18.0739Z" fill="#4A90E2"/>
</svg>
