<svg width="22" height="22" viewBox="0 0 22 22" fill="none" xmlns="http://www.w3.org/2000/svg">
<path d="M20.3527 16.3281C21.261 16.3281 22 15.6641 22 14.8481V6.20657C22 5.39046 21.261 4.72655 20.3527 4.72655H19.6619V3.58071C19.6619 2.7646 18.9229 2.1007 18.0146 2.1007H7.78542L7.21758 1.10309C6.79503 0.360808 6.15134 0 5.24968 0H1.64732C0.739009 0 0 0.663952 0 1.48001V14.848C0 15.6641 0.739009 16.3281 1.64737 16.3281H9.56522V18.5625H8.13043C7.86634 18.5625 7.65217 18.7549 7.65217 18.9922H0.478261C-0.155626 19.0133 -0.155148 19.8306 0.478261 19.8516H7.65217V20.7109H0.478261C-0.155626 20.7321 -0.155148 21.5494 0.478261 21.5703H7.65217C7.65217 21.8076 7.86634 22 8.13043 22H13.8696C14.1337 22 14.3478 21.8076 14.3478 21.5703H21.5217C22.1556 21.5492 22.1551 20.7319 21.5217 20.7109H14.3478V19.8516H21.5217C22.1556 19.8304 22.1551 19.0131 21.5217 18.9922H14.3478C14.3478 18.7549 14.1337 18.5625 13.8696 18.5625H12.4348V16.3281H20.3527ZM10.3091 4.72655H4.57007C3.66176 4.72655 2.92275 5.39051 2.92275 6.20657V14.8481C2.92275 15.1903 2.61288 15.4687 2.23195 15.4687H1.64737C1.26643 15.4687 0.956522 15.1903 0.956522 14.8481V1.48001C0.956522 1.13777 1.26639 0.859373 1.64732 0.859373H5.24963C5.79279 0.859373 6.10581 1.03744 6.36594 1.49436L7.06697 2.72602C7.14876 2.86966 7.31318 2.96007 7.49277 2.96007H18.0145C18.3954 2.96007 18.7053 3.23846 18.7053 3.58071V4.72655H14.6133C13.9794 4.74769 13.9799 5.565 14.6133 5.58593H20.3526C20.7335 5.58593 21.0434 5.86436 21.0434 6.20657V14.8481C21.0434 15.1903 20.7335 15.4687 20.3526 15.4687H3.72733C3.82484 15.2799 3.87927 15.0696 3.87927 14.8481V6.20657C3.87927 5.86436 4.18913 5.58593 4.57007 5.58593H10.3091C10.9429 5.56474 10.9425 4.74748 10.3091 4.72655V4.72655ZM13.3913 21.1407H8.6087V19.4219H13.3913V21.1407ZM11.4783 18.5626H10.5217V16.3281H11.4783V18.5626Z" fill="white"/>
<path d="M12.4622 5.58591C13.0961 5.56476 13.0956 4.74746 12.4622 4.72653H12.4619C11.828 4.74772 11.8288 5.56502 12.4622 5.58591Z" fill="white"/>
</svg>
