<svg width="32" height="32" viewBox="0 0 32 32" fill="none" xmlns="http://www.w3.org/2000/svg">
<path d="M25.5008 31.2477C25.3717 31.2477 25.2425 31.2082 25.1322 31.1279L16.0004 24.4927L6.86805 31.1274C6.64798 31.2879 6.35066 31.2879 6.13059 31.1274C5.91052 30.9681 5.81888 30.6852 5.90296 30.4269L9.39087 19.6905L0.258489 13.0558C0.0384188 12.8958 -0.0532244 12.613 0.0308519 12.3547C0.114928 12.0964 0.355702 11.9214 0.627164 11.9214H11.9148L15.4034 1.18557C15.4875 0.927242 15.7282 0.752258 15.9997 0.752258C16.2713 0.752258 16.512 0.927242 16.596 1.18557L20.0845 11.9214H31.3728C31.645 11.9214 31.8852 12.0964 31.9692 12.3547C32.0531 12.613 31.961 12.8958 31.7415 13.0558L22.6091 19.6904L26.0977 30.4268C26.1818 30.6845 26.0895 30.968 25.87 31.1273C25.7598 31.2076 25.63 31.2477 25.5008 31.2477Z" fill="#4A4A4A"/>
</svg>
