<svg width="24" height="24" viewBox="0 0 24 24" fill="none" xmlns="http://www.w3.org/2000/svg">
<path d="M19.3959 3H4.67217C3.76897 3 3 4.01768 3 5.30699V19.3575C3 20.6468 3.76897 21.7273 4.67217 21.7273H19.3959C20.2991 21.7273 21 20.6468 21 19.3575V5.30699C21 4.01768 20.2991 3 19.3959 3ZM20.3455 19.3575C20.3455 20.1306 19.9383 20.7909 19.3959 20.7909H4.67217C4.12982 20.7909 3.65457 20.1305 3.65457 19.3575V5.30699C3.65457 4.53384 4.12982 3.9364 4.67217 3.9364H19.3959C19.9383 3.9364 20.3455 4.53389 20.3455 5.30699V19.3575V19.3575Z" fill="#4A4A4A"/>
<path d="M8.97247 6H6.35427C5.63239 6 5 6.55791 5 7.27959V9.89822C5 10.62 5.63239 11.2364 6.35427 11.2364H8.97247C9.69434 11.2364 10.2364 10.62 10.2364 9.89822V7.27959C10.2364 6.55791 9.69434 6 8.97247 6ZM9.36364 9.92747C9.36364 10.1684 9.16826 10.3636 8.92728 10.3636H6.30908C6.06809 10.3636 5.87272 10.1683 5.87272 9.92747V7.30884C5.87272 7.06795 6.06809 6.87272 6.30908 6.87272H8.92728C9.16826 6.87272 9.36364 7.068 9.36364 7.30884V9.92747Z" fill="#4A4A4A"/>
<path d="M18.6667 6H12.3333C12.1491 6 12 6.19537 12 6.43636C12 6.67734 12.1491 6.87272 12.3333 6.87272H18.6667C18.8509 6.87272 19 6.67734 19 6.43636C19 6.19537 18.8509 6 18.6667 6Z" fill="#4A4A4A"/>
<path d="M18.6667 9H12.3333C12.1491 9 12 9.19537 12 9.43636C12 9.67734 12.1491 9.87272 12.3333 9.87272H18.6667C18.8509 9.87272 19 9.67734 19 9.43636C19 9.19537 18.8509 9 18.6667 9Z" fill="#4A4A4A"/>
<path d="M18.6666 12H12.3333C12.1491 12 12 12.1954 12 12.4364C12 12.6773 12.1491 12.8727 12.3333 12.8727H18.6666C18.8509 12.8727 19 12.6773 19 12.4364C19 12.1954 18.8509 12 18.6666 12Z" fill="#4A4A4A"/>
<path d="M18.3333 15H5.66666C5.29813 15 5 15.1954 5 15.4364C5 15.6773 5.29813 15.8727 5.66666 15.8727H18.3333C18.7018 15.8727 19 15.6773 19 15.4364C19 15.1954 18.7018 15 18.3333 15Z" fill="#4A4A4A"/>
<path d="M18.3333 18H5.66666C5.29813 18 5 18.1954 5 18.4364C5 18.6773 5.29813 18.8727 5.66666 18.8727H18.3333C18.7018 18.8727 19 18.6773 19 18.4364C19 18.1954 18.7018 18 18.3333 18Z" fill="#4A4A4A"/>
</svg>
