<svg width="24" height="24" viewBox="0 0 24 24" fill="none" xmlns="http://www.w3.org/2000/svg">
<path fill-rule="evenodd" clip-rule="evenodd" d="M19.8768 4.69463C19.8766 4.68951 19.8764 4.68438 19.8761 4.67925C19.8746 4.65893 19.8726 4.63897 19.8686 4.61919C19.8686 4.61919 19.8686 4.61919 19.8686 4.61901C19.8645 4.59923 19.8589 4.57964 19.8524 4.5606C19.8508 4.55584 19.8492 4.55108 19.8473 4.54632C19.8405 4.52819 19.8329 4.51043 19.8241 4.49322C19.8235 4.4923 19.8232 4.49139 19.8226 4.49047C19.8131 4.47253 19.8021 4.4555 19.7902 4.43883C19.7873 4.43462 19.7841 4.43059 19.781 4.42638C19.7684 4.4099 19.7552 4.39397 19.7404 4.37914L15.4986 0.137329C15.4837 0.122497 15.4678 0.109314 15.4513 0.0966795C15.4471 0.0935667 15.4429 0.0902708 15.4387 0.0873411C15.422 0.0754393 15.4052 0.064453 15.3874 0.0551146C15.3861 0.0543822 15.3849 0.054016 15.3838 0.0532836C15.3669 0.0444946 15.3493 0.0369872 15.3316 0.0302123C15.3266 0.0283813 15.3219 0.0267333 15.3168 0.0250854C15.2977 0.0186767 15.2785 0.0130005 15.2585 0.00897214C15.2583 0.00897214 15.2582 0.00897214 15.2582 0.00897214C15.2386 0.00512694 15.2186 0.00292968 15.1985 0.00146484C15.1933 0.00128174 15.1882 0.000915523 15.1831 0.000732421C15.1778 0.000549318 15.1725 0 15.1672 0H4.54687C4.28796 0 4.07812 0.209838 4.07812 0.468749V20.5323C4.07812 20.7912 4.28796 21.0011 4.54687 21.0011H11.6041V23.5312C11.6041 23.7017 11.6968 23.8588 11.846 23.9414C11.9954 24.0239 12.1776 24.019 12.3221 23.9284L14.1073 22.8083L15.8926 23.9284C15.9686 23.976 16.0552 24 16.1418 24C16.2198 24 16.298 23.9805 16.3687 23.9415C16.5179 23.859 16.6106 23.7019 16.6106 23.5312V21.0011H19.4088C19.6677 21.0011 19.8775 20.7912 19.8775 20.5323V4.71056C19.8775 4.70525 19.877 4.69994 19.8768 4.69463ZM15.6359 1.60052L18.2772 4.24181H15.6359V1.60052ZM11.3728 14.4783C11.3399 14.3888 11.2862 14.2425 11.285 14.1826C11.3216 14.1372 11.4487 14.0568 11.5265 14.0077C11.6935 13.9023 11.8828 13.7825 12.0201 13.5954C12.1587 13.4062 12.2151 13.1878 12.2649 12.9952C12.2867 12.9109 12.3219 12.7749 12.3519 12.7234C12.3684 12.7199 12.403 12.715 12.468 12.715C12.5202 12.715 12.5786 12.7179 12.6405 12.721C12.7115 12.7245 12.7848 12.7282 12.8613 12.7282C13.0301 12.7282 13.1664 12.7091 13.29 12.6679C13.5058 12.5962 13.6785 12.4572 13.8309 12.3345C13.9151 12.2668 14.0561 12.1532 14.1051 12.1463C14.1588 12.1532 14.2996 12.2668 14.3838 12.3345C14.5362 12.4572 14.709 12.5962 14.9249 12.6679C15.0485 12.7091 15.1845 12.7282 15.3536 12.7282C15.4299 12.7282 15.5033 12.7245 15.5742 12.721C15.6361 12.7179 15.6945 12.715 15.7469 12.715C15.8119 12.715 15.8463 12.7198 15.863 12.7234C15.893 12.7749 15.9281 12.9109 15.9497 12.9952C15.9996 13.1878 16.0561 13.4062 16.1947 13.5954C16.3319 13.7825 16.5212 13.9021 16.6884 14.0077C16.766 14.057 16.8931 14.1372 16.9297 14.1826C16.9284 14.2425 16.8748 14.3888 16.842 14.4783C16.7723 14.6682 16.6933 14.8835 16.6933 15.1221C16.6933 15.3607 16.7723 15.576 16.8418 15.7661C16.8748 15.8556 16.9284 16.0019 16.9297 16.0618C16.8931 16.1072 16.766 16.1874 16.6884 16.2367C16.5212 16.3421 16.3319 16.4619 16.1947 16.649C16.0561 16.8382 15.9996 17.0566 15.9497 17.2492C15.9281 17.3333 15.8928 17.4695 15.863 17.521C15.8463 17.5244 15.8119 17.5294 15.7469 17.5294C15.6945 17.5294 15.6361 17.5265 15.5742 17.5233C15.5033 17.5199 15.4299 17.5162 15.3536 17.5162C15.1845 17.5162 15.0485 17.5352 14.9249 17.5764C14.709 17.6482 14.5362 17.7874 14.3838 17.9099C14.3009 17.9769 14.1625 18.088 14.1073 18.0979C14.0522 18.088 13.914 17.9769 13.831 17.9099C13.6785 17.7874 13.5058 17.6482 13.29 17.5764C13.1664 17.5352 13.0301 17.5162 12.8613 17.5162C12.785 17.5162 12.7115 17.5199 12.6405 17.5233C12.5788 17.5265 12.5204 17.5294 12.468 17.5294C12.403 17.5294 12.3686 17.5244 12.3519 17.521C12.3219 17.4695 12.2867 17.3335 12.2649 17.2492C12.2153 17.0566 12.1587 16.8382 12.0201 16.649C11.883 16.4619 11.6937 16.3421 11.5265 16.2367C11.4488 16.1876 11.3218 16.1072 11.2851 16.0618C11.2864 16.0021 11.3401 15.8556 11.3728 15.7661C11.4426 15.5762 11.5215 15.3609 11.5215 15.1223C11.5215 14.8835 11.4424 14.6682 11.3728 14.4783ZM15.6731 22.6838L14.3565 21.8578C14.2042 21.7624 14.0105 21.7624 13.8581 21.8578L12.5416 22.6838V18.4654C12.5914 18.464 12.6403 18.4621 12.6877 18.4597C12.7498 18.4564 12.8084 18.4535 12.8613 18.4535C12.9444 18.4535 12.98 18.4612 12.9937 18.4658C13.0495 18.4845 13.1568 18.5709 13.2431 18.6403C13.4619 18.8164 13.7342 19.0356 14.1073 19.0356C14.4805 19.0356 14.7528 18.8164 14.9716 18.6403C15.0578 18.5709 15.1651 18.4845 15.2208 18.466C15.2347 18.4614 15.2702 18.4537 15.3534 18.4537C15.4063 18.4537 15.4649 18.4566 15.527 18.4597C15.5744 18.4621 15.6233 18.4641 15.6729 18.4654V22.6838H15.6731ZM16.6106 20.0636V18.0877C16.7499 17.8983 16.8081 17.6742 16.8574 17.4838C16.8832 17.3838 16.9186 17.247 16.9508 17.2033C16.9828 17.1593 17.102 17.0841 17.189 17.0291C17.4197 16.8834 17.7068 16.7019 17.8209 16.3588C17.9337 16.0202 17.8163 15.7003 17.722 15.4433C17.6792 15.3266 17.6307 15.1942 17.6307 15.1221C17.6307 15.05 17.6792 14.9178 17.722 14.8011C17.8163 14.544 17.9337 14.224 17.8209 13.8854C17.7068 13.5425 17.4197 13.361 17.189 13.2152C17.102 13.1603 16.9828 13.0849 16.9508 13.0413C16.9186 12.9974 16.8832 12.8606 16.8574 12.7606C16.79 12.4997 16.7062 12.1748 16.419 11.9643C16.1905 11.7969 15.9259 11.7775 15.7467 11.7775C15.6709 11.7775 15.5976 11.7812 15.527 11.7848C15.4649 11.7879 15.4063 11.7909 15.3536 11.7909C15.2702 11.7909 15.2347 11.7832 15.221 11.7786C15.1653 11.7601 15.058 11.6737 14.9718 11.6041C14.7528 11.4281 14.4805 11.209 14.1073 11.209C13.7344 11.209 13.4619 11.4281 13.2431 11.6041C13.1568 11.6735 13.0495 11.7601 12.9939 11.7786C12.9801 11.7832 12.9444 11.7909 12.8613 11.7909C12.8086 11.7909 12.7498 11.7879 12.6877 11.7846C12.617 11.7812 12.544 11.7775 12.468 11.7775C12.2889 11.7775 12.0243 11.7969 11.796 11.9643C11.5087 12.1748 11.4247 12.4997 11.3573 12.7606C11.3315 12.8606 11.2961 12.9974 11.2641 13.0411C11.2319 13.0849 11.1127 13.1603 11.0257 13.2152C10.795 13.361 10.508 13.5425 10.3938 13.8854C10.281 14.2242 10.3984 14.544 10.4927 14.8011C10.5355 14.9178 10.584 15.05 10.584 15.1221C10.584 15.1942 10.5355 15.3266 10.4927 15.4433C10.3984 15.7003 10.281 16.0202 10.3938 16.359C10.508 16.7019 10.7952 16.8834 11.0257 17.0291C11.1128 17.0841 11.2319 17.1595 11.2641 17.2033C11.2961 17.247 11.3315 17.3838 11.3573 17.4838C11.4065 17.6742 11.465 17.8985 11.6043 18.0877V20.0636H5.01562V0.937498H14.6984V4.71056C14.6984 4.96947 14.9082 5.17931 15.1672 5.17931H18.94V20.0636H16.6106Z" fill="#4A4A4A"/>
<path fill-rule="evenodd" clip-rule="evenodd" d="M6.8374 5.17932H12.8766C13.1353 5.17932 13.3453 4.96948 13.3453 4.71057C13.3453 4.45166 13.1353 4.24182 12.8766 4.24182H6.8374C6.57849 4.24182 6.36865 4.45166 6.36865 4.71057C6.36865 4.96948 6.57867 5.17932 6.8374 5.17932Z" fill="#4A4A4A"/>
<path fill-rule="evenodd" clip-rule="evenodd" d="M17.1708 6.60791H6.8374C6.57849 6.60791 6.36865 6.81775 6.36865 7.07666C6.36865 7.33557 6.57849 7.54541 6.8374 7.54541H17.1708C17.4297 7.54541 17.6395 7.33557 17.6395 7.07666C17.6395 6.81775 17.4297 6.60791 17.1708 6.60791Z" fill="#4A4A4A"/>
<path fill-rule="evenodd" clip-rule="evenodd" d="M15.2958 8.974H6.8374C6.57849 8.974 6.36865 9.18402 6.36865 9.44275C6.36865 9.70166 6.57849 9.9115 6.8374 9.9115H15.2958C15.5547 9.9115 15.7645 9.70166 15.7645 9.44275C15.7645 9.18402 15.5547 8.974 15.2958 8.974Z" fill="#4A4A4A"/>
<path fill-rule="evenodd" clip-rule="evenodd" d="M17.1709 8.974C16.9127 8.974 16.7021 9.18457 16.7021 9.44275C16.7021 9.70093 16.9127 9.9115 17.1709 9.9115C17.4293 9.9115 17.6396 9.70093 17.6396 9.44275C17.6396 9.18457 17.4293 8.974 17.1709 8.974Z" fill="#4A4A4A"/>
</svg>
