<svg width="20" height="20" viewBox="0 0 20 20" fill="none" xmlns="http://www.w3.org/2000/svg">
<path d="M12.5 5.40674C12.5 4.91229 12.3534 4.42894 12.0787 4.01781C11.804 3.60669 11.4135 3.28626 10.9567 3.09704C10.4999 2.90782 9.99723 2.85831 9.51228 2.95478C9.02732 3.05124 8.58187 3.28934 8.23223 3.63897C7.8826 3.9886 7.6445 4.43406 7.54804 4.91901C7.45157 5.40397 7.50108 5.90663 7.6903 6.36345C7.87952 6.82026 8.19995 7.21071 8.61108 7.48541C9.0222 7.76012 9.50555 7.90674 10 7.90674C10.663 7.90674 11.2989 7.64335 11.7678 7.17451C12.2366 6.70567 12.5 6.06978 12.5 5.40674V5.40674ZM8.33333 5.40674C8.33333 5.0771 8.43108 4.75487 8.61422 4.48079C8.79735 4.20671 9.05765 3.99309 9.3622 3.86694C9.66674 3.74079 10.0019 3.70779 10.3252 3.7721C10.6485 3.83641 10.9454 3.99514 11.1785 4.22823C11.4116 4.46132 11.5703 4.75829 11.6346 5.08159C11.699 5.40489 11.6659 5.74 11.5398 6.04455C11.4137 6.34909 11.2 6.60939 10.926 6.79252C10.6519 6.97566 10.3296 7.07341 10 7.07341C9.55797 7.07341 9.13405 6.89781 8.82149 6.58525C8.50893 6.27269 8.33333 5.84877 8.33333 5.40674V5.40674Z" fill="#4A4A4A"/>
<path d="M11.7367 13.0349L14.2733 7.48406C14.6004 6.76819 14.7424 5.98164 14.6864 5.19659C14.6304 4.41153 14.378 3.65313 13.9526 2.99099C13.5271 2.32884 12.9422 1.78416 12.2514 1.40694C11.5607 1.02971 10.7862 0.832031 9.99917 0.832031C9.21212 0.832031 8.43767 1.02971 7.74691 1.40694C7.05615 1.78416 6.4712 2.32884 6.04575 2.99099C5.6203 3.65313 5.36797 4.41153 5.31193 5.19659C5.25589 5.98164 5.39792 6.76819 5.725 7.48406L8.2625 13.0341C5.5775 13.4066 3.75 14.6032 3.75 16.0416C3.75 17.7941 6.495 19.1666 10 19.1666C13.505 19.1666 16.25 17.7941 16.25 16.0416C16.25 14.6032 14.4217 13.4066 11.7367 13.0349ZM6.75 3.44323C7.27777 2.61986 8.09806 2.02719 9.04551 1.78468C9.99296 1.54216 10.9971 1.66785 11.8556 2.13639C12.714 2.60494 13.3629 3.3815 13.6715 4.30955C13.9801 5.23759 13.9253 6.2481 13.5183 7.13739L10 14.8332L6.48333 7.13823C6.21292 6.54973 6.09558 5.90245 6.1422 5.25648C6.18882 4.61052 6.39789 3.9868 6.75 3.44323V3.44323ZM10 18.3332C6.80833 18.3332 4.58333 17.1257 4.58333 16.0416C4.58333 15.0416 6.34083 14.1057 8.62917 13.8366L10 16.8332L11.37 13.8332C13.6592 14.1024 15.4167 15.0416 15.4167 16.0382C15.4167 17.1257 13.1917 18.3332 10 18.3332Z" fill="#4A4A4A"/>
</svg>
