<svg width="32" height="32" viewBox="0 0 32 32" fill="none" xmlns="http://www.w3.org/2000/svg">
<path d="M20 8.65064C20 7.85951 19.7654 7.08615 19.3259 6.42836C18.8864 5.77056 18.2616 5.25787 17.5307 4.95512C16.7998 4.65237 15.9956 4.57315 15.2196 4.7275C14.4437 4.88184 13.731 5.2628 13.1716 5.82221C12.6122 6.38162 12.2312 7.09435 12.0769 7.87028C11.9225 8.6462 12.0017 9.45047 12.3045 10.1814C12.6072 10.9123 13.1199 11.537 13.7777 11.9765C14.4355 12.416 15.2089 12.6506 16 12.6506C17.0609 12.6506 18.0783 12.2292 18.8284 11.4791C19.5786 10.7289 20 9.7115 20 8.65064V8.65064ZM13.3333 8.65064C13.3333 8.12322 13.4897 7.60765 13.7828 7.16912C14.0758 6.73059 14.4922 6.38879 14.9795 6.18696C15.4668 5.98512 16.003 5.93232 16.5202 6.03521C17.0375 6.1381 17.5127 6.39208 17.8856 6.76502C18.2586 7.13796 18.5125 7.61311 18.6154 8.1304C18.7183 8.64768 18.6655 9.18386 18.4637 9.67113C18.2618 10.1584 17.9201 10.5749 17.4815 10.8679C17.043 11.1609 16.5274 11.3173 16 11.3173C15.2928 11.3173 14.6145 11.0364 14.1144 10.5363C13.6143 10.0362 13.3333 9.35788 13.3333 8.65064V8.65064Z" fill="#4A4A4A"/>
<path d="M18.7787 20.856L22.8373 11.9747C23.3607 10.8293 23.5879 9.57079 23.4982 8.31471C23.4086 7.05863 23.0049 5.84518 22.3241 4.78575C21.6434 3.72632 20.7075 2.85483 19.6023 2.25127C18.4971 1.64771 17.2579 1.33142 15.9987 1.33142C14.7394 1.33142 13.5003 1.64771 12.3951 2.25127C11.2898 2.85483 10.3539 3.72632 9.6732 4.78575C8.99248 5.84518 8.58875 7.05863 8.49909 8.31471C8.40942 9.57079 8.63667 10.8293 9.16 11.9747L13.22 20.8547C8.924 21.4507 6 23.3653 6 25.6667C6 28.4707 10.392 30.6667 16 30.6667C21.608 30.6667 26 28.4707 26 25.6667C26 23.3653 23.0747 21.4507 18.7787 20.856ZM10.8 5.50933C11.6444 4.19195 12.9569 3.24367 14.4728 2.85565C15.9887 2.46763 17.5954 2.66873 18.9689 3.4184C20.3425 4.16807 21.3807 5.41058 21.8744 6.89545C22.3681 8.38032 22.2805 9.99714 21.6293 11.42L16 23.7333L10.3733 11.4213C9.94068 10.4797 9.75293 9.4441 9.82752 8.41055C9.90212 7.377 10.2366 6.37904 10.8 5.50933V5.50933ZM16 29.3333C10.8933 29.3333 7.33333 27.4013 7.33333 25.6667C7.33333 24.0667 10.1453 22.5693 13.8067 22.1387L16 26.9333L18.192 22.1333C21.8547 22.564 24.6667 24.0667 24.6667 25.6613C24.6667 27.4013 21.1067 29.3333 16 29.3333Z" fill="#4A4A4A"/>
</svg>
