<svg width="32" height="32" viewBox="0 0 32 32" fill="none" xmlns="http://www.w3.org/2000/svg">
<path d="M10.5383 8.59656C8.66873 8.59656 7.14746 10.1177 7.14746 11.9873C7.14746 13.857 8.66873 15.3782 10.5383 15.3782C12.4081 15.3782 13.9292 13.8569 13.9292 11.9873C13.9292 10.1177 12.4079 8.59656 10.5383 8.59656ZM10.5383 14.3348C9.24409 14.3348 8.19086 13.2815 8.19086 11.9871C8.19086 10.6929 9.24409 9.63966 10.5383 9.63966C11.8326 9.63966 12.886 10.6929 12.886 11.9871C12.8858 13.2815 11.833 14.3348 10.5383 14.3348Z" fill="#4A4A4A"/>
<path d="M10.5383 10.5344C9.73753 10.5344 9.08594 11.186 9.08594 11.9869C9.08594 12.7876 9.73753 13.439 10.5383 13.439C11.3389 13.439 11.9905 12.7878 11.9905 11.9869C11.9903 11.186 11.3387 10.5344 10.5383 10.5344ZM10.5383 12.3964C10.3123 12.3964 10.1292 12.2128 10.1292 11.9873C10.1292 11.7619 10.3129 11.5782 10.5383 11.5782C10.7635 11.5782 10.9472 11.7618 10.9472 11.9873C10.9471 12.2128 10.7643 12.3964 10.5383 12.3964Z" fill="#4A4A4A"/>
<path d="M31.9789 17.8355C31.936 17.6939 31.8383 17.5853 31.716 17.5232C31.7103 17.5087 31.7076 17.4925 31.7015 17.4778C30.779 15.1626 28.0763 14.3849 27.9613 14.3537C27.948 14.3494 27.9328 14.3526 27.9196 14.3498C28.4004 13.4672 28.6776 12.6085 28.752 11.7796C28.7683 11.7234 28.7724 11.6653 28.7683 11.6049C28.8028 10.9574 28.7172 10.3271 28.5003 9.71991C27.4681 6.83414 23.9524 5.54927 23.8037 5.49613C23.7308 5.46993 23.6523 5.4604 23.576 5.46784L10.4861 6.77221C10.4861 6.77221 10.4861 6.77221 10.4857 6.77221C7.63386 6.80094 5.32167 9.12817 5.32167 11.9863C5.32167 14.8628 7.66185 17.2033 10.5384 17.2033C10.7063 17.2033 10.8722 17.1931 11.0362 17.1772C10.5311 17.6852 10.1342 18.297 9.87162 18.9751C9.01147 17.2729 7.25083 16.1008 5.21687 16.1008C2.34018 16.1009 0 18.4411 0 21.3176C0 22.8423 0.662008 24.2128 1.70839 25.1675C1.71122 25.169 1.71226 25.1719 1.71479 25.174C1.71583 25.1751 1.71732 25.1751 1.71836 25.1761C1.95581 25.3915 2.21305 25.5852 2.48741 25.7549C2.50244 25.7661 2.51926 25.7738 2.53534 25.7839C3.32061 26.2567 4.23614 26.5344 5.21732 26.5344C7.43036 26.5344 9.32141 25.146 10.0777 23.1969C10.9381 24.8995 12.6987 26.0718 14.7327 26.0718C15.2256 26.0718 15.7015 25.998 16.1541 25.8697C16.1554 25.8691 16.1565 25.8691 16.1574 25.8691L30.4883 22.9306C30.6309 22.9017 30.7558 22.8134 30.8307 22.6881C31.8087 21.058 32.167 19.574 31.9189 18.2574C31.994 18.1361 32.0237 17.9853 31.9789 17.8355ZM30.9131 19.6149C30.8071 19.5844 30.693 19.5793 30.5825 19.6226C28.3312 20.508 25.622 21.5997 25.0116 21.9581C24.5449 22.0584 22.0416 21.9625 20.8265 21.9152C20.4282 21.8999 20.1062 21.8872 19.847 21.8796C19.9127 21.5484 19.9488 21.2066 19.9488 20.8566C19.9488 20.7369 19.9387 20.6212 19.9311 20.5036C21.8114 19.9621 23.9507 19.5382 24.3547 19.7257C25.1045 20.2263 28.207 19.4887 30.9326 18.6928C30.9649 18.9867 30.9579 19.2945 30.9131 19.6149ZM17.0796 20.856C17.0796 22.15 16.0263 23.2036 14.7321 23.2036C13.4379 23.2036 12.3846 22.1501 12.3846 20.856C12.3846 19.5615 13.4379 18.5084 14.7321 18.5084C15.0325 18.5084 15.3185 18.5706 15.5829 18.6733L15.1442 19.4698C15.0124 19.4305 14.8759 19.4031 14.732 19.4031C13.9306 19.4031 13.279 20.0547 13.279 20.8554C13.279 21.6563 13.9306 22.3075 14.732 22.3075C15.5321 22.3075 16.1839 21.6563 16.1839 20.8554C16.1839 20.7576 16.1731 20.6634 16.1551 20.5712L16.9012 19.9655C17.0148 20.2406 17.0796 20.5407 17.0796 20.856ZM14.6327 21.2451C14.4558 21.1987 14.3224 21.046 14.3224 20.856C14.3224 20.6802 14.435 20.533 14.5911 20.4754L14.5201 20.6043C14.4022 20.8177 14.4509 21.0832 14.6327 21.2451ZM17.1163 18.4482C17.0695 18.4019 17.0196 18.3591 16.9711 18.3153L17.3568 17.6149C17.4861 17.7197 17.6088 17.8345 17.7257 17.9536L17.1163 18.4482ZM26.7337 8.73784C24.1559 9.49393 21.2286 10.1595 20.7395 9.98772C19.9534 9.46446 17.3374 10.0858 15.5616 10.5985C15.469 10.2636 15.3445 9.94336 15.1906 9.63923H18.9121C18.9534 9.63923 18.9947 9.63387 19.0349 9.62464L22.2836 8.83788L25.839 7.86117C26.1549 8.11752 26.4605 8.40929 26.7337 8.73784ZM27.5197 10.0759C27.6516 10.4467 27.7158 10.8328 27.7261 11.2303C22.2746 12.5429 21.1174 12.9383 20.8246 13.088C20.3728 13.1915 17.8552 13.0944 16.6334 13.0463C16.2351 13.0308 15.9132 13.0188 15.6539 13.0105C15.7203 12.6792 15.7559 12.3379 15.7559 11.9874C15.7559 11.8681 15.7454 11.7521 15.738 11.6346C17.6179 11.0923 19.758 10.6688 20.161 10.8565C20.9669 11.3942 24.4842 10.5047 27.336 9.64786C27.4039 9.78571 27.4672 9.92833 27.5197 10.0759ZM15.331 14.0448C15.6412 14.0521 16.1061 14.0699 16.5926 14.0885C18.1219 14.1481 19.1399 14.1761 19.8308 14.1761C20.8944 14.1761 21.1807 14.1088 21.3529 13.9837C21.7824 13.7892 24.7438 13.027 27.6089 12.3327C27.4856 12.851 27.2726 13.3871 26.964 13.9388L14.2538 15.6426C14.7049 15.1842 15.0727 14.6431 15.331 14.0448ZM29.99 16.7416C30.2487 17.0106 30.479 17.3239 30.6507 17.6868C28.1436 18.4092 25.4051 19.0215 24.9332 18.8569C24.1472 18.3336 21.5311 18.9547 19.7553 19.4677C19.6626 19.1326 19.5383 18.8127 19.3845 18.5085H23.1054C23.1466 18.5085 23.188 18.5029 23.2276 18.4936L26.4774 17.7072L29.99 16.7416ZM19.525 22.913C19.8348 22.9208 20.2999 22.938 20.7865 22.957C22.3448 23.0174 23.3733 23.0455 24.0627 23.0455C24.3923 23.0455 24.6378 23.0384 24.8336 23.0262L18.6449 24.2951C19.0053 23.8851 19.3048 23.4216 19.525 22.913ZM28.9679 15.9413L26.2165 16.6968L23.0433 17.465H18.6885C18.335 17.0534 17.9181 16.6992 17.4535 16.4135L27.7677 15.3861C27.9583 15.448 28.4372 15.6229 28.9679 15.9413ZM24.7106 7.09019L22.0227 7.82842L18.8503 8.59642H14.4947C14.141 8.18465 13.7241 7.83035 13.2598 7.54512L23.5557 6.51914C23.7472 6.59685 24.1873 6.78769 24.7106 7.09019ZM6.36493 11.9873C6.36493 9.68612 8.23722 7.81398 10.5382 7.81398C12.8393 7.81398 14.7117 9.68627 14.7117 11.9873C14.7117 14.2885 12.8393 16.1609 10.5382 16.1609C8.23722 16.1609 6.36493 14.2885 6.36493 11.9873ZM4.96171 21.0068C5.00399 20.9723 5.05297 20.9477 5.10716 20.9319L4.96171 21.0068ZM4.9763 22.7471C5.05446 22.7597 5.1344 22.7715 5.21672 22.7715C6.01703 22.7715 6.66861 22.1199 6.66861 21.319C6.66861 20.5181 6.01703 19.8665 5.21672 19.8665C4.41537 19.8665 3.76379 20.5181 3.76379 21.319C3.76379 21.4174 3.77421 21.5137 3.79311 21.6069L2.98819 22.0195C2.91778 21.7968 2.86925 21.5645 2.86925 21.319C2.86925 20.0246 3.92248 18.9714 5.21687 18.9714C6.51111 18.9714 7.56434 20.0244 7.56434 21.319C7.56434 22.6135 6.51111 23.6666 5.21687 23.6666C4.86153 23.6666 4.52881 23.5816 4.22676 23.44L4.9763 22.7471ZM5.21672 25.492C4.5626 25.492 3.94496 25.3366 3.39341 25.0667L3.56356 24.2759C4.05288 24.551 4.61679 24.7094 5.21672 24.7094C7.08633 24.7094 8.6076 23.1881 8.6076 21.3187C8.6076 19.4489 7.08633 17.9278 5.21672 17.9278C3.34696 17.9278 1.82585 19.4491 1.82585 21.3187C1.82585 22.0197 2.03977 22.6713 2.40538 23.2129L2.32559 23.4884L1.98067 23.949C1.39532 23.2307 1.04325 22.3152 1.04325 21.3188C1.04325 19.0177 2.91555 17.1454 5.21672 17.1454C7.5179 17.1454 9.39004 19.0177 9.39004 21.3188C9.39004 23.6197 7.51775 25.492 5.21672 25.492ZM10.5588 20.856C10.5588 18.5548 12.4309 16.6827 14.7321 16.6827C15.3518 16.6827 15.9387 16.8223 16.4683 17.0651L16.0907 17.7508C15.6741 17.5675 15.2146 17.4645 14.7323 17.4645C12.8626 17.4645 11.3414 18.9858 11.3414 20.8553C11.3414 22.725 12.8626 24.2461 14.7323 24.2461C16.6019 24.2461 18.1231 22.7249 18.1231 20.8553C18.1231 20.2897 17.9816 19.7574 17.7364 19.2887L18.3534 18.7885C18.703 19.3991 18.9062 20.1035 18.9062 20.8554C18.9062 23.1566 17.034 25.0287 14.7329 25.0287C12.4317 25.0287 10.5588 23.1572 10.5588 20.856ZM30.0491 21.9564L25.4884 22.8912C25.5169 22.8749 25.5425 22.8571 25.5644 22.8373C25.8695 22.6385 28.6006 21.5269 30.6283 20.7256C30.4841 21.1204 30.2927 21.5304 30.0491 21.9564Z" fill="#4A4A4A"/>
</svg>
