<svg width="8" height="8" viewBox="0 0 8 8" fill="none" xmlns="http://www.w3.org/2000/svg">
<path d="M7.63636 2.90927H5.09091H4.6614C4.4 2.90918 4.60082 2.90918 4.4 2.90918L3.70524 2.90927C3.50441 2.90927 3.46875 2.90937 3.27273 2.90927H2.90909H0.363636C0.162812 2.90927 0 3.07208 0 3.2729V4.72745C0 4.92827 0.162812 5.09108 0.363636 5.09108H2.90909H3.2C3.48024 5.09108 3.61608 5.09108 3.8169 5.09108H4.43526C4.63609 5.09108 4.43526 5.09108 4.8 5.09108H5.09091H7.63636C7.83719 5.09108 8 4.92827 8 4.72745V3.2729C8 3.07208 7.83719 2.90927 7.63636 2.90927Z" fill="#4A90E2"/>
</svg>
