<svg width="22" height="23" viewBox="0 0 22 23" fill="none" xmlns="http://www.w3.org/2000/svg">
<path d="M18.3169 5.33642C17.3618 5.12705 16.0963 5.01172 14.7536 5.01172C12.9018 5.01172 10.7717 5.25258 9.92039 5.78635C9.02463 5.27747 8.01246 5.01055 6.98296 5.01172C3.68394 5.01172 1 7.7033 1 11.0117C1 14.3201 3.68394 17.0117 6.98296 17.0117C8.01239 17.0129 9.02449 16.746 9.9202 16.2372C10.7716 16.7709 12.9019 17.0117 14.7536 17.0117C16.0964 17.0117 17.3618 16.8963 18.3169 16.687C19.4494 16.4387 20 16.0925 20 15.6288V6.3946C20 5.93086 19.4494 5.58472 18.3169 5.33642ZM19.4062 12.5398C19.3847 12.5735 19.1862 12.8278 18.0433 13.0581C17.1467 13.2387 15.9784 13.3382 14.7536 13.3382C14.0158 13.3399 13.2785 13.3013 12.545 13.2224C12.8238 12.5189 12.9666 11.7687 12.9659 11.0117C12.9659 10.935 12.964 10.8588 12.9611 10.7828C13.5322 10.8309 14.1332 10.8555 14.7535 10.8555C16.0963 10.8555 17.3617 10.7402 18.3168 10.5308C18.7742 10.4305 19.1373 10.3139 19.4062 10.1808L19.4062 12.5398ZM19.4062 9.46167C19.3847 9.49535 19.1862 9.74968 18.0433 9.97997C17.1467 10.1606 15.9784 10.2601 14.7536 10.2601C14.1124 10.2601 13.493 10.2334 12.9082 10.1809C12.7783 9.24553 12.4288 8.35447 11.8885 7.58101C12.7244 7.70877 13.7124 7.77743 14.7536 7.77743C16.0964 7.77743 17.3618 7.66207 18.3169 7.45273C18.7743 7.35245 19.1374 7.23577 19.4062 7.10269V9.46167ZM14.7536 5.60716C15.9784 5.60716 17.1467 5.70664 18.0433 5.88728C19.102 6.1006 19.3502 6.33449 19.3982 6.3946C19.3503 6.45466 19.1022 6.6886 18.0433 6.90187C17.1467 7.08252 15.9784 7.18199 14.7536 7.18199C13.4605 7.18199 12.2112 7.06811 11.3066 6.86868C11.0582 6.60826 10.7871 6.37061 10.4965 6.15858C11.2118 5.86529 12.747 5.60716 14.7536 5.60716ZM1.59375 11.0117C1.59375 8.03165 4.01131 5.60716 6.98296 5.60716C9.9546 5.60716 12.3721 8.03165 12.3721 11.0117C12.3721 13.9918 9.95449 16.4163 6.98296 16.4163C4.01143 16.4163 1.59375 13.9918 1.59375 11.0117ZM18.0433 16.1362C17.1467 16.3168 15.9784 16.4163 14.7536 16.4163C12.7471 16.4163 11.2118 16.1583 10.4964 15.865C11.2428 15.3202 11.8544 14.6107 12.2839 13.7912C13.1035 13.8885 13.9282 13.9361 14.7536 13.9337C16.0963 13.9337 17.3618 13.8183 18.3169 13.609C18.7743 13.5087 19.1374 13.392 19.4062 13.2589V15.6178C19.3845 15.6518 19.1855 15.906 18.0433 16.1362ZM8.20738 8.17281H5.996C5.91726 8.17281 5.84175 8.20417 5.78608 8.26001C5.7304 8.31584 5.69912 8.39157 5.69912 8.47053V10.8815H4.76445C4.68571 10.8815 4.6102 10.9128 4.55453 10.9687C4.49885 11.0245 4.46757 11.1002 4.46757 11.1792C4.46757 11.2581 4.49885 11.3339 4.55453 11.3897C4.6102 11.4455 4.68571 11.4769 4.76445 11.4769H5.69912V12.0043H4.76445C4.68571 12.0043 4.6102 12.0356 4.55453 12.0915C4.49885 12.1473 4.46757 12.223 4.46757 12.302C4.46757 12.381 4.49885 12.4567 4.55453 12.5125C4.6102 12.5684 4.68571 12.5997 4.76445 12.5997H5.69912V13.5528C5.69912 13.6318 5.7304 13.7075 5.78608 13.7634C5.84175 13.8192 5.91726 13.8506 5.996 13.8506C6.07473 13.8506 6.15025 13.8192 6.20592 13.7634C6.2616 13.7075 6.29287 13.6318 6.29287 13.5528V12.5998H9.20143C9.28017 12.5998 9.35568 12.5684 9.41135 12.5126C9.46703 12.4568 9.49831 12.381 9.49831 12.3021C9.49831 12.2231 9.46703 12.1474 9.41135 12.0916C9.35568 12.0357 9.28017 12.0044 9.20143 12.0044H6.29287V11.4769H8.20738C8.91918 11.4769 9.49831 10.7852 9.49831 9.93486V9.71474C9.49831 8.86441 8.91914 8.17281 8.20738 8.17281ZM8.90456 9.93494C8.90456 10.4481 8.58542 10.8815 8.20738 10.8815H6.29287V8.76825H8.20738C8.58527 8.76825 8.90456 9.20173 8.90456 9.71481V9.93494Z" fill="#4A4A4A"/>
</svg>
