<svg width="56" height="48" viewBox="0 0 56 48" fill="none" xmlns="http://www.w3.org/2000/svg">
<g clip-path="url(#clip0_339_356)">
<path d="M52.5 5.12115L50.0253 3L3.5 42.8788L5.97467 45L9.47468 42H45.5C46.4279 41.9989 47.3174 41.6825 47.9735 41.1201C48.6296 40.5578 48.9987 39.7953 49 39V8.12115L52.5 5.12115ZM45.5 39H12.9747L26.6122 27.3105L30.7752 30.8785C31.4315 31.4411 32.3218 31.7572 33.25 31.7572C34.1782 31.7572 35.0685 31.4411 35.7248 30.8785L38.5 28.5L45.5 34.4959V39ZM45.5 30.2523L40.9748 26.3735C40.3185 25.8109 39.4282 25.4948 38.5 25.4948C37.5718 25.4948 36.6815 25.8109 36.0252 26.3735L33.25 28.7523L29.0902 25.1866L45.5 11.1212V30.2523Z" fill="#4A90E2"/>
<path d="M23.3628 20.9411L21.6533 22.4065L19.5754 20.6255L19.2501 20.3467L18.9247 20.6254L10.1747 28.1203L10 28.2699V28.5V32.5H7.5V9.00032C7.50082 8.36444 7.79529 7.73598 8.35155 7.25919C8.9102 6.78034 9.68203 6.50075 10.5002 6.5H38V8.5H10.5H10V9V24.2574V25.3445L10.8254 24.637L17.1005 19.2582C17.1005 19.2582 17.1005 19.2582 17.1006 19.2582C17.6593 18.7792 18.4316 18.4999 19.25 18.4999C20.0684 18.4999 20.8407 18.7792 21.3995 19.2582L23.3628 20.9411Z" fill="#4A90E2" stroke="#4A90E2"/>
</g>
<defs>
<clipPath id="clip0_339_356">
<rect width="56" height="48" fill="white"/>
</clipPath>
</defs>
</svg>
