<svg width="24" height="24" viewBox="0 0 24 24" fill="none" xmlns="http://www.w3.org/2000/svg">
<path d="M14.2233 4.85216V0.0473633H4.0144C3.4655 0.0473633 3.02051 0.492359 3.02051 1.04126V23.0061C3.02051 23.555 3.4655 24 4.0144 24H19.9166C20.4655 24 20.9105 23.555 20.9105 23.0061V6.70971H16.0808C15.0566 6.70971 14.2233 5.87642 14.2233 4.85216V4.85216ZM10.2097 18.8325L8.0952 20.947C7.95817 21.084 7.77857 21.1526 7.59902 21.1526C7.41947 21.1526 7.23983 21.0841 7.10285 20.947L6.22502 20.0693C5.95097 19.7952 5.95097 19.3509 6.22502 19.0769C6.49902 18.8028 6.94336 18.8028 7.21742 19.0769L7.59902 19.4585L9.21732 17.8402C9.49133 17.5661 9.93567 17.5661 10.2097 17.8402C10.4838 18.1142 10.4838 18.5585 10.2097 18.8325ZM10.2097 14.1543L8.0952 16.2687C7.95817 16.4058 7.77857 16.4743 7.59902 16.4743C7.41947 16.4743 7.23983 16.4058 7.10285 16.2688L6.22502 15.391C5.95097 15.117 5.95097 14.6727 6.22502 14.3986C6.49902 14.1246 6.94336 14.1246 7.21742 14.3986L7.59902 14.7802L9.21732 13.1619C9.49133 12.8879 9.93567 12.8879 10.2097 13.1619C10.4838 13.4359 10.4838 13.8802 10.2097 14.1543ZM10.2097 9.11873L8.0952 11.2332C7.95817 11.3702 7.77857 11.4388 7.59902 11.4388C7.41947 11.4388 7.23983 11.3703 7.10285 11.2332L6.22502 10.3554C5.95097 10.0813 5.95097 9.63703 6.22502 9.36298C6.49902 9.08893 6.94336 9.08893 7.21742 9.36298L7.59902 9.74459L9.21732 8.12633C9.49133 7.85228 9.93567 7.85228 10.2097 8.12633C10.4838 8.40038 10.4838 8.84468 10.2097 9.11873ZM17.2098 20.0953H12.7187C12.3311 20.0953 12.0169 19.7811 12.0169 19.3936C12.0169 19.006 12.3311 18.6918 12.7187 18.6918H17.2098C17.5973 18.6918 17.9115 19.006 17.9115 19.3936C17.9115 19.7811 17.5973 20.0953 17.2098 20.0953ZM12.0169 14.7153C12.0169 14.3278 12.3311 14.0136 12.7187 14.0136H17.1897C17.5773 14.0136 17.8915 14.3278 17.8915 14.7153C17.8915 15.1029 17.5773 15.4171 17.1897 15.4171H12.7187C12.3311 15.4171 12.0169 15.1029 12.0169 14.7153ZM17.8915 10.0371C17.8915 10.4246 17.5773 10.7388 17.1898 10.7388H12.7187C12.3312 10.7388 12.017 10.4246 12.017 10.0371C12.017 9.64952 12.3312 9.33533 12.7187 9.33533H17.1898C17.5773 9.33533 17.8915 9.64952 17.8915 10.0371Z" fill="#707070"/>
<path d="M15.627 4.85214C15.627 5.10252 15.8306 5.30621 16.081 5.30621H20.9789L15.627 0V4.85214Z" fill="#707070"/>
</svg>
