<svg width="32" height="32" viewBox="0 0 32 32" fill="none" xmlns="http://www.w3.org/2000/svg">
<path d="M27.2025 1.86794H20.8337C20.4624 0.78275 19.4331 0 18.2237 0H13.7402C12.5309 0 11.5016 0.78275 11.1303 1.86794H4.79736C4.27961 1.86794 3.85986 2.28769 3.85986 2.80544V31.0625C3.85986 31.5803 4.27961 32 4.79736 32H27.2025C27.7202 32 28.14 31.5803 28.14 31.0625V2.80544C28.14 2.28769 27.7202 1.86794 27.2025 1.86794ZM13.7402 1.875H18.2237C18.7107 1.875 19.107 2.27125 19.107 2.75825C19.107 3.24525 18.7107 3.6415 18.2237 3.6415H13.7402C13.2532 3.6415 12.857 3.24525 12.857 2.75825C12.857 2.27125 13.2532 1.875 13.7402 1.875ZM26.265 30.125H5.73486V3.74294H11.1644C11.5617 4.77881 12.5662 5.5165 13.7402 5.5165H18.2237C19.3977 5.5165 20.4022 4.77888 20.7996 3.74294H26.265V30.125Z" fill="#4A90E2"/>
<path d="M12.6869 22.5411C12.2308 22.2966 11.6624 22.4679 11.4176 22.9242L10.0647 25.4465L9.13812 24.5209C8.77187 24.1551 8.17824 24.1553 7.8123 24.5217C7.44643 24.888 7.44668 25.4816 7.81305 25.8475L9.63205 27.6645C9.80912 27.8414 10.0479 27.9388 10.2946 27.9388C10.3401 27.9388 10.386 27.9354 10.4317 27.9287C10.7251 27.8853 10.9806 27.7058 11.1207 27.4444L13.0699 23.8104C13.3147 23.3542 13.1432 22.7859 12.6869 22.5411Z" fill="#4A90E2"/>
<path d="M23.4196 15.1808H8.47559C7.95784 15.1808 7.53809 15.6005 7.53809 16.1183C7.53809 16.636 7.95784 17.0558 8.47559 17.0558H23.4196C23.9373 17.0558 24.3571 16.636 24.3571 16.1183C24.3571 15.6005 23.9374 15.1808 23.4196 15.1808Z" fill="#4A90E2"/>
<path d="M23.4194 18.9268H16.4194C15.9017 18.9268 15.4819 19.3465 15.4819 19.8643C15.4819 20.382 15.9017 20.8018 16.4194 20.8018H23.4194C23.9371 20.8018 24.3569 20.382 24.3569 19.8643C24.3569 19.3465 23.9371 18.9268 23.4194 18.9268Z" fill="#4A90E2"/>
<path d="M23.4194 22.677H16.4194C15.9017 22.677 15.4819 23.0968 15.4819 23.6145C15.4819 24.1323 15.9017 24.552 16.4194 24.552H23.4194C23.9371 24.552 24.3569 24.1323 24.3569 23.6145C24.3569 23.0968 23.9371 22.677 23.4194 22.677Z" fill="#4A90E2"/>
<path d="M23.4194 26.4274H16.4194C15.9017 26.4274 15.4819 26.8471 15.4819 27.3649C15.4819 27.8826 15.9017 28.3024 16.4194 28.3024H23.4194C23.9371 28.3024 24.3569 27.8826 24.3569 27.3649C24.3569 26.8471 23.9371 26.4274 23.4194 26.4274Z" fill="#4A90E2"/>
<path d="M8.47559 7.6825C7.95784 7.6825 7.53809 8.10225 7.53809 8.62C7.53809 9.13775 7.95784 9.5575 8.47559 9.5575H23.4196C23.9373 9.5575 24.3571 9.13775 24.3571 8.62C24.3571 8.10225 23.9373 7.6825 23.4196 7.6825H8.47559Z" fill="#4A90E2"/>
<path d="M23.4196 11.4305H8.47559C7.95784 11.4305 7.53809 11.8503 7.53809 12.368C7.53809 12.8858 7.95784 13.3055 8.47559 13.3055H23.4196C23.9373 13.3055 24.3571 12.8858 24.3571 12.368C24.3571 11.8503 23.9374 11.4305 23.4196 11.4305Z" fill="#4A90E2"/>
</svg>
