<svg width="24" height="24" viewBox="0 0 24 24" fill="none" xmlns="http://www.w3.org/2000/svg">
<path d="M14.9235 13.8424C15.1375 13.8424 15.311 14.0159 15.311 14.23C15.311 14.444 15.1375 14.6175 14.9235 14.6175H11.5892C11.3752 14.6175 11.2017 14.444 11.2017 14.23C11.2017 14.0159 11.3752 13.8424 11.5892 13.8424H14.9235ZM17.0745 12.4835C17.0745 12.2695 16.901 12.096 16.687 12.096H11.5892C11.3752 12.096 11.2017 12.2695 11.2017 12.4835C11.2017 12.6975 11.3752 12.871 11.5892 12.871H16.687C16.901 12.871 17.0745 12.6975 17.0745 12.4835ZM8.70302 3.60874V1.89184C8.70302 1.67781 8.87652 1.50431 9.09055 1.50431L10.4964 1.50348C10.4964 0.674514 11.1709 0 12 0C12.8291 0 13.5036 0.674514 13.5036 1.50348V1.50431H14.9094C15.1234 1.50431 15.2969 1.67781 15.2969 1.89184V3.60874C15.2969 3.82276 15.1234 3.99626 14.9094 3.99626H9.09055C8.87652 3.99626 8.70302 3.82276 8.70302 3.60874ZM9.47807 3.22121H14.5218V2.27936H13.116C12.902 2.27936 12.7285 2.10586 12.7285 1.89184V1.50348C12.7285 1.10179 12.4017 0.775049 12 0.775049C11.5983 0.775049 11.2714 1.10179 11.2714 1.50348V1.89184C11.2714 2.10586 11.0979 2.27936 10.8839 2.27936H9.47802V3.22121H9.47807ZM21.236 2.82367V23.0663C21.236 23.5812 20.8171 24 20.3023 24H3.6977C3.1829 24 2.7641 23.5812 2.7641 23.0663V2.82367C2.7641 2.30882 3.1829 1.89001 3.6977 1.89001H7.45198C7.66601 1.89001 7.83951 2.06351 7.83951 2.27754C7.83951 2.49156 7.66601 2.66506 7.45198 2.66506H5.28788V21.3582H18.7121V2.66506H16.548C16.3339 2.66506 16.1604 2.49156 16.1604 2.27754C16.1604 2.06351 16.3339 1.89001 16.548 1.89001H20.3022C20.8171 1.89001 21.236 2.30882 21.236 2.82367ZM20.4609 2.82367C20.4609 2.73769 20.3882 2.66506 20.3023 2.66506H19.4872V21.7457C19.4872 21.9597 19.3137 22.1332 19.0996 22.1332H4.90036C4.68633 22.1332 4.51283 21.9597 4.51283 21.7457V2.66506H3.6977C3.61173 2.66506 3.53915 2.73775 3.53915 2.82367V23.0663C3.53915 23.1523 3.61178 23.225 3.6977 23.225H20.3023C20.3883 23.225 20.4609 23.1523 20.4609 23.0663V2.82367ZM7.12458 7.10399C6.93752 7.20801 6.87014 7.44396 6.97416 7.63102L7.68621 8.9119C7.75458 9.03486 7.88418 9.11114 8.02491 9.11114C8.16558 9.11114 8.29524 9.03486 8.36361 8.9119L9.6049 6.67915C9.70892 6.49209 9.64155 6.25614 9.45449 6.15212C9.26753 6.04821 9.03148 6.11541 8.92745 6.30253L8.02485 7.92604L7.6515 7.2544C7.54765 7.06734 7.31164 6.99997 7.12458 7.10399ZM9.45454 11.9017C9.26748 11.7977 9.03148 11.865 8.92751 12.0521L8.02491 13.6755L7.65156 13.0039C7.54759 12.8168 7.31159 12.7493 7.12452 12.8535C6.93746 12.9575 6.87009 13.1934 6.97411 13.3805L7.68616 14.6614C7.75453 14.7843 7.88413 14.8606 8.02485 14.8606C8.16553 14.8606 8.29518 14.7844 8.36355 14.6614L9.60485 12.4287C9.70898 12.2416 9.64161 12.0057 9.45454 11.9017ZM11.5892 8.86794H14.9235C15.1375 8.86794 15.311 8.69444 15.311 8.48042C15.311 8.2664 15.1375 8.0929 14.9235 8.0929H11.5892C11.3752 8.0929 11.2017 8.2664 11.2017 8.48042C11.2017 8.69444 11.3752 8.86794 11.5892 8.86794ZM16.687 6.34643H11.5892C11.3752 6.34643 11.2017 6.51993 11.2017 6.73396C11.2017 6.94798 11.3752 7.12148 11.5892 7.12148H16.687C16.901 7.12148 17.0745 6.94798 17.0745 6.73396C17.0745 6.51993 16.901 6.34643 16.687 6.34643Z" fill="#4A4A4A"/>
</svg>
