<svg width="26" height="29" viewBox="0 0 26 29" fill="none" xmlns="http://www.w3.org/2000/svg">
<path fill-rule="evenodd" clip-rule="evenodd" d="M21.777 10.6413H4.2611C3.29374 10.6413 2.50952 11.371 2.50952 12.271V24.7648C2.50952 25.6648 3.29374 26.3944 4.2611 26.3944H21.777C22.7444 26.3944 23.5285 25.6648 23.5285 24.7648V12.271C23.5285 11.371 22.7444 10.6413 21.777 10.6413ZM4.2611 9.01172C2.32636 9.01172 0.757935 10.4709 0.757935 12.271V24.7648C0.757935 26.5648 2.32636 28.024 4.2611 28.024H21.777C23.7118 28.024 25.2801 26.5648 25.2801 24.7648V12.271C25.2801 10.4709 23.7118 9.01172 21.777 9.01172H4.2611Z" fill="#4A90E2"/>
<path fill-rule="evenodd" clip-rule="evenodd" d="M13.019 20.691C14.3089 20.691 15.3544 19.7183 15.3544 18.5182C15.3544 17.3182 14.3089 16.3455 13.019 16.3455C11.7292 16.3455 10.6836 17.3182 10.6836 18.5182C10.6836 19.7183 11.7292 20.691 13.019 20.691ZM13.019 22.3206C15.2763 22.3206 17.106 20.6183 17.106 18.5182C17.106 16.4181 15.2763 14.7158 13.019 14.7158C10.7618 14.7158 8.93201 16.4181 8.93201 18.5182C8.93201 20.6183 10.7618 22.3206 13.019 22.3206Z" fill="#4A90E2"/>
<path fill-rule="evenodd" clip-rule="evenodd" d="M10.3917 2.2224C8.94059 2.2224 7.76428 3.31681 7.76428 4.66685V9.01253C7.76428 9.46254 7.37217 9.82735 6.88849 9.82735C6.40481 9.82735 6.0127 9.46254 6.0127 9.01253V4.66685C6.0127 2.4168 7.97323 0.592773 10.3917 0.592773H15.6464C18.0648 0.592773 20.0254 2.4168 20.0254 4.66685V9.01253C20.0254 9.46254 19.6332 9.82735 19.1496 9.82735C18.666 9.82735 18.2738 9.46254 18.2738 9.01253V4.66685C18.2738 3.31681 17.0974 2.2224 15.6464 2.2224H10.3917Z" fill="#4A90E2"/>
</svg>
