<svg width="20" height="20" viewBox="0 0 20 20" fill="none" xmlns="http://www.w3.org/2000/svg">
<path d="M0.502424 7.80937C0.704612 8.37594 1.31305 8.75063 1.99024 8.75063C2.0318 8.75063 2.07367 8.74906 2.11524 8.74625L3.62524 8.74937C4.44055 8.695 5.18336 8.01375 5.18336 7.32063V5.67031C5.18336 5.29313 5.41274 4.95156 5.76805 4.80031C6.88617 4.32469 8.38899 4.0625 10.0002 4.0625C11.8362 4.0625 13.5237 4.39281 14.6277 4.9675C14.7321 5.02281 14.8171 5.16187 14.8171 5.27719L14.8168 7.32094C14.8168 8.01438 15.5593 8.69531 16.3965 8.75031L17.863 8.74594C18.6118 8.79312 19.2827 8.41094 19.4974 7.80969C19.7905 6.98844 19.7409 6.07469 19.3605 5.30312C19.3587 5.29937 19.3546 5.29187 19.3527 5.28781C18.2412 3.24656 14.4515 1.875 9.92242 1.875C6.3318 1.875 3.04274 2.83313 1.33899 4.37594C0.391799 5.23313 0.0636742 6.58094 0.502424 7.80937V7.80937ZM1.75836 4.83906C3.35211 3.39625 6.48024 2.5 9.92242 2.5C14.1612 2.5 17.8127 3.76875 18.8024 5.58406C19.1062 6.20375 19.1452 6.93813 18.909 7.59938C18.7918 7.9275 18.3618 8.14969 17.8834 8.12125L16.4165 8.12563C15.8915 8.09094 15.4418 7.65375 15.4418 7.32063L15.4421 5.27687C15.4421 4.93187 15.2274 4.57781 14.918 4.41375C13.708 3.78375 11.9615 3.43719 9.99992 3.43719C8.30649 3.43719 6.71649 3.71719 5.52274 4.225C4.93649 4.475 4.55774 5.04219 4.55805 5.67V7.32031C4.55805 7.65344 4.10836 8.09063 3.60492 8.12469L2.09492 8.12156C1.63867 8.15094 1.20805 7.92719 1.09086 7.59906C0.737424 6.60937 0.999299 5.52625 1.75836 4.83906V4.83906Z" fill="#4A4A4A"/>
<path d="M8.75 5H8.12469C7.26344 5 6.5625 5.70094 6.56219 6.56219C6.56219 6.78125 6.52969 6.98656 6.46656 7.17281C6.1125 8.21437 5.245 9.20844 4.25312 9.71125C3.59812 9.94031 3.125 10.5681 3.125 11.2134V16.5625C3.125 17.4241 3.82594 18.125 4.6875 18.125H15.3125C16.1741 18.125 16.875 17.4241 16.875 16.5625V11.085C16.875 10.4897 16.5441 9.95406 16.0113 9.6875L15.33 9.34687C15.1994 9.28156 15.0734 9.20625 14.9556 9.12313C14.3744 8.71313 13.9725 8.06156 13.8231 7.28719L13.6266 6.26688C13.4856 5.53281 12.8406 5 12.0928 5H11.25C11.0775 5 10.9375 5.13969 10.9375 5.3125V7.8125H9.0625V5.3125C9.0625 5.13969 8.9225 5 8.75 5V5ZM11.25 8.4375C11.4225 8.4375 11.5625 8.29781 11.5625 8.125V5.625H12.0928C12.5416 5.625 12.9288 5.94438 13.0134 6.38531L13.21 7.40594C13.3897 8.33937 13.8819 9.13094 14.5959 9.63437C14.7391 9.735 14.8919 9.82656 15.0509 9.90625L15.7322 10.2469C16.0516 10.4066 16.25 10.7275 16.25 11.085V16.5625C16.25 17.0794 15.8294 17.5 15.3125 17.5H4.6875C4.17062 17.5 3.75 17.0794 3.75 16.5625V11.2134C3.75 10.8347 4.06781 10.4319 4.47344 10.2963C4.4875 10.2916 4.50094 10.2863 4.51438 10.2794C5.67094 9.70094 6.64562 8.58781 7.05844 7.37375C7.14375 7.12281 7.18719 6.85 7.1875 6.5625V6.56187C7.1875 6.04531 7.60812 5.62469 8.125 5.62469H8.4375V8.12469C8.4375 8.2975 8.5775 8.43719 8.75 8.43719H11.25V8.4375Z" fill="#4A4A4A"/>
<path d="M7.5 10C6.98312 10 6.5625 10.4206 6.5625 10.9375C6.5625 11.4544 6.98312 11.875 7.5 11.875C8.01688 11.875 8.4375 11.4544 8.4375 10.9375C8.4375 10.4206 8.01688 10 7.5 10ZM7.5 11.25C7.32781 11.25 7.1875 11.11 7.1875 10.9375C7.1875 10.765 7.32781 10.625 7.5 10.625C7.67219 10.625 7.8125 10.765 7.8125 10.9375C7.8125 11.11 7.67219 11.25 7.5 11.25Z" fill="#4A4A4A"/>
<path d="M10 11.875C10.5169 11.875 10.9375 11.4544 10.9375 10.9375C10.9375 10.4206 10.5169 10 10 10C9.48312 10 9.0625 10.4206 9.0625 10.9375C9.0625 11.4544 9.48312 11.875 10 11.875ZM10 10.625C10.1722 10.625 10.3125 10.765 10.3125 10.9375C10.3125 11.11 10.1722 11.25 10 11.25C9.82781 11.25 9.6875 11.11 9.6875 10.9375C9.6875 10.765 9.82781 10.625 10 10.625Z" fill="#4A4A4A"/>
<path d="M12.5 11.875C13.0169 11.875 13.4375 11.4544 13.4375 10.9375C13.4375 10.4206 13.0169 10 12.5 10C11.9831 10 11.5625 10.4206 11.5625 10.9375C11.5625 11.4544 11.9831 11.875 12.5 11.875ZM12.5 10.625C12.6722 10.625 12.8125 10.765 12.8125 10.9375C12.8125 11.11 12.6722 11.25 12.5 11.25C12.3278 11.25 12.1875 11.11 12.1875 10.9375C12.1875 10.765 12.3278 10.625 12.5 10.625Z" fill="#4A4A4A"/>
<path d="M12.5 14.375C13.0169 14.375 13.4375 13.9544 13.4375 13.4375C13.4375 12.9206 13.0169 12.5 12.5 12.5C11.9831 12.5 11.5625 12.9206 11.5625 13.4375C11.5625 13.9544 11.9831 14.375 12.5 14.375ZM12.5 13.125C12.6722 13.125 12.8125 13.265 12.8125 13.4375C12.8125 13.61 12.6722 13.75 12.5 13.75C12.3278 13.75 12.1875 13.61 12.1875 13.4375C12.1875 13.265 12.3278 13.125 12.5 13.125Z" fill="#4A4A4A"/>
<path d="M10 14.375C10.5169 14.375 10.9375 13.9544 10.9375 13.4375C10.9375 12.9206 10.5169 12.5 10 12.5C9.48312 12.5 9.0625 12.9206 9.0625 13.4375C9.0625 13.9544 9.48312 14.375 10 14.375ZM10 13.125C10.1722 13.125 10.3125 13.265 10.3125 13.4375C10.3125 13.61 10.1722 13.75 10 13.75C9.82781 13.75 9.6875 13.61 9.6875 13.4375C9.6875 13.265 9.82781 13.125 10 13.125Z" fill="#4A4A4A"/>
<path d="M7.5 12.5C6.98312 12.5 6.5625 12.9206 6.5625 13.4375C6.5625 13.9544 6.98312 14.375 7.5 14.375C8.01688 14.375 8.4375 13.9544 8.4375 13.4375C8.4375 12.9206 8.01688 12.5 7.5 12.5ZM7.5 13.75C7.32781 13.75 7.1875 13.61 7.1875 13.4375C7.1875 13.265 7.32781 13.125 7.5 13.125C7.67219 13.125 7.8125 13.265 7.8125 13.4375C7.8125 13.61 7.67219 13.75 7.5 13.75Z" fill="#4A4A4A"/>
<path d="M12.5 16.875C13.0169 16.875 13.4375 16.4544 13.4375 15.9375C13.4375 15.4206 13.0169 15 12.5 15C11.9831 15 11.5625 15.4206 11.5625 15.9375C11.5625 16.4544 11.9831 16.875 12.5 16.875ZM12.5 15.625C12.6722 15.625 12.8125 15.765 12.8125 15.9375C12.8125 16.11 12.6722 16.25 12.5 16.25C12.3278 16.25 12.1875 16.11 12.1875 15.9375C12.1875 15.765 12.3278 15.625 12.5 15.625Z" fill="#4A4A4A"/>
<path d="M10 16.875C10.5169 16.875 10.9375 16.4544 10.9375 15.9375C10.9375 15.4206 10.5169 15 10 15C9.48312 15 9.0625 15.4206 9.0625 15.9375C9.0625 16.4544 9.48312 16.875 10 16.875ZM10 15.625C10.1722 15.625 10.3125 15.765 10.3125 15.9375C10.3125 16.11 10.1722 16.25 10 16.25C9.82781 16.25 9.6875 16.11 9.6875 15.9375C9.6875 15.765 9.82781 15.625 10 15.625Z" fill="#4A4A4A"/>
<path d="M7.5 15C6.98312 15 6.5625 15.4206 6.5625 15.9375C6.5625 16.4544 6.98312 16.875 7.5 16.875C8.01688 16.875 8.4375 16.4544 8.4375 15.9375C8.4375 15.4206 8.01688 15 7.5 15ZM7.5 16.25C7.32781 16.25 7.1875 16.11 7.1875 15.9375C7.1875 15.765 7.32781 15.625 7.5 15.625C7.67219 15.625 7.8125 15.765 7.8125 15.9375C7.8125 16.11 7.67219 16.25 7.5 16.25Z" fill="#4A4A4A"/>
</svg>
