<svg width="10" height="10" viewBox="0 0 10 10" fill="none" xmlns="http://www.w3.org/2000/svg">
<path d="M9.63636 3.90909H7.09091V1.36364C7.09091 1.16281 6.9281 1 6.72727 1H5.27273C5.0719 1 4.90909 1.16281 4.90909 1.36364V3.90909H2.36364C2.16281 3.90909 2 4.0719 2 4.27273V5.72727C2 5.9281 2.16281 6.09091 2.36364 6.09091H4.90909V8.63636C4.90909 8.83719 5.0719 9 5.27273 9H6.72727C6.9281 9 7.09091 8.83719 7.09091 8.63636V6.09091H9.63636C9.83719 6.09091 10 5.9281 10 5.72727V4.27273C10 4.0719 9.83719 3.90909 9.63636 3.90909Z" fill="#4A90E2"/>
</svg>
