<svg width="24" height="24" viewBox="0 0 24 24" fill="none" xmlns="http://www.w3.org/2000/svg">
<g clip-path="url(#clip0_1362_3289)">
<mask id="mask0_1362_3289" style="mask-type:luminance" maskUnits="userSpaceOnUse" x="0" y="0" width="24" height="24">
<path d="M24 0H0V24H24V0Z" fill="white"/>
</mask>
<g mask="url(#mask0_1362_3289)">
<path d="M20.9828 4.67544L16.4213 0.113883C16.3484 0.0409503 16.2495 0 16.1464 0H4.12048C3.4488 0 2.90234 0.546454 2.90234 1.21814V22.7819C2.90234 23.4535 3.4488 24 4.12048 24H19.8786C20.5503 24 21.0967 23.4535 21.0967 22.7819V4.95032C21.0967 4.84722 21.0558 4.74832 20.9828 4.67544ZM16.5352 1.32731L19.7694 4.56156H16.9758C16.7328 4.56156 16.5352 4.3639 16.5352 4.12095V1.32731ZM19.8786 23.2225H4.12048C3.87753 23.2225 3.67988 23.0248 3.67988 22.7819V1.21814C3.67988 0.975188 3.87753 0.777538 4.12048 0.777538H15.7576V4.12095C15.7576 4.79264 16.3041 5.33909 16.9758 5.33909H20.3192V22.7819C20.3192 23.0248 20.1215 23.2225 19.8786 23.2225Z" fill="white"/>
<path d="M7.02345 10.7812H6.19408C5.75103 10.7812 5.39062 11.1418 5.39062 11.5848V12.4142C5.39062 12.8572 5.75103 13.2176 6.19408 13.2176H7.02345C7.46649 13.2176 7.82691 12.8572 7.82691 12.4142V11.5848C7.82691 11.1418 7.46649 10.7812 7.02345 10.7812ZM7.04938 12.4142C7.04938 12.4285 7.03776 12.4401 7.02345 12.4401H6.19408C6.17977 12.4401 6.16816 12.4285 6.16816 12.4142V11.5848C6.16816 11.5705 6.17977 11.5589 6.19408 11.5589H7.02345C7.03776 11.5589 7.04938 11.5705 7.04938 11.5848V12.4142Z" fill="white"/>
<path d="M9.09579 11.5589H12.828C13.0427 11.5589 13.2168 11.3847 13.2168 11.17C13.2168 10.9553 13.0427 10.7812 12.828 10.7812H9.09579C8.88109 10.7812 8.70703 10.9553 8.70703 11.17C8.70703 11.3847 8.88109 11.5589 9.09579 11.5589Z" fill="white"/>
<path d="M9.09579 13.2179H14.4867C14.7014 13.2179 14.8755 13.0438 14.8755 12.8291C14.8755 12.6144 14.7014 12.4404 14.4867 12.4404H9.09579C8.88109 12.4404 8.70703 12.6144 8.70703 12.8291C8.70703 13.0438 8.88109 13.2179 9.09579 13.2179Z" fill="white"/>
<path d="M7.02345 7.0498H6.19408C5.75103 7.0498 5.39062 7.41022 5.39062 7.85326V8.68263C5.39062 9.12567 5.75103 9.48609 6.19408 9.48609H7.02345C7.46649 9.48609 7.82691 9.12567 7.82691 8.68263V7.85326C7.82691 7.41022 7.46649 7.0498 7.02345 7.0498ZM7.04938 8.68263C7.04938 8.69694 7.03776 8.70855 7.02345 8.70855H6.19408C6.17977 8.70855 6.16816 8.69694 6.16816 8.68263V7.85326C6.16816 7.83895 6.17977 7.82734 6.19408 7.82734H7.02345C7.03776 7.82734 7.04938 7.83895 7.04938 7.85326V8.68263Z" fill="white"/>
<path d="M9.09579 7.82734H14.4867C14.7014 7.82734 14.8755 7.65327 14.8755 7.43857C14.8755 7.22387 14.7014 7.0498 14.4867 7.0498H9.09579C8.88109 7.0498 8.70703 7.22387 8.70703 7.43857C8.70703 7.65327 8.88109 7.82734 9.09579 7.82734Z" fill="white"/>
<path d="M18.2189 8.70898H9.09579C8.88109 8.70898 8.70703 8.88304 8.70703 9.09774C8.70703 9.31245 8.88109 9.48651 9.09579 9.48651H18.2189C18.4336 9.48651 18.6077 9.31245 18.6077 9.09774C18.6077 8.88304 18.4336 8.70898 18.2189 8.70898Z" fill="white"/>
<path d="M7.02345 3.31738H6.19408C5.75103 3.31738 5.39062 3.6778 5.39062 4.12084V4.95021C5.39062 5.39325 5.75103 5.75367 6.19408 5.75367H7.02345C7.46649 5.75367 7.82691 5.39325 7.82691 4.95021V4.12084C7.82691 3.6778 7.46649 3.31738 7.02345 3.31738ZM7.04938 4.95021C7.04938 4.96452 7.03776 4.97613 7.02345 4.97613H6.19408C6.17977 4.97613 6.16816 4.96452 6.16816 4.95021V4.12084C6.16816 4.10653 6.17977 4.09492 6.19408 4.09492H7.02345C7.03776 4.09492 7.04938 4.10653 7.04938 4.12084V4.95021Z" fill="white"/>
<path d="M9.09579 4.09492H12.828C13.0427 4.09492 13.2168 3.92086 13.2168 3.70615C13.2168 3.49145 13.0427 3.31738 12.828 3.31738H9.09579C8.88109 3.31738 8.70703 3.49145 8.70703 3.70615C8.70703 3.92086 8.88109 4.09492 9.09579 4.09492Z" fill="white"/>
<path d="M9.09579 5.7541H14.4867C14.7014 5.7541 14.8755 5.58003 14.8755 5.36533C14.8755 5.15062 14.7014 4.97656 14.4867 4.97656H9.09579C8.88109 4.97656 8.70703 5.15062 8.70703 5.36533C8.70703 5.58003 8.88109 5.7541 9.09579 5.7541Z" fill="white"/>
<path d="M7.02345 18.2461H6.19408C5.75103 18.2461 5.39062 18.6066 5.39062 19.0496V19.879C5.39062 20.322 5.75103 20.6824 6.19408 20.6824H7.02345C7.46649 20.6824 7.82691 20.322 7.82691 19.879V19.0496C7.82691 18.6066 7.46649 18.2461 7.02345 18.2461ZM7.04938 19.879C7.04938 19.8933 7.03776 19.9049 7.02345 19.9049H6.19408C6.17977 19.9049 6.16816 19.8933 6.16816 19.879V19.0496C6.16816 19.0353 6.17977 19.0237 6.19408 19.0237H7.02345C7.03776 19.0237 7.04938 19.0353 7.04938 19.0496V19.879Z" fill="white"/>
<path d="M9.09579 19.0237H12.828C13.0427 19.0237 13.2168 18.8496 13.2168 18.6349C13.2168 18.4202 13.0427 18.2461 12.828 18.2461H9.09579C8.88109 18.2461 8.70703 18.4202 8.70703 18.6349C8.70703 18.8496 8.88109 19.0237 9.09579 19.0237Z" fill="white"/>
<path d="M14.4867 19.9053H9.09579C8.88109 19.9053 8.70703 20.0794 8.70703 20.2941C8.70703 20.5088 8.88109 20.6829 9.09579 20.6829H14.4867C14.7014 20.6829 14.8755 20.5088 14.8755 20.2941C14.8755 20.0794 14.7014 19.9053 14.4867 19.9053Z" fill="white"/>
<path d="M7.02345 14.5146H6.19408C5.75103 14.5146 5.39062 14.875 5.39062 15.318V16.1474C5.39062 16.5904 5.75103 16.9508 6.19408 16.9508H7.02345C7.46649 16.9508 7.82691 16.5904 7.82691 16.1474V15.318C7.82691 14.875 7.46649 14.5146 7.02345 14.5146ZM7.04938 16.1474C7.04938 16.1617 7.03776 16.1733 7.02345 16.1733H6.19408C6.17977 16.1733 6.16816 16.1617 6.16816 16.1474V15.318C6.16816 15.3037 6.17977 15.2921 6.19408 15.2921H7.02345C7.03776 15.2921 7.04938 15.3037 7.04938 15.318V16.1474Z" fill="white"/>
<path d="M9.09579 15.2921H14.4867C14.7014 15.2921 14.8755 15.118 14.8755 14.9033C14.8755 14.6886 14.7014 14.5146 14.4867 14.5146H9.09579C8.88109 14.5146 8.70703 14.6886 8.70703 14.9033C8.70703 15.118 8.88109 15.2921 9.09579 15.2921Z" fill="white"/>
<path d="M18.2189 16.1729H9.09579C8.88109 16.1729 8.70703 16.3469 8.70703 16.5616C8.70703 16.7763 8.88109 16.9504 9.09579 16.9504H18.2189C18.4336 16.9504 18.6077 16.7763 18.6077 16.5616C18.6077 16.3469 18.4336 16.1729 18.2189 16.1729Z" fill="white"/>
</g>
</g>
<defs>
<clipPath id="clip0_1362_3289">
<rect width="24" height="24" fill="white"/>
</clipPath>
</defs>
</svg>
