<svg width="24" height="24" viewBox="0 0 24 24" fill="none" xmlns="http://www.w3.org/2000/svg">
<g clip-path="url(#clip0_157_439)">
<path d="M20.9833 4.67544L16.4218 0.113883C16.3489 0.0409503 16.25 0 16.1469 0H4.12097C3.44929 0 2.90283 0.546454 2.90283 1.21814V22.7819C2.90283 23.4535 3.44929 24 4.12097 24H19.8791C20.5508 24 21.0972 23.4535 21.0972 22.7819V4.95032C21.0972 4.84722 21.0563 4.74832 20.9833 4.67544ZM16.5357 1.32731L19.7699 4.56156H16.9763C16.7333 4.56156 16.5357 4.3639 16.5357 4.12095V1.32731V1.32731ZM19.8791 23.2225H4.12097C3.87802 23.2225 3.68037 23.0248 3.68037 22.7819V1.21814C3.68037 0.975188 3.87802 0.777538 4.12097 0.777538H15.7581V4.12095C15.7581 4.79264 16.3046 5.33909 16.9763 5.33909H20.3197V22.7819C20.3197 23.0248 20.122 23.2225 19.8791 23.2225Z" fill="#4A4A4A"/>
<path d="M7.02376 10.7817H6.19439C5.75134 10.7817 5.39093 11.1422 5.39093 11.5852V12.4146C5.39093 12.8576 5.75134 13.218 6.19439 13.218H7.02376C7.4668 13.218 7.82722 12.8576 7.82722 12.4146V11.5852C7.82722 11.1422 7.4668 10.7817 7.02376 10.7817ZM7.04968 12.4146C7.04968 12.4289 7.03807 12.4405 7.02376 12.4405H6.19439C6.18008 12.4405 6.16847 12.4289 6.16847 12.4146V11.5852C6.16847 11.5709 6.18008 11.5593 6.19439 11.5593H7.02376C7.03807 11.5593 7.04968 11.5709 7.04968 11.5852V12.4146Z" fill="#4A4A4A"/>
<path d="M9.0972 11.5593H12.8294C13.0441 11.5593 13.2182 11.3852 13.2182 11.1705C13.2182 10.9558 13.0441 10.7817 12.8294 10.7817H9.0972C8.8825 10.7817 8.70844 10.9558 8.70844 11.1705C8.70844 11.3852 8.8825 11.5593 9.0972 11.5593Z" fill="#4A4A4A"/>
<path d="M9.0972 13.2182H14.4881C14.7028 13.2182 14.8769 13.0441 14.8769 12.8294C14.8769 12.6147 14.7028 12.4407 14.4881 12.4407H9.0972C8.8825 12.4407 8.70844 12.6147 8.70844 12.8294C8.70844 13.0441 8.8825 13.2182 9.0972 13.2182Z" fill="#4A4A4A"/>
<path d="M7.02376 7.04956H6.19439C5.75134 7.04956 5.39093 7.40998 5.39093 7.85302V8.68239C5.39093 9.12543 5.75134 9.48585 6.19439 9.48585H7.02376C7.4668 9.48585 7.82722 9.12543 7.82722 8.68239V7.85302C7.82722 7.40998 7.4668 7.04956 7.02376 7.04956ZM7.04968 8.68239C7.04968 8.6967 7.03807 8.70831 7.02376 8.70831H6.19439C6.18008 8.70831 6.16847 8.6967 6.16847 8.68239V7.85302C6.16847 7.83871 6.18008 7.8271 6.19439 7.8271H7.02376C7.03807 7.8271 7.04968 7.83871 7.04968 7.85302V8.68239Z" fill="#4A4A4A"/>
<path d="M9.0972 7.8271H14.4881C14.7028 7.8271 14.8769 7.65303 14.8769 7.43833C14.8769 7.22363 14.7028 7.04956 14.4881 7.04956H9.0972C8.8825 7.04956 8.70844 7.22363 8.70844 7.43833C8.70844 7.65303 8.8825 7.8271 9.0972 7.8271Z" fill="#4A4A4A"/>
<path d="M18.2203 8.7085H9.0972C8.8825 8.7085 8.70844 8.88256 8.70844 9.09726C8.70844 9.31197 8.8825 9.48603 9.0972 9.48603H18.2203C18.435 9.48603 18.6091 9.31197 18.6091 9.09726C18.6091 8.88256 18.435 8.7085 18.2203 8.7085Z" fill="#4A4A4A"/>
<path d="M7.02376 3.31738H6.19439C5.75134 3.31738 5.39093 3.6778 5.39093 4.12084V4.95021C5.39093 5.39325 5.75134 5.75367 6.19439 5.75367H7.02376C7.4668 5.75367 7.82722 5.39325 7.82722 4.95021V4.12084C7.82722 3.6778 7.4668 3.31738 7.02376 3.31738ZM7.04968 4.95021C7.04968 4.96452 7.03807 4.97613 7.02376 4.97613H6.19439C6.18008 4.97613 6.16847 4.96452 6.16847 4.95021V4.12084C6.16847 4.10653 6.18008 4.09492 6.19439 4.09492H7.02376C7.03807 4.09492 7.04968 4.10653 7.04968 4.12084V4.95021Z" fill="#4A4A4A"/>
<path d="M9.0972 4.09492H12.8294C13.0441 4.09492 13.2182 3.92086 13.2182 3.70615C13.2182 3.49145 13.0441 3.31738 12.8294 3.31738H9.0972C8.8825 3.31738 8.70844 3.49145 8.70844 3.70615C8.70844 3.92086 8.8825 4.09492 9.0972 4.09492Z" fill="#4A4A4A"/>
<path d="M9.0972 5.75386H14.4881C14.7028 5.75386 14.8769 5.57979 14.8769 5.36509C14.8769 5.15038 14.7028 4.97632 14.4881 4.97632H9.0972C8.8825 4.97632 8.70844 5.15038 8.70844 5.36509C8.70844 5.57979 8.8825 5.75386 9.0972 5.75386Z" fill="#4A4A4A"/>
<path d="M7.02376 18.2463H6.19439C5.75134 18.2463 5.39093 18.6068 5.39093 19.0498V19.8792C5.39093 20.3222 5.75134 20.6826 6.19439 20.6826H7.02376C7.4668 20.6826 7.82722 20.3222 7.82722 19.8792V19.0498C7.82722 18.6068 7.4668 18.2463 7.02376 18.2463ZM7.04968 19.8792C7.04968 19.8935 7.03807 19.9051 7.02376 19.9051H6.19439C6.18008 19.9051 6.16847 19.8935 6.16847 19.8792V19.0498C6.16847 19.0355 6.18008 19.0239 6.19439 19.0239H7.02376C7.03807 19.0239 7.04968 19.0355 7.04968 19.0498V19.8792Z" fill="#4A4A4A"/>
<path d="M9.0972 19.0239H12.8294C13.0441 19.0239 13.2182 18.8498 13.2182 18.6351C13.2182 18.4204 13.0441 18.2463 12.8294 18.2463H9.0972C8.8825 18.2463 8.70844 18.4204 8.70844 18.6351C8.70844 18.8498 8.8825 19.0239 9.0972 19.0239Z" fill="#4A4A4A"/>
<path d="M14.4881 19.905H9.0972C8.8825 19.905 8.70844 20.0791 8.70844 20.2938C8.70844 20.5085 8.8825 20.6826 9.0972 20.6826H14.4881C14.7028 20.6826 14.8769 20.5085 14.8769 20.2938C14.8769 20.0791 14.7028 19.905 14.4881 19.905Z" fill="#4A4A4A"/>
<path d="M7.02376 14.5142H6.19439C5.75134 14.5142 5.39093 14.8746 5.39093 15.3176V16.147C5.39093 16.59 5.75134 16.9504 6.19439 16.9504H7.02376C7.4668 16.9504 7.82722 16.59 7.82722 16.147V15.3176C7.82722 14.8746 7.4668 14.5142 7.02376 14.5142ZM7.04968 16.147C7.04968 16.1613 7.03807 16.1729 7.02376 16.1729H6.19439C6.18008 16.1729 6.16847 16.1613 6.16847 16.147V15.3176C6.16847 15.3033 6.18008 15.2917 6.19439 15.2917H7.02376C7.03807 15.2917 7.04968 15.3033 7.04968 15.3176V16.147Z" fill="#4A4A4A"/>
<path d="M9.0972 15.2917H14.4881C14.7028 15.2917 14.8769 15.1176 14.8769 14.9029C14.8769 14.6882 14.7028 14.5142 14.4881 14.5142H9.0972C8.8825 14.5142 8.70844 14.6882 8.70844 14.9029C8.70844 15.1176 8.8825 15.2917 9.0972 15.2917Z" fill="#4A4A4A"/>
<path d="M18.2203 16.1729H9.0972C8.8825 16.1729 8.70844 16.3469 8.70844 16.5616C8.70844 16.7763 8.8825 16.9504 9.0972 16.9504H18.2203C18.435 16.9504 18.6091 16.7763 18.6091 16.5616C18.6091 16.3469 18.435 16.1729 18.2203 16.1729Z" fill="#4A4A4A"/>
</g>
<defs>
<clipPath id="clip0_157_439">
<rect width="24" height="24" fill="white"/>
</clipPath>
</defs>
</svg>
