<svg width="24" height="22" viewBox="0 0 24 22" fill="none" xmlns="http://www.w3.org/2000/svg">
<path fill-rule="evenodd" clip-rule="evenodd" d="M2.60433 9.37499H4.68766C4.97516 9.37499 5.2085 9.14166 5.2085 8.85416C5.2085 8.56666 4.97516 8.33333 4.68766 8.33333H2.60433C2.31683 8.33333 2.0835 8.56666 2.0835 8.85416C2.0835 9.14166 2.31683 9.37499 2.60433 9.37499Z" fill="white"/>
<path fill-rule="evenodd" clip-rule="evenodd" d="M8.85433 15.625H15.1043C15.3918 15.625 15.6252 15.3917 15.6252 15.1042C15.6252 14.8167 15.3918 14.5833 15.1043 14.5833H8.85433C8.56683 14.5833 8.3335 14.8167 8.3335 15.1042C8.3335 15.3917 8.56683 15.625 8.85433 15.625Z" fill="white"/>
<path fill-rule="evenodd" clip-rule="evenodd" d="M8.85433 17.7083H15.1043C15.3918 17.7083 15.6252 17.475 15.6252 17.1875C15.6252 16.9 15.3918 16.6667 15.1043 16.6667H8.85433C8.56683 16.6667 8.3335 16.9 8.3335 17.1875C8.3335 17.475 8.56683 17.7083 8.85433 17.7083Z" fill="white"/>
<path fill-rule="evenodd" clip-rule="evenodd" d="M8.85433 19.7917H15.1043C15.3918 19.7917 15.6252 19.5583 15.6252 19.2708C15.6252 18.9833 15.3918 18.75 15.1043 18.75H8.85433C8.56683 18.75 8.3335 18.9833 8.3335 19.2708C8.3335 19.5583 8.56683 19.7917 8.85433 19.7917Z" fill="white"/>
<path fill-rule="evenodd" clip-rule="evenodd" d="M5.20833 4.16667V1.5625C5.20833 1.14792 5.37292 0.75052 5.66614 0.457811C5.95885 0.164582 6.35625 0 6.77083 0H17.1875C17.6021 0 17.9995 0.164582 18.2922 0.457811C18.5854 0.75052 18.75 1.14792 18.75 1.5625V4.16667H20.3125C21.1755 4.16667 21.875 4.86615 21.875 5.72917V6.25H22.3958C23.2589 6.25 23.9583 6.94948 23.9583 7.8125V17.1875C23.9583 18.0505 23.2589 18.75 22.3958 18.75H18.75V20.3125C18.75 20.7271 18.5854 21.1245 18.2922 21.4172C17.9995 21.7104 17.6021 21.875 17.1875 21.875C14.8333 21.875 9.125 21.875 6.77083 21.875C6.35625 21.875 5.95885 21.7104 5.66614 21.4172C5.37292 21.1245 5.20833 20.7271 5.20833 20.3125V18.75H1.5625C0.699479 18.75 0 18.0505 0 17.1875C0 15.0083 0 9.99167 0 7.8125C0 6.94948 0.699479 6.25 1.5625 6.25H2.08333V5.72917C2.08333 4.86615 2.78281 4.16667 3.64583 4.16667H5.20833ZM17.7083 13.5417V20.3125C17.7083 20.4505 17.6536 20.5833 17.5557 20.6807C17.4583 20.7786 17.3255 20.8333 17.1875 20.8333H6.77083C6.63281 20.8333 6.5 20.7786 6.4026 20.6807C6.30469 20.5833 6.25 20.4505 6.25 20.3125V13.5417H17.7083ZM20.8333 17.7083H22.3958C22.6833 17.7083 22.9167 17.475 22.9167 17.1875V7.8125C22.9167 7.525 22.6833 7.29167 22.3958 7.29167H1.5625C1.275 7.29167 1.04167 7.525 1.04167 7.8125V17.1875C1.04167 17.475 1.275 17.7083 1.5625 17.7083H3.125V14.0625C3.125 13.6479 3.28958 13.2505 3.58281 12.9578C3.87552 12.6646 4.27292 12.5 4.6875 12.5H19.2708C19.6854 12.5 20.0828 12.6646 20.3755 12.9578C20.6688 13.2505 20.8333 13.6479 20.8333 14.0625V17.7083ZM5.20833 13.5417H4.6875C4.54948 13.5417 4.41667 13.5964 4.31927 13.6943C4.22135 13.7917 4.16667 13.9245 4.16667 14.0625V17.7083H5.20833V13.5417ZM18.75 13.5417V17.7083H19.7917V14.0625C19.7917 13.9245 19.737 13.7917 19.6391 13.6943C19.5417 13.5964 19.4089 13.5417 19.2708 13.5417H18.75ZM18.75 5.20833H20.3125C20.6 5.20833 20.8333 5.44167 20.8333 5.72917V6.25H18.75V5.20833ZM17.7083 6.25H6.25V1.5625C6.25 1.42448 6.30469 1.29167 6.4026 1.19427C6.5 1.09635 6.63281 1.04167 6.77083 1.04167H17.1875C17.3255 1.04167 17.4583 1.09635 17.5557 1.19427C17.6536 1.29167 17.7083 1.42448 17.7083 1.5625V6.25ZM5.20833 5.20833V6.25H3.125V5.72917C3.125 5.44167 3.35833 5.20833 3.64583 5.20833H5.20833Z" fill="white"/>
</svg>
