<svg width="24" height="24" viewBox="0 0 24 24" fill="none" xmlns="http://www.w3.org/2000/svg">
<g clip-path="url(#clip0_1355_3204)">
<path d="M8.20312 4.21875H14.7656C15.1539 4.21875 15.4688 3.90394 15.4688 3.51562C15.4688 3.12731 15.1539 2.8125 14.7656 2.8125H8.20312C7.81481 2.8125 7.5 3.12731 7.5 3.51562C7.5 3.90394 7.81481 4.21875 8.20312 4.21875Z" fill="#4A4A4A"/>
<path d="M8.20312 7.03125H14.7656C15.1539 7.03125 15.4688 6.71644 15.4688 6.32812C15.4688 5.93981 15.1539 5.625 14.7656 5.625H8.20312C7.81481 5.625 7.5 5.93981 7.5 6.32812C7.5 6.71644 7.81481 7.03125 8.20312 7.03125Z" fill="#4A4A4A"/>
<path d="M9.14062 17.8125H3.51562C3.12731 17.8125 2.8125 18.1273 2.8125 18.5156C2.8125 18.9039 3.12731 19.2188 3.51562 19.2188H9.14062C9.52894 19.2188 9.84375 18.9039 9.84375 18.5156C9.84375 18.1273 9.52894 17.8125 9.14062 17.8125Z" fill="#4A4A4A"/>
<path d="M23.3821 20.3991L18.841 15.858C19.0932 15.2348 19.2325 14.5544 19.2325 13.8419C19.2325 12.7087 18.8808 11.6564 18.2812 10.7876V2.10938C18.2812 0.946266 17.3349 0 16.1718 0H5.39062C5.20411 0 5.02528 0.0741094 4.89347 0.205969L0.205969 4.89347C0.0740625 5.02533 0 5.20416 0 5.39062V21.8906C0 23.0537 0.946266 24 2.10938 24H16.1719C17.335 24 18.2812 23.0537 18.2812 21.8906V21.2643L20.3991 23.3821C20.7975 23.7805 21.3272 24 21.8906 24C22.4541 24 22.9838 23.7805 23.3821 23.3821C23.7805 22.9838 24 22.4541 24 21.8906C24 21.3272 23.7806 20.7975 23.3821 20.3991ZM13.8419 17.8263C11.6449 17.8263 9.85753 16.0389 9.85753 13.8419C9.85753 11.6449 11.6449 9.85753 13.8419 9.85753C16.0389 9.85753 17.8263 11.6449 17.8263 13.8419C17.8263 16.0389 16.0389 17.8263 13.8419 17.8263ZM8.71134 12.1875H4.21875V9.84375H10.23C9.53592 10.4714 9.00567 11.2769 8.71134 12.1875ZM4.6875 2.40061V4.6875H2.40061L4.6875 2.40061ZM16.875 21.8906C16.875 22.2783 16.5596 22.5938 16.1719 22.5938H2.10938C1.72167 22.5938 1.40625 22.2783 1.40625 21.8906V6.09375H5.39062C5.77894 6.09375 6.09375 5.77894 6.09375 5.39062V1.40625H16.1719C16.5596 1.40625 16.875 1.72167 16.875 2.10938V9.38789C16.0103 8.79722 14.9658 8.4375 13.8419 8.4375H3.51562C3.12731 8.4375 2.8125 8.75231 2.8125 9.14062V12.8906C2.8125 13.2789 3.12731 13.5938 3.51562 13.5938H8.45719C8.45344 13.676 8.45128 13.7587 8.45128 13.8419C8.45128 14.2394 8.49492 14.6268 8.57695 15H3.51562C3.12731 15 2.8125 15.3148 2.8125 15.7031C2.8125 16.0914 3.12731 16.4062 3.51562 16.4062H9.10125C10.0147 18.0882 11.7972 19.2325 13.8419 19.2325C14.5544 19.2325 15.2348 19.0933 15.858 18.8411L16.875 19.8581V21.8906ZM22.3877 22.3878C22.255 22.5206 22.0785 22.5938 21.8906 22.5938C21.7028 22.5938 21.5263 22.5206 21.3935 22.3878L17.1221 18.1165C17.4951 17.8297 17.8296 17.4952 18.1165 17.1221L22.3878 21.3934C22.5206 21.5262 22.5938 21.7028 22.5938 21.8906C22.5938 22.0784 22.5206 22.255 22.3877 22.3878Z" fill="#4A4A4A"/>
</g>
<defs>
<clipPath id="clip0_1355_3204">
<rect width="24" height="24" fill="white"/>
</clipPath>
</defs>
</svg>
