<svg width="24" height="24" viewBox="0 0 24 24" fill="none" xmlns="http://www.w3.org/2000/svg">
<g clip-path="url(#clip0_1355_3197)">
<path d="M15.5156 20.7757V15.5625H21.1406C21.8908 15.5625 22.6027 15.2726 23.1453 14.7462C23.6964 14.2114 24 13.5026 24 12.75V5.71875H19.7344V2.8125C19.7344 1.2616 18.4728 0 16.9219 0H3.51562C1.57214 0 0 1.61884 0 3.5625V24H12.2913L15.5156 20.7757ZM22.5938 12.75C22.5938 13.5123 21.9283 14.1562 21.1406 14.1562C20.3652 14.1562 19.7344 13.5255 19.7344 12.75V7.125H22.5938V12.75ZM18.3281 2.8125V12.75C18.3281 13.2621 18.4664 13.7422 18.7064 14.1562H15.5156V2.8125C15.5156 2.03705 16.1464 1.40625 16.9219 1.40625C17.6973 1.40625 18.3281 2.03705 18.3281 2.8125ZM1.40625 3.5625C1.40625 2.39374 2.37213 1.4057 3.51562 1.4057H14.4877C14.2476 1.81989 14.1094 2.29999 14.1094 2.81195V18.375C13.6027 18.375 3.3847 18.375 2.8125 18.375V19.7812H9.89062V22.5938H1.40625V3.5625ZM11.2969 22.5938V19.7812H14.1094V20.1931L11.7087 22.5938H11.2969Z" fill="#4A4A4A"/>
<path d="M2.8125 4.3125H12.7031V5.71875H2.8125V4.3125Z" fill="#4A4A4A"/>
<path d="M2.8125 7.125H12.7031V8.53125H2.8125V7.125Z" fill="#4A4A4A"/>
<path d="M2.8125 9.9375H12.7031V11.3438H2.8125V9.9375Z" fill="#4A4A4A"/>
<path d="M2.8125 12.75H12.7031V14.1562H2.8125V12.75Z" fill="#4A4A4A"/>
<path d="M2.8125 15.5625H12.7031V16.9688H2.8125V15.5625Z" fill="#4A4A4A"/>
</g>
<defs>
<clipPath id="clip0_1355_3197">
<rect width="24" height="24" fill="white"/>
</clipPath>
</defs>
</svg>
