<svg width="24" height="24" viewBox="0 0 24 24" fill="none" xmlns="http://www.w3.org/2000/svg">
<g clip-path="url(#clip0_1355_3214)">
<path d="M21.8438 0.28125H2.15625C1.12238 0.28125 0.28125 1.12238 0.28125 2.15625V18.0938C0.28125 19.1276 1.12238 19.9688 2.15625 19.9688H9.1875V20.9062C8.76005 20.9062 8.35814 21.0728 8.05584 21.375L6.64959 22.7812H4.96875C4.70986 22.7812 4.5 22.9912 4.5 23.25C4.5 23.5088 4.70986 23.7188 4.96875 23.7188H19.0312C19.2901 23.7188 19.5 23.5088 19.5 23.25C19.5 22.9912 19.2901 22.7812 19.0312 22.7812H17.3505L15.9442 21.375C15.6419 21.0728 15.24 20.9062 14.8125 20.9062V19.9688H21.8438C22.8776 19.9688 23.7188 19.1276 23.7188 18.0938V2.15625C23.7188 1.12238 22.8776 0.28125 21.8438 0.28125ZM14.8125 21.8438C14.9895 21.8438 15.156 21.9127 15.2812 22.038L16.0245 22.7812H7.97541L8.71875 22.038C8.844 21.9128 9.01045 21.8438 9.1875 21.8438C9.70444 21.8438 10.125 21.4232 10.125 20.9062V19.9688H13.875V20.9062C13.875 21.4232 14.2956 21.8438 14.8125 21.8438ZM22.7812 18.0938C22.7812 18.6107 22.3607 19.0312 21.8438 19.0312C21.057 19.0312 3.03211 19.0312 2.15625 19.0312C1.63931 19.0312 1.21875 18.6107 1.21875 18.0938V2.15625C1.21875 1.63931 1.63931 1.21875 2.15625 1.21875H21.8438C22.3607 1.21875 22.7812 1.63931 22.7812 2.15625V18.0938Z" fill="#4A4A4A"/>
<path d="M5.4375 15.2812H4.5C4.24111 15.2812 4.03125 15.4912 4.03125 15.75C4.03125 16.0088 4.24111 16.2188 4.5 16.2188H5.4375C5.69639 16.2188 5.90625 16.0088 5.90625 15.75C5.90625 15.4912 5.69639 15.2812 5.4375 15.2812Z" fill="#4A4A4A"/>
<path d="M8.25 15.2812H7.3125C7.05361 15.2812 6.84375 15.4912 6.84375 15.75C6.84375 16.0088 7.05361 16.2188 7.3125 16.2188H8.25C8.50889 16.2188 8.71875 16.0088 8.71875 15.75C8.71875 15.4912 8.50889 15.2812 8.25 15.2812Z" fill="#4A4A4A"/>
<path d="M11.0625 15.2812H10.125C9.86611 15.2812 9.65625 15.4912 9.65625 15.75C9.65625 16.0088 9.86611 16.2188 10.125 16.2188H11.0625C11.3214 16.2188 11.5312 16.0088 11.5312 15.75C11.5312 15.4912 11.3214 15.2812 11.0625 15.2812Z" fill="#4A4A4A"/>
<path d="M20.4375 2.15625H3.5625C2.78709 2.15625 2.15625 2.78709 2.15625 3.5625V16.6875C2.15625 17.4629 2.78709 18.0938 3.5625 18.0938H20.4375C21.2129 18.0938 21.8438 17.4629 21.8438 16.6875V3.5625C21.8438 2.78709 21.2129 2.15625 20.4375 2.15625ZM3.5625 3.09375H20.4375C20.696 3.09375 20.9062 3.30403 20.9062 3.5625V15.2812H13.7946C13.6694 15.2812 13.5517 15.2325 13.4632 15.144L12.1373 13.818C11.8716 13.5525 11.5185 13.4062 11.1429 13.4062H3.09375V3.5625C3.09375 3.30403 3.30403 3.09375 3.5625 3.09375ZM20.4375 17.1562H3.5625C3.30403 17.1562 3.09375 16.946 3.09375 16.6875V14.3438H11.1429C11.2681 14.3438 11.3859 14.3925 11.4744 14.481L12.8002 15.8069C13.0658 16.0725 13.419 16.2188 13.7946 16.2188H20.9062V16.6875C20.9062 16.946 20.696 17.1562 20.4375 17.1562Z" fill="#4A4A4A"/>
<path d="M12.4688 20.9062H11.5312C11.2724 20.9062 11.0625 21.1162 11.0625 21.375C11.0625 21.6338 11.2724 21.8438 11.5312 21.8438H12.4688C12.7276 21.8438 12.9375 21.6338 12.9375 21.375C12.9375 21.1162 12.7276 20.9062 12.4688 20.9062Z" fill="#4A4A4A"/>
<path d="M5.90625 11.0625H18.0938C18.3526 11.0625 18.5625 10.8526 18.5625 10.5938C18.5625 10.3349 18.3526 10.125 18.0938 10.125H5.90625C5.64736 10.125 5.4375 10.3349 5.4375 10.5938C5.4375 10.8526 5.64736 11.0625 5.90625 11.0625Z" fill="#4A4A4A"/>
<path d="M5.90625 8.71875H18.0938C18.3526 8.71875 18.5625 8.50889 18.5625 8.25C18.5625 7.99111 18.3526 7.78125 18.0938 7.78125H5.90625C5.64736 7.78125 5.4375 7.99111 5.4375 8.25C5.4375 8.50889 5.64736 8.71875 5.90625 8.71875Z" fill="#4A4A4A"/>
<path d="M5.90625 6.375H18.0938C18.3526 6.375 18.5625 6.16514 18.5625 5.90625C18.5625 5.64736 18.3526 5.4375 18.0938 5.4375H5.90625C5.64736 5.4375 5.4375 5.64736 5.4375 5.90625C5.4375 6.16514 5.64736 6.375 5.90625 6.375Z" fill="#4A4A4A"/>
</g>
<defs>
<clipPath id="clip0_1355_3214">
<rect width="24" height="24" fill="white"/>
</clipPath>
</defs>
</svg>
