<svg width="32" height="32" viewBox="0 0 32 32" fill="none" xmlns="http://www.w3.org/2000/svg">
<g clip-path="url(#clip0_1079_594)">
<path d="M8.01639 6.30303H17C17.5523 6.30303 18 6.73718 18 7.27273C18 7.80828 17.5523 8.24243 17 8.24243H8.38004L9.83458 16H25.6802L25.9194 14.8401C26.0277 14.315 26.5546 13.9744 27.0961 14.0794C27.6377 14.1845 27.9889 14.6953 27.8806 15.2205L27.4806 17.1599C27.3871 17.6131 26.9767 17.9394 26.5 17.9394H10.1982L10.8346 21.3333H25C25.5523 21.3333 26 21.7675 26 22.303C26 22.8386 25.5523 23.2727 25 23.2727H10C9.51671 23.2727 9.10258 22.9376 9.01613 22.4765L5.16542 1.93939H1C0.447716 1.93939 0 1.50525 0 0.969698C0 0.434149 0.447716 5.27411e-07 1 5.27411e-07H6C6.48329 5.27411e-07 6.89742 0.335158 6.98387 0.796239L8.01639 6.30303ZM22.4142 2.42424H26.9961C29.757 2.42424 31.9978 4.59791 31.9978 7.27273C31.9978 9.95182 29.7613 12.1212 26.9961 12.1212H21C20.4477 12.1212 20 11.6871 20 11.1515C20 10.616 20.4477 10.1818 21 10.1818H26.9961C28.6566 10.1818 29.9978 8.88085 29.9978 7.27273C29.9978 5.66886 28.6523 4.36364 26.9961 4.36364H22.4142L23.2071 5.1325C23.5976 5.51119 23.5976 6.12517 23.2071 6.50386C22.8166 6.88255 22.1834 6.88255 21.7929 6.50386L19.2929 4.07962C18.9024 3.70093 18.9024 3.08695 19.2929 2.70826L21.7929 0.284017C22.1834 -0.0946725 22.8166 -0.0946725 23.2071 0.284017C23.5976 0.662708 23.5976 1.27669 23.2071 1.65538L22.4142 2.42424ZM11 32C9.067 32 7.5 30.4805 7.5 28.6061C7.5 26.7316 9.067 25.2121 11 25.2121C12.933 25.2121 14.5 26.7316 14.5 28.6061C14.5 30.4805 12.933 32 11 32ZM11 30.0606C11.8284 30.0606 12.5 29.4094 12.5 28.6061C12.5 27.8027 11.8284 27.1515 11 27.1515C10.1716 27.1515 9.5 27.8027 9.5 28.6061C9.5 29.4094 10.1716 30.0606 11 30.0606ZM23 32C21.067 32 19.5 30.4805 19.5 28.6061C19.5 26.7316 21.067 25.2121 23 25.2121C24.933 25.2121 26.5 26.7316 26.5 28.6061C26.5 30.4805 24.933 32 23 32ZM23 30.0606C23.8284 30.0606 24.5 29.4094 24.5 28.6061C24.5 27.8027 23.8284 27.1515 23 27.1515C22.1716 27.1515 21.5 27.8027 21.5 28.6061C21.5 29.4094 22.1716 30.0606 23 30.0606Z" fill="#4A90E2"/>
</g>
<defs>
<clipPath id="clip0_1079_594">
<rect width="32" height="32" fill="white"/>
</clipPath>
</defs>
</svg>
