<svg width="32" height="32" viewBox="0 0 32 32" fill="none" xmlns="http://www.w3.org/2000/svg">
<path d="M29.1653 6.46872C27.5567 6.11709 25.4254 5.92341 23.1639 5.92341C20.0451 5.92341 16.4576 6.32791 15.0238 7.22434C13.5152 6.36971 11.8105 5.92144 10.0766 5.92341C4.52031 5.92341 0 10.4437 0 16C0 21.5562 4.52031 26.0765 10.0766 26.0765C11.8103 26.0785 13.5149 25.6303 15.0235 24.7758C16.4574 25.6721 20.0454 26.0765 23.1639 26.0765C25.4254 26.0765 27.5567 25.8828 29.1653 25.5312C31.0728 25.1142 32 24.5328 32 23.7541V8.24585C32 7.46703 31.0728 6.88572 29.1653 6.46872V6.46872ZM31 18.5662C30.9636 18.6228 30.6293 19.05 28.7044 19.4367C27.1944 19.74 25.2268 19.9071 23.1639 19.9071C21.9214 19.91 20.6796 19.8451 19.4442 19.7126C19.9138 18.5312 20.1543 17.2713 20.1531 16C20.1531 15.8712 20.1498 15.7432 20.145 15.6155C21.1069 15.6962 22.1191 15.7377 23.1637 15.7377C25.4253 15.7377 27.5566 15.5439 29.1651 15.1923C29.9355 15.0239 30.5471 14.828 30.9999 14.6045L31 18.5662ZM31 13.3968C30.9637 13.4533 30.6294 13.8805 28.7044 14.2672C27.1944 14.5706 25.2268 14.7377 23.1639 14.7377C22.0841 14.7377 21.0408 14.6929 20.056 14.6047C19.8372 13.0338 19.2485 11.5373 18.3385 10.2383C19.7464 10.4529 21.4104 10.5682 23.1639 10.5682C25.4254 10.5682 27.5567 10.3745 29.1653 10.0229C29.9356 9.85449 30.5472 9.65853 31 9.43503V13.3968ZM23.1639 6.92341C25.2268 6.92341 27.1944 7.09047 28.7044 7.39384C30.4876 7.75209 30.9056 8.14491 30.9864 8.24585C30.9057 8.34672 30.4879 8.73959 28.7044 9.09778C27.1944 9.40116 25.2268 9.56822 23.1639 9.56822C20.9861 9.56822 18.8819 9.37697 17.3584 9.04203C16.9401 8.60467 16.4836 8.20556 15.9942 7.84947C17.1987 7.35691 19.7844 6.92341 23.1639 6.92341V6.92341ZM1 16C1 10.9952 5.07169 6.92341 10.0766 6.92341C15.0814 6.92341 19.1531 10.9952 19.1531 16C19.1531 21.0048 15.0813 25.0765 10.0766 25.0765C5.07188 25.0765 1 21.0048 1 16V16ZM28.7044 24.6062C27.1944 24.9095 25.2268 25.0767 23.1639 25.0767C19.7846 25.0767 17.1988 24.6433 15.994 24.1507C17.2511 23.2357 18.281 22.0441 19.0044 20.6679C20.3848 20.8314 21.7738 20.9113 23.1639 20.9072C25.4254 20.9072 27.5567 20.7135 29.1653 20.3619C29.9356 20.1934 30.5472 19.9975 31 19.774V23.7356C30.9633 23.7927 30.6282 24.2196 28.7044 24.6062V24.6062ZM12.1388 11.2322H8.41431C8.2817 11.2322 8.15453 11.2849 8.06076 11.3787C7.96699 11.4724 7.91431 11.5996 7.91431 11.7322V15.7812H6.34013C6.20752 15.7812 6.08034 15.8339 5.98657 15.9277C5.8928 16.0214 5.84013 16.1486 5.84013 16.2812C5.84013 16.4138 5.8928 16.541 5.98657 16.6348C6.08034 16.7285 6.20752 16.7812 6.34013 16.7812H7.91431V17.6669H6.34013C6.20752 17.6669 6.08034 17.7196 5.98657 17.8134C5.8928 17.9071 5.84013 18.0343 5.84013 18.1669C5.84013 18.2995 5.8928 18.4267 5.98657 18.5205C6.08034 18.6142 6.20752 18.6669 6.34013 18.6669H7.91431V20.2676C7.91431 20.4002 7.96699 20.5274 8.06076 20.6211C8.15453 20.7149 8.2817 20.7676 8.41431 20.7676C8.54692 20.7676 8.6741 20.7149 8.76787 20.6211C8.86163 20.5274 8.91431 20.4002 8.91431 20.2676V18.667H13.8129C13.9455 18.667 14.0727 18.6144 14.1665 18.5206C14.2603 18.4268 14.3129 18.2996 14.3129 18.167C14.3129 18.0344 14.2603 17.9072 14.1665 17.8135C14.0727 17.7197 13.9455 17.667 13.8129 17.667H8.91431V16.7812H12.1388C13.3376 16.7812 14.3129 15.6195 14.3129 14.1915V13.8218C14.3129 12.3937 13.3375 11.2322 12.1388 11.2322V11.2322ZM13.3129 14.1916C13.3129 15.0533 12.7754 15.7813 12.1388 15.7813H8.91431V12.2322H12.1388C12.7752 12.2322 13.3129 12.9602 13.3129 13.8219V14.1916Z" fill="#4A4A4A"/>
</svg>
