<svg width="24" height="24" viewBox="0 0 24 24" fill="none" xmlns="http://www.w3.org/2000/svg">
<path d="M21.6792 5.13455H20.0232V3.44776C20.0232 3.00339 19.6628 2.64299 19.2185 2.64299H17.291V0.804768C17.291 0.360323 16.9307 0 16.4863 0H2.32062C1.87625 0 1.51593 0.360323 1.51593 0.804768V18.0607C1.51593 18.5051 1.87625 18.8655 2.32062 18.8655H4.24813V20.7038C4.24813 21.1482 4.60837 21.5084 5.05282 21.5084H6.7089V23.1952C6.7089 23.6397 7.06914 24 7.51359 24H21.6792C22.1236 24 22.4839 23.6397 22.4839 23.1952V5.93931C22.4839 5.49487 22.1236 5.13455 21.6792 5.13455ZM3.12547 1.60945H15.6817V17.2561H3.12547V1.60945ZM5.85751 18.8655H16.4863C16.9307 18.8655 17.291 18.5051 17.291 18.0607V4.25253H18.4137V19.8991H5.85751V18.8655ZM20.8745 22.3905H8.31827V21.5084H19.2185C19.6628 21.5084 20.0232 21.1482 20.0232 20.7038V6.74392H20.8745V22.3905Z" fill="#4A4A4A"/>
</svg>
