<svg width="24" height="24" viewBox="0 0 24 24" fill="none" xmlns="http://www.w3.org/2000/svg">
<g clip-path="url(#clip0_159_698)">
<path d="M23.414 20.5866L20.6108 17.7838C20.536 17.7086 17.5 14.5 17.5 14.5L17 15L20.3288 18.633L22.8484 21.1522C23.0748 21.379 23.2 21.6802 23.2 22.0006C23.2 22.321 23.0748 22.6226 22.8484 22.849C22.3808 23.3166 21.62 23.3174 21.1516 22.8494L15.5 17L15 17.5L20.586 23.415C20.9756 23.805 21.4876 23.9998 21.9996 23.9998C22.5116 23.9998 23.0244 23.8047 23.414 23.415C23.7916 23.037 24 22.535 24 22.0006C24 21.4666 23.7916 20.9642 23.414 20.5866Z" fill="#4A4A4A"/>
<path d="M19.2 9.60049C19.2 4.30727 14.8932 0.000488281 9.6 0.000488281C4.30678 0.000488281 0 4.30727 0 9.60049C0 14.8937 4.30678 19.2005 9.6 19.2005C14.8932 19.2005 19.2 14.8937 19.2 9.60049ZM9.6 18.4005C4.74759 18.4005 0.800016 14.4529 0.800016 9.60049C0.800016 4.74808 4.74759 0.800457 9.6 0.800457C14.4524 0.800457 18.4 4.74803 18.4 9.60044C18.4 14.4528 14.4524 18.4005 9.6 18.4005Z" fill="#4A4A4A"/>
<path d="M9.59999 1.60059C5.18877 1.60059 1.59998 5.18938 1.59998 9.6006C1.59998 14.0118 5.18877 17.6006 9.59999 17.6006C14.0112 17.6006 17.6 14.0118 17.6 9.60055C17.6 5.18934 14.0112 1.60059 9.59999 1.60059ZM9.59999 16.8006C5.63001 16.8006 2.39999 13.5706 2.39999 9.6006C2.39999 5.63062 5.63001 2.4006 9.59999 2.4006C13.57 2.4006 16.8 5.63062 16.8 9.6006C16.8 13.5706 13.57 16.8006 9.59999 16.8006Z" fill="#4A4A4A"/>
</g>
<defs>
<clipPath id="clip0_159_698">
<rect width="24" height="24" fill="white"/>
</clipPath>
</defs>
</svg>
