<svg width="12" height="12" viewBox="0 0 12 12" fill="none" xmlns="http://www.w3.org/2000/svg">
<path d="M11.8801 3.22238L11.2789 2.62126C11.1988 2.54099 11.1066 2.50098 11.0022 2.50098C10.8982 2.50098 10.8059 2.54099 10.7258 2.62126L6.00006 7.34677L1.27451 2.62139C1.19436 2.54111 1.10213 2.5011 0.997933 2.5011C0.893696 2.5011 0.801463 2.54111 0.721359 2.62139L0.120283 3.22255C0.04001 3.30265 0 3.39488 0 3.49912C0 3.60327 0.0401363 3.69551 0.120283 3.77561L5.72349 9.37894C5.80359 9.45909 5.89587 9.49914 6.00006 9.49914C6.10426 9.49914 6.19637 9.45909 6.27643 9.37894L11.8801 3.77561C11.9602 3.69546 12 3.60323 12 3.49912C12 3.39488 11.9602 3.30265 11.8801 3.22238Z" fill="black"/>
</svg>
