<svg width="24" height="24" viewBox="0 0 24 24" fill="none" xmlns="http://www.w3.org/2000/svg">
<g clip-path="url(#clip0_1303_1346)">
<path d="M23.9452 9.2136C23.7988 8.76288 23.3979 8.47162 22.9239 8.47162H15.359L13.0213 1.27694C12.8748 0.826173 12.474 0.534912 12 0.534912C11.526 0.534912 11.1251 0.826173 10.9787 1.27694L8.92446 7.59929L9.59313 7.81659L11.6474 1.49419C11.7246 1.25646 11.9368 1.23799 12 1.23799C12.0632 1.23799 12.2754 1.25646 12.3526 1.49419L14.7692 8.93181C14.8163 9.07664 14.9513 9.17474 15.1036 9.17474H22.9239C23.1739 9.17474 23.257 9.37086 23.2766 9.43095C23.2961 9.49104 23.3441 9.69858 23.1419 9.84553L16.8151 14.4421C16.6919 14.5316 16.6403 14.6903 16.6874 14.8351L19.104 22.2727C19.1812 22.5104 19.0204 22.6501 18.9693 22.6872C18.9182 22.7244 18.7357 22.8342 18.5334 22.6872L12.2067 18.0906C12.0835 18.0011 11.9166 18.0011 11.7934 18.0906L5.46663 22.6873C5.26443 22.8342 5.08191 22.7244 5.03077 22.6873C4.97963 22.6501 4.81881 22.5104 4.89606 22.2727L7.31268 14.8352C7.35974 14.6903 7.30818 14.5316 7.18495 14.4422L0.858195 9.84548C0.65599 9.69854 0.70394 9.49104 0.723485 9.4309C0.743031 9.37081 0.826134 9.1747 1.0761 9.1747H8.89647C9.04876 9.1747 9.18375 9.07659 9.23081 8.93176L9.59313 7.81659L8.92446 7.59929L8.64102 8.47157H1.07605C0.602134 8.47157 0.201239 8.76284 0.054765 9.21355C-0.0917093 9.66432 0.0614208 10.1356 0.444879 10.4142L6.56502 14.8607L4.22734 22.0555C4.08087 22.5063 4.234 22.9775 4.61745 23.2561C5.00091 23.5347 5.49644 23.5347 5.87985 23.2561L12 18.8096L18.1202 23.2561C18.3119 23.3954 18.5316 23.4651 18.7514 23.4651C18.9711 23.4651 19.1909 23.3954 19.3826 23.2561C19.766 22.9775 19.9192 22.5063 19.7727 22.0555L17.435 14.8608L23.5552 10.4143C23.9386 10.1357 24.0917 9.66437 23.9452 9.2136Z" fill="#4A4A4A"/>
<path d="M13.2962 17.8872L17.0597 20.6276C17.1828 20.7173 17.3498 20.7174 17.4731 20.6279C17.5964 20.5385 17.648 20.3797 17.6009 20.2348L15.6684 14.2866L20.7284 10.6102C20.8516 10.5207 20.9032 10.362 20.8561 10.2172C20.8091 10.0724 20.6741 9.97426 20.5218 9.97426H14.2672L12.3345 4.02609C12.2874 3.88126 12.1524 3.7832 12.0001 3.7832C11.8479 3.7832 11.7129 3.88126 11.6658 4.02609L9.73304 9.97431H3.47852C3.32623 9.97431 3.19124 10.0724 3.14418 10.2172C3.09712 10.3621 3.14868 10.5207 3.27191 10.6103L8.3319 14.2867L6.39938 20.2348C6.35232 20.3798 6.40393 20.5385 6.52725 20.628C6.65057 20.7175 6.81748 20.7173 6.94066 20.6277L12.0002 16.9435L13.2962 17.8872L13.7101 17.3188L12.2072 16.2244C12.0838 16.1346 11.9167 16.1346 11.7933 16.2244L7.403 19.4213L9.07867 14.2637C9.12038 14.1387 9.08884 13.9989 8.99373 13.9037C8.9807 13.8907 8.96669 13.8787 8.95178 13.8679L4.56051 10.6774H9.98854C10.1408 10.6774 10.2758 10.5793 10.3229 10.4345L12.0002 5.27227L13.6776 10.4345C13.7246 10.5793 13.8596 10.6774 14.0119 10.6774H19.44L15.0487 13.8679C15.0338 13.8787 15.0198 13.8907 15.0067 13.9037C14.9116 13.9988 14.88 14.1387 14.9218 14.2637L16.5975 19.4213L13.7101 17.3188L13.2962 17.8872Z" fill="#4A4A4A"/>
</g>
<defs>
<clipPath id="clip0_1303_1346">
<rect width="24" height="24" fill="white"/>
</clipPath>
</defs>
</svg>
