<svg width="20" height="20" viewBox="0 0 20 20" fill="none" xmlns="http://www.w3.org/2000/svg">
<path d="M19.6428 8.90158L17.5 5.33002V5.31252H17.4894L16.8303 4.21408C16.8025 4.16786 16.7633 4.12961 16.7164 4.10305C16.6694 4.07649 16.6164 4.06253 16.5625 4.06252H12.5C12.4171 4.06252 12.3376 4.09544 12.279 4.15405C12.2204 4.21265 12.1875 4.29214 12.1875 4.37502V9.06252H12.0138C12.1262 8.87335 12.1862 8.6576 12.1875 8.43752C12.1875 8.106 12.0558 7.78806 11.8214 7.55364C11.587 7.31922 11.269 7.18752 10.9375 7.18752H10.7638C10.8703 7.00851 10.9298 6.80546 10.9368 6.59726C10.9438 6.38906 10.8981 6.18248 10.8038 5.99671C10.7095 5.81094 10.5698 5.65204 10.3976 5.53476C10.2255 5.41749 10.0264 5.34566 9.81906 5.32596C9.93395 5.13699 9.99634 4.92079 9.99978 4.69966C10.0032 4.47854 9.9476 4.2605 9.83865 4.06805C9.7297 3.87559 9.57137 3.7157 9.38 3.60486C9.18863 3.49402 8.97115 3.43625 8.75 3.43752H3.75C3.52885 3.43625 3.31137 3.49402 3.12 3.60486C2.92863 3.7157 2.7703 3.87559 2.66135 4.06805C2.5524 4.2605 2.49678 4.47854 2.50022 4.69966C2.50366 4.92079 2.56605 5.13699 2.68094 5.32596C2.47231 5.34597 2.27219 5.41868 2.09938 5.53726C1.92656 5.65584 1.78673 5.8164 1.693 6.00386C1.59927 6.19132 1.55472 6.39953 1.56355 6.60893C1.57237 6.81833 1.63427 7.02205 1.74344 7.20096C1.53605 7.22066 1.33702 7.29249 1.16485 7.40976C0.99268 7.52704 0.852962 7.68594 0.758692 7.87171C0.664421 8.05748 0.61866 8.26406 0.625663 8.47226C0.632667 8.68046 0.692209 8.88351 0.79875 9.06252H0.625C0.54212 9.06252 0.462634 9.09544 0.404029 9.15405C0.345424 9.21265 0.3125 9.29214 0.3125 9.37502V10.625C0.3125 10.7079 0.345424 10.7874 0.404029 10.846C0.462634 10.9046 0.54212 10.9375 0.625 10.9375H0.9375V12.8125H0.625C0.54212 12.8125 0.462634 12.8454 0.404029 12.904C0.345424 12.9627 0.3125 13.0421 0.3125 13.125V14.375C0.3125 14.4579 0.345424 14.5374 0.404029 14.596C0.462634 14.6546 0.54212 14.6875 0.625 14.6875H1.9C1.97472 15.2078 2.2345 15.6837 2.6317 16.0279C3.0289 16.3721 3.53689 16.5616 4.0625 16.5616C4.58811 16.5616 5.0961 16.3721 5.4933 16.0279C5.8905 15.6837 6.15028 15.2078 6.225 14.6875H13.15C13.2247 15.2078 13.4845 15.6837 13.8817 16.0279C14.2789 16.3721 14.7869 16.5616 15.3125 16.5616C15.8381 16.5616 16.3461 16.3721 16.7433 16.0279C17.1405 15.6837 17.4003 15.2078 17.475 14.6875H19.375C19.4579 14.6875 19.5374 14.6546 19.596 14.596C19.6546 14.5374 19.6875 14.4579 19.6875 14.375V9.06252C19.6875 9.00581 19.672 8.95018 19.6428 8.90158ZM17.1356 5.93752L18.8231 8.75002H14.0625V5.93752H17.1356ZM10.9375 7.81252C11.0467 7.81285 11.1539 7.8419 11.2484 7.89675C11.3428 7.9516 11.4212 8.03032 11.4756 8.12502H10.3125V8.75002H11.4756C11.4212 8.84472 11.3428 8.92344 11.2484 8.97829C11.1539 9.03314 11.0467 9.06219 10.9375 9.06252H7.01375C7.12743 8.87387 7.18751 8.65778 7.18751 8.43752C7.18751 8.21726 7.12743 8.00117 7.01375 7.81252H10.9375ZM9.6875 5.93752C9.79672 5.93785 9.90394 5.9669 9.99839 6.02175C10.0928 6.0766 10.1712 6.15532 10.2256 6.25002H9.0625V6.87502H10.2256C10.1712 6.96972 10.0928 7.04844 9.99839 7.10329C9.90394 7.15814 9.79672 7.18719 9.6875 7.18752H5.76375C5.87743 6.99887 5.93751 6.78278 5.93751 6.56252C5.93751 6.34226 5.87743 6.12617 5.76375 5.93752H9.6875ZM6.5625 8.43752C6.5625 8.56113 6.52584 8.68197 6.45717 8.78475C6.38849 8.88753 6.29088 8.96764 6.17668 9.01495C6.06247 9.06225 5.93681 9.07463 5.81557 9.05051C5.69433 9.0264 5.58297 8.96687 5.49556 8.87946C5.40815 8.79205 5.34862 8.68069 5.32451 8.55945C5.30039 8.43821 5.31277 8.31255 5.36008 8.19834C5.40738 8.08414 5.48749 7.98653 5.59027 7.91785C5.69305 7.84918 5.81389 7.81252 5.9375 7.81252C6.10326 7.81252 6.26223 7.87837 6.37944 7.99558C6.49665 8.11279 6.5625 8.27176 6.5625 8.43752ZM4.82625 4.06252H8.75C8.85922 4.06285 8.96644 4.0919 9.06089 4.14675C9.15534 4.2016 9.23371 4.28032 9.28813 4.37502H8.125V5.00002H9.28813C9.23371 5.09472 9.15534 5.17345 9.06089 5.22829C8.96644 5.28314 8.85922 5.31219 8.75 5.31252H4.82625C4.93993 5.12387 5.00001 4.90778 5.00001 4.68752C5.00001 4.46726 4.93993 4.25117 4.82625 4.06252V4.06252ZM5.3125 6.56252C5.3125 6.68613 5.27584 6.80697 5.20717 6.90975C5.13849 7.01253 5.04088 7.09264 4.92668 7.13995C4.81247 7.18725 4.68681 7.19963 4.56557 7.17551C4.44433 7.1514 4.33297 7.09187 4.24556 7.00446C4.15815 6.91705 4.09862 6.80569 4.07451 6.68445C4.05039 6.56321 4.06277 6.43755 4.11008 6.32334C4.15738 6.20914 4.23749 6.11153 4.34027 6.04285C4.44305 5.97418 4.56389 5.93752 4.6875 5.93752C4.85326 5.93752 5.01223 6.00337 5.12944 6.12058C5.24665 6.23779 5.3125 6.39676 5.3125 6.56252ZM4.84375 7.84377C4.83781 7.83283 4.8325 7.8219 4.82625 7.81252H4.86125C4.855 7.82315 4.84969 7.83408 4.84375 7.84377V7.84377ZM4.86125 9.06252H4.82625C4.8325 9.0519 4.83781 9.04096 4.84375 9.03127C4.84969 9.04096 4.855 9.0519 4.86125 9.06252V9.06252ZM4.375 8.43752C4.375 8.56113 4.33834 8.68197 4.26967 8.78475C4.20099 8.88753 4.10338 8.96764 3.98918 9.01495C3.87497 9.06225 3.74931 9.07463 3.62807 9.05051C3.50683 9.0264 3.39547 8.96687 3.30806 8.87946C3.22065 8.79205 3.16112 8.68069 3.13701 8.55945C3.11289 8.43821 3.12527 8.31255 3.17258 8.19834C3.21988 8.08414 3.29999 7.98653 3.40277 7.91785C3.50555 7.84918 3.62639 7.81252 3.75 7.81252C3.91576 7.81252 4.07473 7.87837 4.19194 7.99558C4.30915 8.11279 4.375 8.27176 4.375 8.43752ZM3.75 4.06252C3.87361 4.06252 3.99445 4.09918 4.09723 4.16785C4.20001 4.23653 4.28012 4.33414 4.32742 4.44834C4.37473 4.56255 4.38711 4.68821 4.36299 4.80945C4.33888 4.93069 4.27935 5.04205 4.19194 5.12946C4.10453 5.21687 3.99317 5.2764 3.87193 5.30051C3.75069 5.32463 3.62503 5.31225 3.51082 5.26495C3.39662 5.21764 3.29901 5.13753 3.23033 5.03475C3.16166 4.93197 3.125 4.81113 3.125 4.68752C3.125 4.52176 3.19085 4.36279 3.30806 4.24558C3.42527 4.12837 3.58424 4.06252 3.75 4.06252V4.06252ZM2.8125 5.93752C2.93611 5.93752 3.05695 5.97418 3.15973 6.04285C3.26251 6.11153 3.34262 6.20914 3.38992 6.32334C3.43723 6.43755 3.44961 6.56321 3.42549 6.68445C3.40138 6.80569 3.34185 6.91705 3.25444 7.00446C3.16703 7.09187 3.05567 7.1514 2.93443 7.17551C2.81319 7.19963 2.68753 7.18725 2.57332 7.13995C2.45912 7.09264 2.36151 7.01253 2.29283 6.90975C2.22416 6.80697 2.1875 6.68613 2.1875 6.56252C2.1875 6.39676 2.25335 6.23779 2.37056 6.12058C2.48777 6.00337 2.64674 5.93752 2.8125 5.93752ZM1.875 7.81252C1.99861 7.81252 2.11945 7.84918 2.22223 7.91785C2.32501 7.98653 2.40512 8.08414 2.45242 8.19834C2.49973 8.31255 2.51211 8.43821 2.48799 8.55945C2.46388 8.68069 2.40435 8.79205 2.31694 8.87946C2.22953 8.96687 2.11817 9.0264 1.99693 9.05051C1.87569 9.07463 1.75003 9.06225 1.63582 9.01495C1.52162 8.96764 1.42401 8.88753 1.35533 8.78475C1.28666 8.68197 1.25 8.56113 1.25 8.43752C1.25 8.27176 1.31585 8.11279 1.43306 7.99558C1.55027 7.87837 1.70924 7.81252 1.875 7.81252V7.81252ZM0.9375 9.68752H12.1875V10.3125H0.9375V9.68752ZM1.9 14.0625H0.9375V13.4375H2.08906C1.99485 13.6351 1.9311 13.8458 1.9 14.0625V14.0625ZM4.0625 15.9375C3.75347 15.9375 3.45137 15.8459 3.19442 15.6742C2.93747 15.5025 2.7372 15.2585 2.61894 14.973C2.50068 14.6875 2.46973 14.3733 2.53002 14.0702C2.59031 13.7671 2.73913 13.4887 2.95765 13.2702C3.17617 13.0516 3.45458 12.9028 3.75767 12.8425C4.06077 12.7823 4.37493 12.8132 4.66044 12.9315C4.94595 13.0497 5.18998 13.25 5.36167 13.5069C5.53336 13.7639 5.625 14.066 5.625 14.375C5.6245 14.7893 5.45972 15.1864 5.16681 15.4793C4.87389 15.7722 4.47675 15.937 4.0625 15.9375V15.9375ZM5.59031 12.8125C5.18265 12.412 4.634 12.1876 4.0625 12.1876C3.491 12.1876 2.94235 12.412 2.53469 12.8125H1.5625V10.9375H12.1875V12.8125H5.59031ZM13.15 14.0625H6.225C6.1939 13.8458 6.13015 13.6351 6.03594 13.4375H13.3391C13.2448 13.6351 13.1811 13.8458 13.15 14.0625V14.0625ZM15.3125 15.9375C15.0035 15.9375 14.7014 15.8459 14.4444 15.6742C14.1875 15.5025 13.9872 15.2585 13.8689 14.973C13.7507 14.6875 13.7197 14.3733 13.78 14.0702C13.8403 13.7671 13.9891 13.4887 14.2076 13.2702C14.4262 13.0516 14.7046 12.9028 15.0077 12.8425C15.3108 12.7823 15.6249 12.8132 15.9104 12.9315C16.196 13.0497 16.44 13.25 16.6117 13.5069C16.7834 13.7639 16.875 14.066 16.875 14.375C16.8745 14.7893 16.7097 15.1864 16.4168 15.4793C16.1239 15.7722 15.7267 15.937 15.3125 15.9375ZM19.0625 14.0625H17.475C17.4439 13.8458 17.3802 13.6351 17.2859 13.4375H19.0625V14.0625ZM19.0625 12.8125H18.4375V12.1875H19.0625V12.8125ZM19.0625 11.5625H18.125C18.0421 11.5625 17.9626 11.5954 17.904 11.654C17.8454 11.7127 17.8125 11.7921 17.8125 11.875V12.8125H16.8403C16.4326 12.412 15.884 12.1876 15.3125 12.1876C14.741 12.1876 14.1924 12.412 13.7847 12.8125H12.8125V4.68752H16.3856L16.7606 5.31252H13.75C13.6671 5.31252 13.5876 5.34544 13.529 5.40405C13.4704 5.46265 13.4375 5.54214 13.4375 5.62502V9.06252C13.4375 9.1454 13.4704 9.22489 13.529 9.28349C13.5876 9.3421 13.6671 9.37502 13.75 9.37502H19.0625V11.5625Z" fill="#4A4A4A"/>
<path d="M15.3125 13.4375C15.1271 13.4375 14.9458 13.4925 14.7917 13.5955C14.6375 13.6985 14.5173 13.8449 14.4464 14.0162C14.3754 14.1875 14.3568 14.376 14.393 14.5579C14.4292 14.7398 14.5185 14.9068 14.6496 15.0379C14.7807 15.169 14.9477 15.2583 15.1296 15.2945C15.3115 15.3307 15.5 15.3121 15.6713 15.2411C15.8426 15.1702 15.989 15.05 16.092 14.8958C16.195 14.7417 16.25 14.5604 16.25 14.375C16.25 14.1264 16.1512 13.8879 15.9754 13.7121C15.7996 13.5363 15.5611 13.4375 15.3125 13.4375ZM15.3125 14.6875C15.2507 14.6875 15.1903 14.6692 15.1389 14.6348C15.0875 14.6005 15.0474 14.5517 15.0238 14.4946C15.0001 14.4375 14.9939 14.3747 15.006 14.314C15.0181 14.2534 15.0478 14.1977 15.0915 14.154C15.1352 14.1103 15.1909 14.0806 15.2515 14.0685C15.3122 14.0564 15.375 14.0626 15.4321 14.0863C15.4892 14.1099 15.538 14.15 15.5723 14.2014C15.6067 14.2528 15.625 14.3132 15.625 14.375C15.625 14.4579 15.5921 14.5374 15.5335 14.596C15.4749 14.6546 15.3954 14.6875 15.3125 14.6875Z" fill="#4A4A4A"/>
<path d="M4.0625 13.4375C3.87708 13.4375 3.69582 13.4925 3.54165 13.5955C3.38748 13.6985 3.26732 13.8449 3.19636 14.0162C3.12541 14.1875 3.10684 14.376 3.14301 14.5579C3.17919 14.7398 3.26848 14.9068 3.39959 15.0379C3.5307 15.169 3.69775 15.2583 3.8796 15.2945C4.06146 15.3307 4.24996 15.3121 4.42127 15.2411C4.59257 15.1702 4.73899 15.05 4.842 14.8958C4.94502 14.7417 5 14.5604 5 14.375C5 14.1264 4.90123 13.8879 4.72541 13.7121C4.5496 13.5363 4.31114 13.4375 4.0625 13.4375ZM4.0625 14.6875C4.00069 14.6875 3.94028 14.6692 3.88888 14.6348C3.83749 14.6005 3.79744 14.5517 3.77379 14.4946C3.75014 14.4375 3.74395 14.3747 3.75601 14.314C3.76806 14.2534 3.79783 14.1977 3.84153 14.154C3.88523 14.1103 3.94092 14.0806 4.00153 14.0685C4.06215 14.0564 4.12499 14.0626 4.18209 14.0863C4.23919 14.1099 4.288 14.15 4.32233 14.2014C4.35667 14.2528 4.375 14.3132 4.375 14.375C4.375 14.4579 4.34208 14.5374 4.28347 14.596C4.22487 14.6546 4.14538 14.6875 4.0625 14.6875Z" fill="#4A4A4A"/>
<path d="M13.4375 10H14.6875V10.625H13.4375V10Z" fill="#4A4A4A"/>
<path d="M5.625 4.375H6.5625V5H5.625V4.375Z" fill="#4A4A4A"/>
<path d="M6.5625 6.25H7.5V6.875H6.5625V6.25Z" fill="#4A4A4A"/>
<path d="M7.8125 8.125H8.75V8.75H7.8125V8.125Z" fill="#4A4A4A"/>
</svg>
