<svg width="16" height="16" viewBox="0 0 16 16" fill="none" xmlns="http://www.w3.org/2000/svg">
<g clip-path="url(#clip0_1403_668)">
<path d="M14.5492 2.05078H1.38831C0.605591 2.05078 -0.03125 2.68887 -0.03125 3.47311V12.5321C-0.03125 13.3163 0.605591 13.9544 1.38831 13.9544H14.5492C15.3319 13.9544 15.9688 13.3163 15.9688 12.5321V3.47311C15.9688 2.68887 15.3319 2.05078 14.5492 2.05078ZM1.38831 3.00284H14.5492C14.808 3.00284 15.0184 3.21382 15.0184 3.47311V3.89337H0.918945V3.47311C0.918945 3.21382 1.12952 3.00284 1.38831 3.00284ZM15.0186 11.1596H0.918945V4.84555H15.0186V11.1596ZM14.5492 13.0022H1.38831C1.12952 13.0022 0.918945 12.7914 0.918945 12.5321V12.1117H15.0186V12.5321C15.0186 12.7914 14.808 13.0022 14.5492 13.0022Z" fill="#4A90E2"/>
<path d="M9.37354 6.82315H13.3533C13.6157 6.82315 13.8285 6.61009 13.8285 6.34712C13.8285 6.08428 13.6157 5.87109 13.3533 5.87109H9.37354C9.11108 5.87109 8.89844 6.08428 8.89844 6.34712C8.89844 6.61009 9.11108 6.82315 9.37354 6.82315Z" fill="#4A90E2"/>
<path d="M9.37354 8.47842H13.3533C13.6157 8.47842 13.8285 8.26524 13.8285 8.00239C13.8285 7.73943 13.6157 7.52637 13.3533 7.52637H9.37354C9.11108 7.52637 8.89844 7.73943 8.89844 8.00239C8.89844 8.26524 9.11108 8.47842 9.37354 8.47842Z" fill="#4A90E2"/>
<path d="M9.37354 10.1338H13.3533C13.6157 10.1338 13.8285 9.92063 13.8285 9.65767C13.8285 9.39483 13.6157 9.18164 13.3533 9.18164H9.37354C9.11108 9.18164 8.89844 9.39483 8.89844 9.65767C8.89844 9.92063 9.11108 10.1338 9.37354 10.1338Z" fill="#4A90E2"/>
<path d="M2.35999 10.6409H7.14258C7.40491 10.6409 7.61768 10.4277 7.61768 10.1649V5.84029C7.61768 5.57744 7.40491 5.36426 7.14258 5.36426H2.35999C2.09753 5.36426 1.88477 5.57744 1.88477 5.84029V10.1649C1.88477 10.4277 2.09753 10.6409 2.35999 10.6409ZM4.75122 8.3091C4.55518 8.3091 4.39575 8.14936 4.39575 7.95293C4.39575 7.7565 4.55518 7.59677 4.75122 7.59677C4.94727 7.59677 5.10669 7.7565 5.10669 7.95293C5.10669 8.14936 4.94714 8.3091 4.75122 8.3091ZM4.21863 9.68874V9.53023C4.21863 9.38187 4.33911 9.26115 4.48718 9.26115H5.01526C5.16333 9.26115 5.28381 9.38187 5.28381 9.53023V9.68874H4.21863ZM2.83508 6.31631H6.66736V9.68874H6.23401V9.53023C6.23401 9.18361 6.08887 8.8705 5.85657 8.64802C5.98328 8.44645 6.05688 8.20819 6.05688 7.95293C6.05688 7.23155 5.47119 6.64471 4.75122 6.64471C4.03125 6.64471 3.44543 7.23155 3.44543 7.95293C3.44543 8.20819 3.51904 8.44645 3.64575 8.64802C3.41345 8.8705 3.26831 9.18361 3.26831 9.53023V9.68874H2.83508V6.31631Z" fill="#4A90E2"/>
</g>
<defs>
<clipPath id="clip0_1403_668">
<rect width="16" height="16" fill="white"/>
</clipPath>
</defs>
</svg>
