<svg width="24" height="24" viewBox="0 0 24 24" fill="none" xmlns="http://www.w3.org/2000/svg">
<path d="M23 12C23 5.9348 18.0652 1 12 1C5.9348 1 1 5.9348 1 12C1 15.2036 2.3776 18.0912 4.5704 20.1032L4.56 20.1124L4.9168 20.4132C4.94 20.4328 4.9652 20.4488 4.9884 20.468C5.178 20.6252 5.3744 20.7744 5.5744 20.9188C5.6392 20.9656 5.704 21.0124 5.77 21.058C5.9836 21.2052 6.2028 21.3448 6.4268 21.4772C6.4756 21.506 6.5248 21.534 6.574 21.562C6.8192 21.7016 7.0696 21.8332 7.326 21.954C7.3448 21.9628 7.364 21.9708 7.3828 21.9796C8.2184 22.368 9.1104 22.6532 10.0432 22.8216C10.0676 22.826 10.092 22.8304 10.1168 22.8348C10.4064 22.8848 10.6992 22.9248 10.9956 22.9516C11.0316 22.9548 11.0676 22.9568 11.104 22.96C11.3992 22.9844 11.6976 23 12 23C12.2996 23 12.5952 22.9844 12.8888 22.9608C12.926 22.9576 12.9632 22.9556 13.0004 22.9524C13.2944 22.9256 13.5848 22.8868 13.8716 22.8376C13.8964 22.8332 13.9216 22.8288 13.9464 22.824C14.8652 22.6592 15.7444 22.3804 16.5692 22.002C16.5996 21.988 16.6304 21.9748 16.6608 21.9604C16.9076 21.8444 17.1488 21.7192 17.3852 21.586C17.444 21.5528 17.5024 21.5192 17.5608 21.4848C17.776 21.358 17.9876 21.2256 18.1932 21.0848C18.2672 21.0344 18.3396 20.9812 18.4128 20.9284C18.5884 20.802 18.7608 20.6716 18.9284 20.5352C18.9656 20.5052 19.0056 20.4792 19.042 20.4484L19.408 20.1428L19.3972 20.1336C21.6092 18.1208 23 15.22 23 12ZM1.8 12C1.8 6.3756 6.3756 1.8 12 1.8C17.6244 1.8 22.2 6.3756 22.2 12C22.2 15.0308 20.87 17.7556 18.7644 19.6252C18.6468 19.544 18.5284 19.4712 18.4072 19.4104L15.0204 17.7172C14.7164 17.5652 14.5276 17.2596 14.5276 16.92V15.7372C14.606 15.6404 14.6888 15.5308 14.7744 15.4104C15.2128 14.7912 15.5644 14.1024 15.8208 13.3612C16.3276 13.1204 16.6548 12.6156 16.6548 12.0456V10.6276C16.6548 10.2808 16.5276 9.9444 16.3 9.68V7.8132C16.3208 7.6056 16.3944 6.434 15.5468 5.4676C14.8096 4.626 13.6164 4.2 12 4.2C10.3836 4.2 9.1904 4.626 8.4532 5.4672C7.6056 6.4336 7.6792 7.6052 7.7 7.8128V9.6796C7.4728 9.944 7.3452 10.2804 7.3452 10.6272V12.0452C7.3452 12.4856 7.5428 12.8964 7.8812 13.1736C8.2052 14.4428 8.872 15.4036 9.1184 15.7292V16.8868C9.1184 17.2132 8.9404 17.5132 8.6536 17.67L5.4908 19.3952C5.39 19.45 5.29 19.514 5.19 19.5856C3.1104 17.7168 1.8 15.0088 1.8 12ZM17.9836 20.2528C17.8436 20.3544 17.7012 20.4528 17.5568 20.5468C17.4904 20.59 17.4244 20.6332 17.3568 20.6752C17.168 20.792 16.976 20.9032 16.78 21.0072C16.7368 21.03 16.6932 21.0516 16.6496 21.074C16.1992 21.3048 15.7332 21.5032 15.2544 21.6644C15.2376 21.67 15.2208 21.676 15.2036 21.6816C14.9528 21.7648 14.6988 21.8388 14.442 21.9024L14.4396 21.9028C14.1804 21.9668 13.918 22.02 13.654 22.0636C13.6468 22.0648 13.6396 22.0664 13.6324 22.0676C13.384 22.108 13.1336 22.1372 12.8824 22.1592C12.838 22.1632 12.7936 22.166 12.7488 22.1692C12.5004 22.188 12.2508 22.2 12 22.2C11.7464 22.2 11.4936 22.1876 11.242 22.1688C11.1984 22.1656 11.1548 22.1628 11.1116 22.1588C10.858 22.1364 10.6056 22.1064 10.3556 22.0656C10.3444 22.0636 10.3332 22.0616 10.322 22.0596C9.7932 21.9712 9.2728 21.8412 8.766 21.6712C8.7504 21.666 8.7344 21.6604 8.7188 21.6552C8.4672 21.5696 8.2184 21.4748 7.974 21.37L7.9688 21.3676C7.7376 21.268 7.5108 21.1576 7.2868 21.0412C7.2576 21.026 7.228 21.0116 7.1992 20.996C6.9948 20.8868 6.7948 20.7688 6.5976 20.6456C6.5392 20.6088 6.4812 20.5716 6.4236 20.534C6.242 20.4152 6.0628 20.2916 5.8884 20.1608C5.8704 20.1472 5.8532 20.1328 5.8352 20.1192C5.848 20.112 5.8608 20.1048 5.8736 20.0976L9.0364 18.3724C9.5804 18.0756 9.9184 17.5064 9.9184 16.8868L9.918 15.446L9.826 15.3348C9.8172 15.3248 8.9524 14.2728 8.6256 12.8484L8.5892 12.69L8.4528 12.6016C8.2604 12.4772 8.1452 12.2692 8.1452 12.0448V10.6268C8.1452 10.4408 8.224 10.2676 8.368 10.1376L8.5 10.0184V7.7904L8.4964 7.738C8.4952 7.7284 8.3772 6.7664 9.0548 5.994C9.6332 5.3348 10.6244 5 12 5C13.3704 5 14.3584 5.332 14.9384 5.9864C15.6152 6.7508 15.5044 7.7308 15.5036 7.7388L15.5 10.0192L15.632 10.1384C15.7756 10.268 15.8548 10.4416 15.8548 10.6276V12.0456C15.8548 12.3308 15.6608 12.5896 15.3824 12.6756L15.1836 12.7368L15.1196 12.9348C14.8836 13.668 14.5476 14.3452 14.1212 14.9476C14.0164 15.0956 13.9144 15.2268 13.8268 15.3272L13.7276 15.4404V16.92C13.7276 17.5648 14.086 18.1448 14.6628 18.4328L18.0496 20.126C18.0712 20.1368 18.0924 20.148 18.1136 20.1592C18.0708 20.1916 18.0268 20.2216 17.9836 20.2528Z" fill="#4A4A4A"/>
</svg>
