<svg width="19" height="19" viewBox="0 0 19 19" fill="none" xmlns="http://www.w3.org/2000/svg">
<path d="M16.3879 6.89234C12.5722 3.03589 6.36425 3.03589 2.54859 6.89234L0 9.46785L2.61181 12.1076C4.51948 14.0356 7.02539 15 9.53161 15C12.0378 15 14.5434 14.036 16.4514 12.1076L19 9.53175L16.3879 6.89234ZM15.9973 11.6489C12.432 15.252 6.63095 15.252 3.06562 11.6489L0.90762 9.46785L3.0024 7.35067C6.56773 3.74756 12.3687 3.74756 15.9341 7.35067L18.0921 9.53175L15.9973 11.6489Z" fill="#4A90E2"/>
<path d="M9.17139 6.89526C7.93256 6.89526 6.9248 7.91379 6.9248 9.16586C6.9248 9.34492 7.06859 9.49023 7.24575 9.49023C7.4229 9.49023 7.56669 9.34492 7.56669 9.16586C7.56669 8.27157 8.28656 7.54401 9.17139 7.54401C9.34855 7.54401 9.49233 7.39869 9.49233 7.21964C9.49233 7.04058 9.34887 6.89526 9.17139 6.89526Z" fill="#4A90E2"/>
<path d="M9.49059 5.27338C7.19008 5.27338 5.31836 7.16511 5.31836 9.4902C5.31836 11.8153 7.19008 13.707 9.49059 13.707C11.7911 13.707 13.6628 11.8153 13.6628 9.4902C13.6628 7.16511 11.7914 5.27338 9.49059 5.27338ZM9.49059 13.0583C7.54408 13.0583 5.96024 11.4575 5.96024 9.4902C5.96024 7.52289 7.54408 5.92212 9.49059 5.92212C11.4371 5.92212 13.0209 7.52289 13.0209 9.4902C13.0209 11.4575 11.4374 13.0583 9.49059 13.0583Z" fill="#4A90E2"/>
</svg>
