<svg width="19" height="19" viewBox="0 0 19 19" fill="none" xmlns="http://www.w3.org/2000/svg">
<g clip-path="url(#clip0_583_943)">
<path d="M3.63122 12.0458C3.69042 12.0905 3.76121 12.1125 3.83168 12.1125C3.92628 12.1125 4.01992 12.073 4.08363 11.9972C4.19432 11.8651 4.17148 11.6727 4.03247 11.5675C3.77473 11.3723 3.52503 11.1604 3.29078 10.9374L0.910298 8.67483L3.36511 6.34156C5.725 4.09882 9.15801 3.3333 12.323 4.34319C12.4913 4.3961 12.6737 4.31046 12.7307 4.15051C12.787 3.99055 12.6966 3.81683 12.5279 3.76301C9.12937 2.6788 5.44377 3.5009 2.91012 5.90879L0 8.67483L2.83547 11.3699C3.08678 11.6091 3.35481 11.8363 3.63122 12.0458Z" fill="#4A90E2"/>
<path d="M16.1651 5.90932C15.7313 5.49705 15.2557 5.12514 14.7512 4.8034C14.6038 4.7095 14.4034 4.74682 14.3046 4.88689C14.2055 5.02697 14.245 5.2172 14.3924 5.3114C14.8622 5.61082 15.3056 5.95764 15.7098 6.34178L18.0902 8.6044L15.6354 10.9377C13.2591 13.1963 9.67843 13.96 6.51249 12.8816C6.34517 12.8244 6.1608 12.9073 6.10095 13.0663C6.0411 13.2254 6.12797 13.4003 6.2953 13.4575C7.31918 13.8062 8.38361 13.9753 9.44096 13.9753C11.8932 13.9753 14.3075 13.0648 16.0904 11.3701L19.0002 8.6044L16.1651 5.90932Z" fill="#4A90E2"/>
<path d="M9.8272 12.1632C9.13442 12.1632 8.45934 11.9803 7.87404 11.6341C7.72377 11.5454 7.52523 11.5889 7.43095 11.7323C7.337 11.8757 7.38333 12.0641 7.53424 12.1534C8.22123 12.5602 9.0144 12.7749 9.8272 12.7749C12.2225 12.7749 14.1712 10.9227 14.1712 8.64605C14.1712 7.82486 13.9179 7.03151 13.4391 6.35162C13.34 6.21124 13.1399 6.17363 12.9928 6.26752C12.8451 6.36172 12.8055 6.55165 12.9043 6.69172C13.312 7.27068 13.5276 7.94628 13.5276 8.64605C13.5276 10.5857 11.8676 12.1632 9.8272 12.1632Z" fill="#4A90E2"/>
<path d="M9.82718 5.12899C10.4916 5.12899 11.1429 5.29812 11.7112 5.61833C11.8637 5.70428 12.0613 5.65656 12.152 5.51098C12.2424 5.36571 12.1922 5.17823 12.0391 5.09198C11.3717 4.7161 10.6068 4.5173 9.82686 4.5173C7.43157 4.5173 5.48291 6.36948 5.48291 8.64617C5.48291 9.28354 5.63157 9.89492 5.92503 10.4632C5.98102 10.5714 6.09525 10.6344 6.2143 10.6344C6.2616 10.6344 6.31019 10.6243 6.35556 10.6032C6.51516 10.5286 6.58112 10.3454 6.50293 10.194C6.25324 9.71019 6.12646 9.18965 6.12646 8.64647C6.12678 6.70682 7.78681 5.12899 9.82718 5.12899Z" fill="#4A90E2"/>
<path d="M17.5758 1.08969C17.45 0.970104 17.2466 0.970104 17.1208 1.08969L2.15833 15.3113C2.03251 15.4309 2.03251 15.6242 2.15833 15.7438C2.22107 15.8034 2.30345 15.8334 2.38582 15.8334C2.46819 15.8334 2.55057 15.8034 2.61331 15.7438L17.5758 1.52215C17.7016 1.40287 17.7016 1.20927 17.5758 1.08969Z" fill="#4A90E2"/>
</g>
<defs>
<clipPath id="clip0_583_943">
<rect width="19" height="19" fill="white"/>
</clipPath>
</defs>
</svg>
