<svg width="19" height="19" viewBox="0 0 19 19" fill="none" xmlns="http://www.w3.org/2000/svg">
<path d="M16.3879 6.89234C12.5722 3.03589 6.36425 3.03589 2.54859 6.89234L0 9.46785L2.61181 12.1076C4.51948 14.0356 7.02539 15 9.53161 15C12.0378 15 14.5434 14.036 16.4514 12.1076L19 9.53175L16.3879 6.89234ZM15.9973 11.6489C12.432 15.252 6.63095 15.252 3.06562 11.6489L0.90762 9.46785L3.0024 7.35067C6.56773 3.74756 12.3687 3.74756 15.9341 7.35067L18.0921 9.53175L15.9973 11.6489Z" fill="#4A90E2"/>
<path d="M9.17139 6.89526C7.93256 6.89526 6.9248 7.91379 6.9248 9.16586C6.9248 9.34492 7.06859 9.49023 7.24575 9.49023C7.4229 9.49023 7.56669 9.34492 7.56669 9.16586C7.56669 8.27157 8.28656 7.54401 9.17139 7.54401C9.34855 7.54401 9.49233 7.39869 9.49233 7.21964C9.49233 7.04058 9.34887 6.89526 9.17139 6.89526Z" fill="#4A90E2"/>
<path d="M9.49059 5.27344C7.19008 5.27344 5.31836 7.16517 5.31836 9.49026C5.31836 11.8154 7.19008 13.7071 9.49059 13.7071C11.7911 13.7071 13.6628 11.8154 13.6628 9.49026C13.6628 7.16517 11.7914 5.27344 9.49059 5.27344ZM9.49059 13.0584C7.54408 13.0584 5.96024 11.4576 5.96024 9.49026C5.96024 7.52295 7.54408 5.92218 9.49059 5.92218C11.4371 5.92218 13.0209 7.52295 13.0209 9.49026C13.0209 11.4576 11.4374 13.0584 9.49059 13.0584Z" fill="#4A90E2"/>
<path d="M17.5118 2.08969C17.386 1.9701 17.1827 1.9701 17.0568 2.08969L2.09436 16.3113C1.96855 16.4309 1.96855 16.6242 2.09436 16.7438C2.15711 16.8034 2.23948 16.8334 2.32185 16.8334C2.40423 16.8334 2.4866 16.8034 2.54935 16.7438L17.5118 2.52215C17.6376 2.40287 17.6376 2.20927 17.5118 2.08969Z" fill="#4A90E2"/>
</svg>
