<svg width="21" height="19" viewBox="0 0 21 19" fill="none" xmlns="http://www.w3.org/2000/svg">
<g clip-path="url(#clip0_576_570)">
<path d="M17.3687 5.77892C13.4752 2.03203 7.14057 2.03203 3.24706 5.77892L0.646484 8.28126L3.31158 10.846C5.25817 12.7193 7.81519 13.6562 10.3725 13.6562C12.9299 13.6562 15.4866 12.7196 17.4335 10.846L20.0341 8.34335L17.3687 5.77892ZM16.9701 10.4004C13.332 13.9011 7.41271 13.9011 3.77465 10.4004L1.57262 8.28126L3.71013 6.22424C7.34819 2.72348 13.2675 2.72348 16.9056 6.22424L19.1076 8.34335L16.9701 10.4004Z" fill="#4A90E2"/>
<path d="M10.0038 5.78174C8.73974 5.78174 7.71143 6.77133 7.71143 7.98783C7.71143 8.1618 7.85814 8.30299 8.03891 8.30299C8.21969 8.30299 8.3664 8.1618 8.3664 7.98783C8.3664 7.11895 9.10096 6.41205 10.0038 6.41205C10.1846 6.41205 10.3313 6.27086 10.3313 6.09689C10.3313 5.92293 10.1849 5.78174 10.0038 5.78174Z" fill="#4A90E2"/>
<path d="M10.3311 4.20596C7.98364 4.20596 6.07373 6.04395 6.07373 8.30299C6.07373 10.562 7.98364 12.4 10.3311 12.4C12.6785 12.4 14.5884 10.562 14.5884 8.30299C14.5884 6.04395 12.6788 4.20596 10.3311 4.20596ZM10.3311 11.7697C8.34486 11.7697 6.72871 10.2144 6.72871 8.30299C6.72871 6.39157 8.34486 4.83628 10.3311 4.83628C12.3173 4.83628 13.9334 6.39157 13.9334 8.30299C13.9334 10.2144 12.3176 11.7697 10.3311 11.7697Z" fill="#4A90E2"/>
</g>
<defs>
<clipPath id="clip0_576_570">
<rect width="20.6801" height="19" fill="white"/>
</clipPath>
</defs>
</svg>
