<svg width="19" height="19" viewBox="0 0 19 19" fill="none" xmlns="http://www.w3.org/2000/svg">
<g clip-path="url(#clip0_1078_557)">
<path d="M3.63122 13.0458C3.69042 13.0905 3.76121 13.1125 3.83168 13.1125C3.92628 13.1125 4.01992 13.0731 4.08363 12.9972C4.19432 12.8651 4.17148 12.6727 4.03247 12.5675C3.77473 12.3724 3.52503 12.1604 3.29078 11.9375L0.910298 9.67486L3.36511 7.34159C5.725 5.09885 9.15801 4.33333 12.323 5.34322C12.4913 5.39613 12.6737 5.31049 12.7307 5.15054C12.787 4.99058 12.6966 4.81687 12.5279 4.76304C9.12937 3.67883 5.44377 4.50093 2.91012 6.90882L0 9.67486L2.83547 12.3699C3.08678 12.6091 3.35481 12.8363 3.63122 13.0458Z" fill="#4A90E2"/>
<path d="M16.1651 6.90929C15.7313 6.49702 15.2557 6.12511 14.7512 5.80337C14.6038 5.70947 14.4034 5.74679 14.3046 5.88686C14.2055 6.02694 14.245 6.21717 14.3924 6.31137C14.8622 6.61079 15.3056 6.95761 15.7098 7.34175L18.0902 9.60437L15.6354 11.9376C13.2591 14.1963 9.67843 14.96 6.51249 13.8816C6.34517 13.8244 6.1608 13.9073 6.10095 14.0663C6.0411 14.2253 6.12797 14.4003 6.2953 14.4575C7.31918 14.8061 8.38361 14.9753 9.44096 14.9753C11.8932 14.9753 14.3075 14.0648 16.0904 12.3701L19.0002 9.60437L16.1651 6.90929Z" fill="#4A90E2"/>
<path d="M9.82769 13.1632C9.13491 13.1632 8.45983 12.9803 7.87452 12.6341C7.72426 12.5454 7.52572 12.5888 7.43144 12.7323C7.33748 12.8757 7.38382 13.0641 7.53473 13.1534C8.22172 13.5602 9.01489 13.7749 9.82769 13.7749C12.223 13.7749 14.1716 11.9227 14.1716 9.64602C14.1716 8.82483 13.9184 8.03148 13.4396 7.35159C13.3405 7.21121 13.1404 7.17359 12.9933 7.26749C12.8456 7.36169 12.806 7.55162 12.9048 7.69169C13.3125 8.27065 13.5281 8.94625 13.5281 9.64602C13.5281 11.5857 11.8681 13.1632 9.82769 13.1632Z" fill="#4A90E2"/>
<path d="M9.82669 6.12896C10.4912 6.12896 11.1424 6.29809 11.7107 6.6183C11.8632 6.70424 12.0608 6.65653 12.1515 6.51095C12.2419 6.36568 12.1917 6.1782 12.0386 6.09195C11.3712 5.71607 10.6063 5.51727 9.82637 5.51727C7.43108 5.51727 5.48242 7.36945 5.48242 9.64614C5.48242 10.2835 5.63108 10.8949 5.92454 11.4631C5.98053 11.5714 6.09476 11.6344 6.21381 11.6344C6.26111 11.6344 6.3097 11.6243 6.35507 11.6032C6.51467 11.5286 6.58064 11.3454 6.50245 11.194C6.25275 10.7102 6.12597 10.1896 6.12597 9.64644C6.12629 7.70679 7.78632 6.12896 9.82669 6.12896Z" fill="#4A90E2"/>
<path d="M17.5753 2.08969C17.4495 1.9701 17.2461 1.9701 17.1203 2.08969L2.15784 16.3113C2.03202 16.4309 2.03202 16.6242 2.15784 16.7438C2.22058 16.8034 2.30296 16.8334 2.38533 16.8334C2.46771 16.8334 2.55008 16.8034 2.61283 16.7438L17.5753 2.52215C17.7011 2.40287 17.7011 2.20927 17.5753 2.08969Z" fill="#4A90E2"/>
</g>
<defs>
<clipPath id="clip0_1078_557">
<rect width="19" height="19" fill="white"/>
</clipPath>
</defs>
</svg>
