<svg width="20" height="20" viewBox="0 0 20 20" fill="none" xmlns="http://www.w3.org/2000/svg">
<path d="M9.5 6.5H10.5C10.7762 6.5 11 6.27616 11 6C11 5.72384 10.7762 5.5 10.5 5.5H9.5C9.22384 5.5 9 5.72384 9 6C9 6.27612 9.22387 6.5 9.5 6.5Z" fill="#5A5A5A"/>
<path d="M12.5 5.5C12.2238 5.5 12 5.72384 12 6C12 6.27616 12.2238 6.5 12.5 6.5C12.7762 6.5 13 6.27616 13 6C13 5.72384 12.7762 5.5 12.5 5.5Z" fill="#5A5A5A"/>
<path d="M7.5 6.5C7.77616 6.5 8 6.27616 8 6C8 5.72384 7.77616 5.5 7.5 5.5C7.22384 5.5 7 5.72384 7 6C7 6.27612 7.22387 6.5 7.5 6.5Z" fill="#5A5A5A"/>
<path d="M17.7113 5.54684L10.2114 2.04687C10.0776 1.98438 9.92236 1.98438 9.78858 2.04687L2.28868 5.54684C2.03844 5.66353 1.93028 5.96115 2.047 6.21137C2.16394 6.46162 2.4615 6.57049 2.7115 6.45306L3 6.31843V16.4998C3 16.7759 3.22387 16.9998 3.5 16.9998C3.77612 16.9998 3.99999 16.7759 3.99999 16.4998V8.49996H16V16.4998C16 16.7759 16.2239 16.9998 16.5 16.9998C16.7761 16.9998 17 16.7759 17 16.4998V6.31843L17.2885 6.45309C17.3569 6.48506 17.4289 6.49996 17.4997 6.49996C17.6879 6.49996 17.868 6.39328 17.953 6.2114C18.0697 5.96112 17.9615 5.66353 17.7113 5.54684ZM16 5.99993V7.49993H3.99999V5.99993C3.99999 5.9519 3.98531 5.90849 3.97268 5.86449L9.99999 3.05175L16.0273 5.86453C16.0146 5.90853 16 5.9519 16 5.99993Z" fill="#5A5A5A"/>
<path d="M9.49999 14.5C9.49999 14.2238 9.27615 14 8.99999 14H6C5.72384 14 5.5 14.2238 5.5 14.5V16.5C5.5 16.7761 5.72384 17 6 17H8.99999C9.27615 17 9.49999 16.7762 9.49999 16.5V14.5ZM8.5 16H6.5V15H8.5V16Z" fill="#5A5A5A"/>
<path d="M14.5 14.5C14.5 14.2238 14.2762 14 14 14H11C10.7238 14 10.5 14.2238 10.5 14.5V16.5C10.5 16.7761 10.7238 17 11 17H14C14.2761 17 14.5 16.7762 14.5 16.5V14.5ZM13.5 16H11.5V15H13.5V16Z" fill="#5A5A5A"/>
<path d="M9.49999 10.5C9.49999 10.2238 9.27615 10 8.99999 10H6C5.72384 10 5.5 10.2238 5.5 10.5V12.5C5.5 12.7761 5.72384 13 6 13H8.99999C9.27615 13 9.49999 12.7762 9.49999 12.5V10.5ZM8.5 12H6.5V11H8.5V12Z" fill="#5A5A5A"/>
<path d="M14.5 10.5C14.5 10.2238 14.2762 10 14 10H11C10.7238 10 10.5 10.2238 10.5 10.5V12.5C10.5 12.7761 10.7238 13 11 13H14C14.2761 13 14.5 12.7762 14.5 12.5V10.5ZM13.5 12H11.5V11H13.5V12Z" fill="#5A5A5A"/>
</svg>
