<svg width="24" height="24" viewBox="0 0 24 24" fill="none" xmlns="http://www.w3.org/2000/svg">
<g clip-path="url(#clip0_1325_652)">
<path d="M23.472 8.69741L12.222 0.447407C12.1576 0.400129 12.0799 0.374634 12 0.374634C11.9201 0.374634 11.8424 0.400129 11.778 0.447407L0.528 8.69741C0.480518 8.73228 0.441922 8.77786 0.41534 8.83044C0.388757 8.88302 0.374938 8.94112 0.375 9.00003V23.25C0.375 23.3495 0.414509 23.4449 0.484835 23.5152C0.555161 23.5855 0.650544 23.625 0.75 23.625H23.25C23.3495 23.625 23.4448 23.5855 23.5152 23.5152C23.5855 23.4449 23.625 23.3495 23.625 23.25V9.00003C23.6251 8.94112 23.6112 8.88302 23.5847 8.83044C23.5581 8.77786 23.5195 8.73228 23.472 8.69741ZM8.625 22.875C8.47666 22.875 8.33166 22.831 8.20832 22.7486C8.08499 22.6662 7.98886 22.5491 7.93209 22.412C7.87532 22.275 7.86047 22.1242 7.88941 21.9787C7.91835 21.8332 7.98978 21.6996 8.09467 21.5947C8.19956 21.4898 8.3332 21.4184 8.47868 21.3894C8.62417 21.3605 8.77497 21.3754 8.91201 21.4321C9.04906 21.4889 9.16619 21.585 9.2486 21.7084C9.33101 21.8317 9.375 21.9767 9.375 22.125C9.375 22.3239 9.29598 22.5147 9.15533 22.6554C9.01468 22.796 8.82391 22.875 8.625 22.875ZM9 19.875C9 19.7267 9.04399 19.5817 9.1264 19.4584C9.20881 19.335 9.32594 19.2389 9.46299 19.1821C9.60003 19.1254 9.75083 19.1105 9.89632 19.1394C10.0418 19.1684 10.1754 19.2398 10.2803 19.3447C10.3852 19.4496 10.4567 19.5832 10.4856 19.7287C10.5145 19.8742 10.4997 20.025 10.4429 20.162C10.3861 20.2991 10.29 20.4162 10.1667 20.4986C10.0433 20.581 9.89834 20.625 9.75 20.625C9.55109 20.625 9.36032 20.546 9.21967 20.4054C9.07902 20.2647 9 20.0739 9 19.875ZM10.875 22.875C10.7267 22.875 10.5817 22.831 10.4583 22.7486C10.335 22.6662 10.2389 22.5491 10.1821 22.412C10.1253 22.275 10.1105 22.1242 10.1394 21.9787C10.1683 21.8332 10.2398 21.6996 10.3447 21.5947C10.4496 21.4898 10.5832 21.4184 10.7287 21.3894C10.8742 21.3605 11.025 21.3754 11.162 21.4321C11.2991 21.4889 11.4162 21.585 11.4986 21.7084C11.581 21.8317 11.625 21.9767 11.625 22.125C11.625 22.3239 11.546 22.5147 11.4053 22.6554C11.2647 22.796 11.0739 22.875 10.875 22.875ZM11.0415 19.125H14.25C14.3811 19.1254 14.5097 19.1603 14.6231 19.2261C14.7364 19.2919 14.8304 19.3864 14.8958 19.5H13.875V20.25H14.8958C14.8304 20.3637 14.7364 20.4581 14.6231 20.524C14.5097 20.5898 14.3811 20.6246 14.25 20.625H11.0415C11.1779 20.3986 11.25 20.1393 11.25 19.875C11.25 19.6107 11.1779 19.3514 11.0415 19.125ZM16.0208 22.5C15.9554 22.6137 15.8614 22.7081 15.7481 22.774C15.6347 22.8398 15.5061 22.8746 15.375 22.875H12.1665C12.3029 22.6486 12.375 22.3893 12.375 22.125C12.375 21.8607 12.3029 21.6014 12.1665 21.375H15.375C15.5061 21.3754 15.6347 21.4103 15.7481 21.4761C15.8614 21.5419 15.9554 21.6364 16.0208 21.75H15V22.5H16.0208ZM17.625 22.875H16.6665C16.7943 22.6602 16.8658 22.4166 16.8742 22.1667C16.8826 21.9169 16.8277 21.669 16.7146 21.4461C16.6014 21.2231 16.4338 21.0324 16.2272 20.8917C16.0206 20.751 15.7817 20.6648 15.5329 20.6412C15.6707 20.4144 15.7456 20.155 15.7497 19.8896C15.7539 19.6243 15.6871 19.3626 15.5564 19.1317C15.4256 18.9007 15.2356 18.7088 15.006 18.5758C14.7764 18.4428 14.5154 18.3735 14.25 18.375H9.75C9.48462 18.3735 9.22364 18.4428 8.994 18.5758C8.76435 18.7088 8.57436 18.9007 8.44362 19.1317C8.31288 19.3626 8.24613 19.6243 8.25026 19.8896C8.2544 20.155 8.32926 20.4144 8.46713 20.6412C8.21827 20.6648 7.97943 20.751 7.77282 20.8917C7.56622 21.0324 7.39856 21.2231 7.28543 21.4461C7.17231 21.669 7.11739 21.9169 7.1258 22.1667C7.1342 22.4166 7.20565 22.6602 7.3335 22.875H6.375V17.625H17.625V22.875ZM5.625 13.875V13.125H18.375V13.875H5.625ZM17.625 16.875H6.375V16.125H17.625V16.875ZM17.625 15.375H6.375V14.625H17.625V15.375ZM21.375 22.875H18.375V14.625H18.75C18.8495 14.625 18.9448 14.5855 19.0152 14.5152C19.0855 14.4449 19.125 14.3495 19.125 14.25V12.75C19.125 12.6506 19.0855 12.5552 19.0152 12.4849C18.9448 12.4145 18.8495 12.375 18.75 12.375H5.25C5.15054 12.375 5.05516 12.4145 4.98484 12.4849C4.91451 12.5552 4.875 12.6506 4.875 12.75V14.25C4.875 14.3495 4.91451 14.4449 4.98484 14.5152C5.05516 14.5855 5.15054 14.625 5.25 14.625H5.625V22.875H2.625V9.94053L12 3.08928L21.375 9.94053V22.875ZM22.875 22.875H22.125V9.75003C22.125 9.69099 22.1111 9.63277 22.0844 9.58012C22.0577 9.52747 22.0189 9.48187 21.9713 9.44703L12.2213 2.32203C12.1569 2.27543 12.0795 2.25034 12 2.25034C11.9205 2.25034 11.8431 2.27543 11.7787 2.32203L2.02875 9.44703C1.98108 9.48187 1.94231 9.52747 1.91559 9.58012C1.88887 9.63277 1.87496 9.69099 1.875 9.75003V22.875H1.125V9.19016L12 1.21503L22.875 9.19016V22.875Z" fill="#4A4A4A"/>
<path d="M3.375 15C3.27554 15 3.18016 15.0395 3.10984 15.1098C3.03951 15.1802 3 15.2755 3 15.375V16.125C3.00096 16.3568 3.07353 16.5827 3.20778 16.7718C3.34203 16.9608 3.53141 17.1037 3.75 17.181V18H4.5V17.181C4.71859 17.1037 4.90797 16.9608 5.04222 16.7718C5.17647 16.5827 5.24904 16.3568 5.25 16.125V15.375C5.25 15.2755 5.21049 15.1802 5.14016 15.1098C5.06984 15.0395 4.97446 15 4.875 15H3.375ZM4.5 16.125C4.5 16.2245 4.46049 16.3198 4.39016 16.3902C4.31984 16.4605 4.22446 16.5 4.125 16.5C4.02554 16.5 3.93016 16.4605 3.85984 16.3902C3.78951 16.3198 3.75 16.2245 3.75 16.125V15.75H4.5V16.125Z" fill="#4A4A4A"/>
<path d="M18.75 15.375V16.125C18.751 16.3568 18.8235 16.5827 18.9578 16.7718C19.092 16.9608 19.2814 17.1037 19.5 17.181V18H20.25V17.181C20.4686 17.1037 20.658 16.9608 20.7922 16.7718C20.9265 16.5827 20.999 16.3568 21 16.125V15.375C21 15.2755 20.9605 15.1802 20.8902 15.1098C20.8198 15.0395 20.7245 15 20.625 15H19.125C19.0255 15 18.9302 15.0395 18.8598 15.1098C18.7895 15.1802 18.75 15.2755 18.75 15.375ZM19.5 15.75H20.25V16.125C20.25 16.2245 20.2105 16.3198 20.1402 16.3902C20.0698 16.4605 19.9745 16.5 19.875 16.5C19.7755 16.5 19.6802 16.4605 19.6098 16.3902C19.5395 16.3198 19.5 16.2245 19.5 16.125V15.75Z" fill="#4A4A4A"/>
<path d="M8.625 8.25C8.625 8.91751 8.82294 9.57003 9.19379 10.125C9.56464 10.6801 10.0917 11.1126 10.7084 11.3681C11.3251 11.6235 12.0037 11.6904 12.6584 11.5602C13.3131 11.4299 13.9145 11.1085 14.3865 10.6365C14.8585 10.1645 15.1799 9.56312 15.3102 8.90843C15.4404 8.25374 15.3735 7.57514 15.1181 6.95844C14.8626 6.34174 14.4301 5.81464 13.8751 5.44379C13.32 5.07294 12.6675 4.875 12 4.875C11.1052 4.87599 10.2473 5.23189 9.61461 5.86461C8.98189 6.49733 8.62599 7.3552 8.625 8.25ZM14.625 8.25C14.625 8.76918 14.471 9.27669 14.1826 9.70837C13.8942 10.1401 13.4842 10.4765 13.0045 10.6752C12.5249 10.8739 11.9971 10.9258 11.4879 10.8246C10.9787 10.7233 10.511 10.4733 10.1438 10.1062C9.77673 9.73904 9.52672 9.27131 9.42544 8.76211C9.32415 8.25291 9.37614 7.72511 9.57482 7.24546C9.7735 6.7658 10.1099 6.35583 10.5416 6.06739C10.9733 5.77895 11.4808 5.625 12 5.625C12.6959 5.62589 13.3631 5.90274 13.8552 6.39483C14.3473 6.88692 14.6241 7.55408 14.625 8.25Z" fill="#4A4A4A"/>
<path d="M10.8749 7.50005C10.8753 7.64355 10.9033 7.78563 10.9574 7.91855C10.7929 7.96201 10.6406 8.04228 10.5117 8.15329C10.3829 8.26429 10.2809 8.40314 10.2136 8.55933C10.1464 8.71552 10.1154 8.88496 10.1233 9.05485C10.1311 9.22474 10.1774 9.39063 10.2587 9.53998C10.3401 9.68933 10.4543 9.81824 10.5928 9.91695C10.7313 10.0157 10.8904 10.0816 11.0581 10.1098C11.2259 10.138 11.3978 10.1277 11.5609 10.0796C11.7241 10.0316 11.8742 9.94711 11.9999 9.83255C12.1255 9.94703 12.2754 10.0315 12.4384 10.0795C12.6014 10.1275 12.7732 10.1378 12.9408 10.1097C13.1084 10.0816 13.2674 10.0157 13.4058 9.91712C13.5442 9.81852 13.6584 9.68976 13.7397 9.54055C13.821 9.39135 13.8674 9.22561 13.8753 9.05586C13.8831 8.88611 13.8523 8.7168 13.7852 8.56071C13.718 8.40461 13.6162 8.26583 13.4875 8.15484C13.3589 8.04386 13.2066 7.96357 13.0424 7.92005C13.1048 7.76612 13.1324 7.60026 13.1231 7.4344C13.1138 7.26854 13.068 7.10679 12.9887 6.96078C12.9095 6.81476 12.799 6.68809 12.665 6.58988C12.531 6.49166 12.377 6.42434 12.2139 6.39274C12.0508 6.36114 11.8827 6.36604 11.7218 6.40711C11.5608 6.44817 11.4109 6.52437 11.2829 6.63024C11.1549 6.7361 11.0519 6.869 10.9814 7.01939C10.9108 7.16979 10.8744 7.33394 10.8749 7.50005ZM11.2499 9.37505C11.1757 9.37505 11.1032 9.35306 11.0415 9.31185C10.9799 9.27065 10.9318 9.21208 10.9034 9.14356C10.875 9.07504 10.8676 8.99964 10.8821 8.92689C10.8965 8.85415 10.9323 8.78733 10.9847 8.73489C11.0371 8.68244 11.104 8.64673 11.1767 8.63226C11.2495 8.61779 11.3249 8.62522 11.3934 8.6536C11.4619 8.68198 11.5205 8.73005 11.5617 8.79171C11.6029 8.85338 11.6249 8.92589 11.6249 9.00005C11.6249 9.09951 11.5854 9.19489 11.515 9.26522C11.4447 9.33554 11.3493 9.37505 11.2499 9.37505ZM12.7499 8.62505C12.824 8.62505 12.8965 8.64705 12.9582 8.68825C13.0199 8.72946 13.0679 8.78802 13.0963 8.85655C13.1247 8.92507 13.1321 9.00047 13.1177 9.07321C13.1032 9.14596 13.0675 9.21277 13.015 9.26522C12.9626 9.31766 12.8958 9.35338 12.823 9.36785C12.7503 9.38232 12.6749 9.37489 12.6064 9.34651C12.5378 9.31813 12.4793 9.27006 12.4381 9.20839C12.3969 9.14672 12.3749 9.07422 12.3749 9.00005C12.3749 8.9006 12.4144 8.80521 12.4847 8.73489C12.555 8.66456 12.6504 8.62505 12.7499 8.62505ZM12.3749 7.50005C12.3749 7.57422 12.3529 7.64672 12.3117 7.70839C12.2705 7.77006 12.2119 7.81813 12.1434 7.84651C12.0749 7.87489 11.9995 7.88232 11.9267 7.86785C11.854 7.85338 11.7871 7.81766 11.7347 7.76522C11.6823 7.71277 11.6465 7.64596 11.6321 7.57321C11.6176 7.50047 11.625 7.42507 11.6534 7.35655C11.6818 7.28802 11.7299 7.22946 11.7915 7.18825C11.8532 7.14705 11.9257 7.12505 11.9999 7.12505C12.0993 7.12505 12.1947 7.16456 12.265 7.23489C12.3354 7.30521 12.3749 7.4006 12.3749 7.50005Z" fill="#4A4A4A"/>
<path d="M13.125 19.5H12V20.25H13.125V19.5Z" fill="#4A4A4A"/>
<path d="M14.25 21.75H13.125V22.5H14.25V21.75Z" fill="#4A4A4A"/>
</g>
<defs>
<clipPath id="clip0_1325_652">
<rect width="24" height="24" fill="white"/>
</clipPath>
</defs>
</svg>
