<svg width="32" height="32" viewBox="0 0 32 32" fill="none" xmlns="http://www.w3.org/2000/svg">
<path d="M29.5344 12.124L17.8174 3.44469C17.4276 3.15477 16.9691 3 16.5 3C16.0309 3 15.5724 3.15477 15.1826 3.44469L3.46559 12.124C3.35168 12.2074 3.25373 12.315 3.17738 12.4406C3.10102 12.5662 3.04775 12.7074 3.02065 12.8559C2.99354 13.0045 2.99312 13.1575 3.01942 13.3062C3.04572 13.455 3.09821 13.5964 3.17388 13.7226C3.24955 13.8487 3.34691 13.9569 3.46036 14.0411C3.57381 14.1253 3.70111 14.1837 3.83495 14.213C3.96879 14.2424 4.10652 14.242 4.24024 14.212C4.37396 14.182 4.50101 14.1229 4.61411 14.0382L5.35809 13.4871H5.38467V26.594C5.38467 26.7017 5.42317 26.805 5.49169 26.8811C5.56021 26.9572 5.65315 27 5.75006 27H27.2499C27.3468 27 27.4398 26.9572 27.5083 26.8811C27.5768 26.805 27.6153 26.7017 27.6153 26.594V13.4871H27.6419L28.3859 14.0382C28.499 14.1229 28.626 14.182 28.7598 14.212C28.8935 14.242 29.0312 14.2424 29.165 14.213C29.2989 14.1837 29.4262 14.1253 29.5396 14.0411C29.6531 13.9569 29.7504 13.8487 29.8261 13.7226C29.9018 13.5964 29.9543 13.455 29.9806 13.3062C30.0069 13.1575 30.0065 13.0045 29.9794 12.8559C29.9522 12.7074 29.899 12.5662 29.8226 12.4406C29.7463 12.315 29.6483 12.2074 29.5344 12.124ZM10.9176 26.188C10.7169 26.188 10.5207 26.1219 10.3537 25.998C10.1868 25.8741 10.0567 25.6979 9.97989 25.4919C9.90306 25.2858 9.88296 25.059 9.92212 24.8402C9.96128 24.6215 10.058 24.4205 10.1999 24.2628C10.3419 24.1051 10.5227 23.9977 10.7196 23.9541C10.9165 23.9106 11.1206 23.933 11.3061 24.0183C11.4915 24.1037 11.65 24.2482 11.7616 24.4337C11.8731 24.6192 11.9326 24.8372 11.9326 25.0603C11.9323 25.3593 11.8253 25.6459 11.635 25.8574C11.4447 26.0688 11.1867 26.1877 10.9176 26.188ZM11.3006 22.2504C11.3006 22.0274 11.3601 21.8093 11.4716 21.6239C11.5832 21.4384 11.7417 21.2939 11.9272 21.2085C12.1126 21.1232 12.3167 21.1008 12.5136 21.1444C12.7105 21.1879 12.8913 21.2953 13.0333 21.453C13.1752 21.6107 13.2719 21.8117 13.3111 22.0304C13.3502 22.2492 13.3301 22.476 13.2533 22.682C13.1765 22.8881 13.0464 23.0643 12.8795 23.1882C12.7126 23.3121 12.5164 23.3783 12.3156 23.3783C12.0465 23.3779 11.7885 23.259 11.5982 23.0476C11.4079 22.8361 11.3009 22.5495 11.3006 22.2504ZM12.7222 19.5777C12.7222 19.3547 12.7818 19.1366 12.8933 18.9512C13.0048 18.7657 13.1633 18.6212 13.3488 18.5358C13.5343 18.4505 13.7384 18.4282 13.9352 18.4717C14.1321 18.5152 14.313 18.6226 14.4549 18.7803C14.5968 18.9381 14.6935 19.139 14.7327 19.3578C14.7718 19.5765 14.7517 19.8033 14.6749 20.0094C14.5981 20.2154 14.468 20.3916 14.3011 20.5155C14.1342 20.6394 13.9379 20.7055 13.7372 20.7055C13.4681 20.7052 13.2101 20.5863 13.0198 20.3748C12.8295 20.1634 12.7225 19.8767 12.7222 19.5777ZM13.7135 26.188C13.5128 26.188 13.3165 26.1219 13.1496 25.998C12.9827 25.8741 12.8526 25.6979 12.7758 25.4919C12.6989 25.2858 12.6788 25.059 12.718 24.8402C12.7572 24.6215 12.8538 24.4205 12.9958 24.2628C13.1377 24.1051 13.3186 23.9977 13.5155 23.9541C13.7124 23.9106 13.9165 23.933 14.1019 24.0183C14.2874 24.1037 14.4459 24.2482 14.5575 24.4337C14.669 24.6192 14.7285 24.8372 14.7285 25.0603C14.7282 25.3593 14.6212 25.6459 14.4309 25.8574C14.2406 26.0688 13.9826 26.1877 13.7135 26.188ZM14.0964 22.2504C14.0965 22.0274 14.156 21.8093 14.2675 21.6239C14.3791 21.4384 14.5376 21.2939 14.7231 21.2085C14.9085 21.1232 15.1126 21.1008 15.3095 21.1444C15.5064 21.1879 15.6872 21.2953 15.8292 21.453C15.9711 21.6108 16.0678 21.8117 16.107 22.0305C16.1461 22.2493 16.126 22.476 16.0492 22.6821C15.9723 22.8882 15.8422 23.0643 15.6753 23.1882C15.5084 23.3121 15.3122 23.3783 15.1114 23.3783C14.8423 23.3779 14.5843 23.259 14.394 23.0476C14.2038 22.8361 14.0967 22.5495 14.0964 22.2504ZM15.4992 19.5777C15.4992 19.3546 15.5588 19.1366 15.6703 18.9511C15.7818 18.7657 15.9404 18.6211 16.1258 18.5358C16.3113 18.4504 16.5154 18.4281 16.7123 18.4716C16.9092 18.5152 17.09 18.6226 17.232 18.7803C17.3739 18.938 17.4706 19.139 17.5097 19.3578C17.5489 19.5765 17.5288 19.8033 17.452 20.0094C17.3751 20.2154 17.245 20.3916 17.0781 20.5155C16.9112 20.6394 16.715 20.7055 16.5142 20.7055C16.2451 20.7052 15.9871 20.5863 15.7968 20.3748C15.6065 20.1634 15.4995 19.8767 15.4992 19.5777ZM16.4905 26.188C16.2898 26.188 16.0936 26.1219 15.9266 25.998C15.7597 25.874 15.6296 25.6979 15.5528 25.4918C15.476 25.2857 15.4559 25.059 15.4951 24.8402C15.5343 24.6214 15.6309 24.4205 15.7729 24.2628C15.9148 24.105 16.0957 23.9976 16.2926 23.9541C16.4895 23.9106 16.6936 23.933 16.879 24.0183C17.0645 24.1037 17.223 24.2482 17.3345 24.4337C17.4461 24.6192 17.5056 24.8372 17.5056 25.0603C17.5053 25.3593 17.3982 25.646 17.2079 25.8574C17.0177 26.0688 16.7597 26.1877 16.4905 26.188ZM16.8735 22.2504C16.8735 22.0274 16.9331 21.8094 17.0446 21.6239C17.1561 21.4385 17.3147 21.2939 17.5001 21.2086C17.6856 21.1232 17.8897 21.1009 18.0866 21.1444C18.2834 21.1879 18.4643 21.2954 18.6062 21.4531C18.7482 21.6108 18.8448 21.8117 18.884 22.0305C18.9231 22.2493 18.903 22.476 18.8262 22.6821C18.7494 22.8882 18.6193 23.0643 18.4524 23.1882C18.2855 23.3121 18.0892 23.3783 17.8885 23.3783C17.6194 23.3779 17.3614 23.259 17.1711 23.0476C16.9808 22.8361 16.8738 22.5495 16.8735 22.2504ZM18.2951 19.5777C18.2951 19.3546 18.3546 19.1366 18.4662 18.9511C18.5777 18.7657 18.7362 18.6211 18.9217 18.5358C19.1072 18.4504 19.3113 18.4281 19.5082 18.4716C19.705 18.5152 19.8859 18.6226 20.0278 18.7803C20.1698 18.938 20.2665 19.139 20.3056 19.3578C20.3448 19.5765 20.3247 19.8033 20.2478 20.0094C20.171 20.2154 20.0409 20.3916 19.874 20.5155C19.7071 20.6394 19.5108 20.7055 19.3101 20.7055C19.041 20.7052 18.783 20.5863 18.5927 20.3748C18.4024 20.1634 18.2954 19.8767 18.2951 19.5777ZM19.2864 26.188C19.0857 26.188 18.8894 26.1219 18.7225 25.998C18.5556 25.874 18.4255 25.6979 18.3487 25.4918C18.2719 25.2857 18.2518 25.059 18.291 24.8402C18.3301 24.6214 18.4268 24.4205 18.5688 24.2628C18.7107 24.105 18.8916 23.9976 19.0885 23.9541C19.2854 23.9106 19.4894 23.933 19.6749 24.0183C19.8604 24.1037 20.0189 24.2482 20.1304 24.4337C20.2419 24.6192 20.3015 24.8372 20.3015 25.0603C20.3012 25.3593 20.1941 25.646 20.0038 25.8574C19.8135 26.0688 19.5555 26.1877 19.2864 26.188ZM19.6693 22.2504C19.6693 22.0274 19.7289 21.8093 19.8404 21.6239C19.9519 21.4384 20.1105 21.2939 20.2959 21.2085C20.4814 21.1232 20.6855 21.1008 20.8824 21.1444C21.0793 21.1879 21.2601 21.2953 21.4021 21.453C21.544 21.6107 21.6407 21.8117 21.6798 22.0304C21.719 22.2492 21.6989 22.476 21.6221 22.682C21.5453 22.8881 21.4152 23.0643 21.2483 23.1882C21.0814 23.3121 20.8851 23.3783 20.6844 23.3783C20.4153 23.3779 20.1573 23.259 19.967 23.0476C19.7767 22.8361 19.6696 22.5495 19.6693 22.2504ZM22.0823 26.188C21.8815 26.188 21.6853 26.1219 21.5184 25.998C21.3515 25.874 21.2214 25.6979 21.1446 25.4918C21.0677 25.2857 21.0477 25.059 21.0868 24.8402C21.126 24.6214 21.2227 24.4205 21.3646 24.2628C21.5066 24.105 21.6874 23.9976 21.8843 23.9541C22.0812 23.9106 22.2853 23.933 22.4708 24.0183C22.6562 24.1037 22.8147 24.2482 22.9263 24.4337C23.0378 24.6192 23.0973 24.8372 23.0973 25.0603C23.097 25.3593 22.99 25.646 22.7997 25.8574C22.6094 26.0688 22.3514 26.1877 22.0823 26.188ZM24.2378 26.188H23.4999C23.6796 25.9106 23.79 25.5853 23.8199 25.245C23.8497 24.9048 23.7979 24.5619 23.6698 24.2511C23.5417 23.9404 23.3417 23.6729 23.0904 23.4758C22.839 23.2788 22.5451 23.1592 22.2387 23.1293C22.3657 22.8537 22.4314 22.5483 22.4301 22.2387C22.4288 21.929 22.3607 21.6243 22.2314 21.35C22.1021 21.0757 21.9154 20.84 21.687 20.6625C21.4586 20.4851 21.1953 20.3712 20.919 20.3303C21.0851 19.8937 21.1014 19.4047 20.9648 18.9556C20.8282 18.5066 20.5483 18.1288 20.1779 17.8936C19.8076 17.6584 19.3725 17.5821 18.955 17.6793C18.5375 17.7764 18.1665 18.0402 17.9122 18.4208C17.7512 18.1792 17.5418 17.9826 17.3004 17.8467C17.0591 17.7108 16.7926 17.6394 16.5221 17.638C16.2515 17.6367 15.9845 17.7055 15.7421 17.8389C15.4996 17.9724 15.2886 18.1668 15.1257 18.4068C14.8694 18.031 14.4986 17.772 14.0827 17.6782C13.6668 17.5844 13.2345 17.6623 12.8666 17.8972C12.4987 18.1322 12.2205 18.5081 12.0841 18.9546C11.9478 19.4011 11.9626 19.8875 12.1258 20.3227C11.8448 20.3562 11.5754 20.4652 11.3408 20.6402C11.1062 20.8152 10.9134 21.051 10.7791 21.3272C10.6448 21.6035 10.573 21.9119 10.5699 22.2258C10.5668 22.5398 10.6325 22.8498 10.7613 23.1293C10.4548 23.1592 10.161 23.2788 9.90961 23.4759C9.65824 23.6729 9.45832 23.9404 9.33019 24.2512C9.20206 24.5619 9.15028 24.9049 9.18012 25.2451C9.20997 25.5853 9.32037 25.9106 9.5001 26.188H8.76216V15.6588H24.2378V26.188ZM26.8846 26.188H24.9685V15.2528C24.9685 15.1451 24.93 15.0419 24.8615 14.9657C24.793 14.8896 24.7001 14.8468 24.6032 14.8468H8.39677C8.29987 14.8468 8.20693 14.8896 8.1384 14.9657C8.06988 15.0419 8.03139 15.1451 8.03139 15.2528V26.1881H6.11537V13.4871H26.8846V26.188ZM15.6158 12.6751H6.45418L11.158 9.19079L15.6158 12.6751ZM11.8101 8.70775L16.1346 5.50439V12.0878L11.8101 8.70775ZM16.8654 12.0878V5.50439L21.1899 8.70773L16.8654 12.0878ZM21.8419 9.19077L26.5457 12.6751H17.3841L21.8419 9.19077ZM29.2135 13.2688C29.1687 13.3434 29.099 13.3952 29.0198 13.4128C28.9406 13.4304 28.8584 13.4123 28.7912 13.3626L17.0742 4.68324C16.9043 4.55685 16.7044 4.48938 16.5 4.48938C16.2955 4.48938 16.0956 4.55685 15.9257 4.68324L4.20869 13.3626C4.1415 13.4113 4.05974 13.4285 3.98116 13.4106C3.90259 13.3926 3.83356 13.341 3.78906 13.2668C3.74457 13.1927 3.72821 13.102 3.74353 13.0145C3.75886 12.927 3.80463 12.8498 3.87091 12.7996L15.5879 4.12028C15.8578 3.91957 16.1752 3.81242 16.5 3.81242C16.8247 3.81242 17.1422 3.91957 17.412 4.12028L29.129 12.7996C29.1961 12.8494 29.2427 12.9268 29.2586 13.0147C29.2744 13.1027 29.2582 13.1941 29.2135 13.2688Z" fill="#4A4A4A"/>
</svg>
