<svg width="32" height="32" viewBox="0 0 32 32" fill="none" xmlns="http://www.w3.org/2000/svg">
<g clip-path="url(#clip0_350_380)">
<path d="M15 10H17C17.5523 10 18 9.55231 18 9C18 8.44769 17.5523 8 17 8H15C14.4477 8 14 8.44769 14 9C14 9.55225 14.4477 10 15 10Z" fill="#4A4A4A"/>
<path d="M21 8C20.4477 8 20 8.44769 20 9C20 9.55231 20.4477 10 21 10C21.5523 10 22 9.55231 22 9C22 8.44769 21.5523 8 21 8Z" fill="#4A4A4A"/>
<path d="M11 10C11.5523 10 12 9.55231 12 9C12 8.44769 11.5523 8 11 8C10.4477 8 10 8.44769 10 9C10 9.55225 10.4477 10 11 10Z" fill="#4A4A4A"/>
<path d="M31.4226 8.09374L16.4228 1.09381C16.1553 0.968811 15.8447 0.968811 15.5772 1.09381L0.57737 8.09374C0.0768706 8.32711 -0.139441 8.92236 0.0939956 9.4228C0.32787 9.92329 0.922994 10.141 1.42299 9.90617L1.99999 9.63692V29.9996C1.99999 30.5519 2.44774 30.9996 2.99999 30.9996C3.55224 30.9996 3.99999 30.5519 3.99999 29.9996V14H27.9999V29.9996C27.9999 30.5519 28.4477 30.9996 28.9999 30.9996C29.5522 30.9996 29.9999 30.5519 29.9999 29.9996V9.63692L30.577 9.90623C30.7138 9.97017 30.8577 9.99998 30.9993 9.99998C31.3757 9.99998 31.7361 9.78661 31.906 9.42286C32.1394 8.9223 31.9231 8.32711 31.4226 8.09374ZM27.9999 8.99992V11.9999H3.99999V8.99992C3.99999 8.90386 3.97061 8.81705 3.94536 8.72905L16 3.10356L28.0546 8.72911C28.0293 8.81711 27.9999 8.90386 27.9999 8.99992Z" fill="#4A4A4A"/>
<path d="M15 25.9999C15 25.4476 14.5523 24.9999 14 24.9999H8C7.44769 24.9999 7 25.4476 7 25.9999V29.9999C7 30.5521 7.44769 30.9999 8 30.9999H14C14.5523 30.9999 15 30.5522 15 29.9999V25.9999ZM13 28.9999H9V26.9999H13V28.9999Z" fill="#4A4A4A"/>
<path d="M25 25.9999C25 25.4476 24.5523 24.9999 24 24.9999H18C17.4477 24.9999 17 25.4476 17 25.9999V29.9999C17 30.5521 17.4477 30.9999 18 30.9999H24C24.5522 30.9999 25 30.5522 25 29.9999V25.9999ZM23 28.9999H19V26.9999H23V28.9999Z" fill="#4A4A4A"/>
<path d="M15 17.9999C15 17.4476 14.5523 16.9999 14 16.9999H8C7.44769 16.9999 7 17.4476 7 17.9999V21.9999C7 22.5521 7.44769 22.9999 8 22.9999H14C14.5523 22.9999 15 22.5522 15 21.9999V17.9999ZM13 20.9999H9V18.9999H13V20.9999Z" fill="#4A4A4A"/>
<path d="M25 17.9999C25 17.4476 24.5523 16.9999 24 16.9999H18C17.4477 16.9999 17 17.4476 17 17.9999V21.9999C17 22.5521 17.4477 22.9999 18 22.9999H24C24.5522 22.9999 25 22.5522 25 21.9999V17.9999ZM23 20.9999H19V18.9999H23V20.9999Z" fill="#4A4A4A"/>
</g>
<defs>
<clipPath id="clip0_350_380">
<rect width="32" height="32" fill="white"/>
</clipPath>
</defs>
</svg>
