<svg width="20" height="21" viewBox="0 0 20 21" fill="none" xmlns="http://www.w3.org/2000/svg">
<path d="M19.0793 0.169817C18.896 -0.0635161 20.3002 0.0114839 1.25018 0.0114839C1.18593 0.0095985 1.12212 0.0226025 1.06373 0.0494788C1.00534 0.076355 0.953966 0.116375 0.913617 0.166408C0.873268 0.216441 0.845041 0.27513 0.831144 0.337886C0.817247 0.400641 0.818058 0.46576 0.833511 0.528151C1.09302 1.57371 1.69613 2.50184 2.54612 3.1637C3.39611 3.82556 4.44374 4.1828 5.52101 4.17815H8.33351V5.84482H7.91684C7.80634 5.84482 7.70036 5.88872 7.62222 5.96686C7.54408 6.045 7.50018 6.15098 7.50018 6.26148V7.51148H4.58351C4.48051 7.51086 4.38092 7.54841 4.30397 7.61689C4.22703 7.68538 4.17817 7.77993 4.16684 7.88232C2.80851 20.5865 2.84601 19.674 3.02518 19.874C3.20434 20.074 2.30018 20.0115 16.6668 20.0115C16.7256 20.0118 16.7838 19.9997 16.8376 19.976C16.8914 19.9523 16.9396 19.9174 16.9789 19.8737C17.0183 19.83 17.048 19.7785 17.066 19.7225C17.084 19.6666 17.09 19.6074 17.0835 19.549L15.8335 7.88232C15.8222 7.77993 15.7733 7.68538 15.6964 7.61689C15.6194 7.54841 15.5199 7.51086 15.4168 7.51148H12.5002V6.26148C12.5002 6.15098 12.4563 6.045 12.3781 5.96686C12.3 5.88872 12.194 5.84482 12.0835 5.84482H11.6668V4.17815H14.4793C15.5566 4.1828 16.6042 3.82556 17.4542 3.1637C18.3042 2.50184 18.9073 1.57371 19.1668 0.528151C19.1807 0.465713 19.1801 0.400914 19.1649 0.338774C19.1497 0.276634 19.1205 0.218822 19.0793 0.169817V0.169817ZM16.2043 19.1782H3.79601L4.95851 8.34482H15.0418L16.2043 19.1782ZM8.33351 7.51148V6.67815H11.6668V7.51148H8.33351ZM10.8335 5.84482H9.16684V4.17815H10.8335V5.84482ZM14.4793 3.34482H5.52101C4.72497 3.34601 3.94687 3.10842 3.28727 2.66275C2.62768 2.21708 2.11692 1.58382 1.82101 0.844817H18.1793C17.8834 1.58382 17.3727 2.21708 16.7131 2.66275C16.0535 3.10842 15.2754 3.34601 14.4793 3.34482V3.34482Z" fill="#4A4A4A"/>
<path d="M10.417 13.0449V12.0949C10.417 11.9844 10.3731 11.8784 10.295 11.8003C10.2168 11.7221 10.1108 11.6782 10.0003 11.6782C9.88982 11.6782 9.78384 11.7221 9.7057 11.8003C9.62756 11.8784 9.58366 11.9844 9.58366 12.0949V13.0449C9.42479 13.1366 9.30063 13.2782 9.23043 13.4477C9.16022 13.6172 9.14791 13.8051 9.19539 13.9823C9.24287 14.1595 9.34749 14.316 9.49302 14.4277C9.63856 14.5394 9.81688 14.5999 10.0003 14.5999C10.1838 14.5999 10.3621 14.5394 10.5076 14.4277C10.6532 14.316 10.7578 14.1595 10.8053 13.9823C10.8527 13.8051 10.8404 13.6172 10.7702 13.4477C10.7 13.2782 10.5759 13.1366 10.417 13.0449V13.0449Z" fill="#4A4A4A"/>
<path d="M7.05433 10.8156C6.47149 11.3983 6.07453 12.1407 5.91365 12.949C5.75278 13.7573 5.83522 14.5952 6.15055 15.3566C6.46587 16.118 6.99993 16.7688 7.68516 17.2267C8.37039 17.6846 9.17602 17.929 10.0002 17.929C10.8243 17.929 11.6299 17.6846 12.3152 17.2267C13.0004 16.7688 13.5345 16.118 13.8498 15.3566C14.1651 14.5952 14.2476 13.7573 14.0867 12.949C13.9258 12.1407 13.5288 11.3983 12.946 10.8156C12.1646 10.0345 11.105 9.5957 10.0002 9.5957C8.89531 9.5957 7.8357 10.0345 7.05433 10.8156V10.8156ZM13.3043 13.3448H12.9168C12.8063 13.3448 12.7003 13.3887 12.6222 13.4669C12.5441 13.545 12.5002 13.651 12.5002 13.7615C12.5002 13.872 12.5441 13.978 12.6222 14.0561C12.7003 14.1342 12.8063 14.1781 12.9168 14.1781H13.3043C13.2301 14.7708 12.9969 15.3323 12.6293 15.8031L12.3585 15.5281C12.28 15.4497 12.1736 15.4056 12.0627 15.4056C11.9517 15.4056 11.8453 15.4497 11.7668 15.5281C11.6884 15.6066 11.6443 15.713 11.6443 15.824C11.6443 15.9349 11.6884 16.0414 11.7668 16.1198L12.0418 16.3906C11.571 16.7582 11.0095 16.9915 10.4168 17.0656V16.6781C10.4168 16.5676 10.3729 16.4617 10.2948 16.3835C10.2167 16.3054 10.1107 16.2615 10.0002 16.2615C9.88966 16.2615 9.78368 16.3054 9.70554 16.3835C9.6274 16.4617 9.5835 16.5676 9.5835 16.6781V17.0656C8.99083 16.9915 8.4293 16.7582 7.9585 16.3906L8.2335 16.1198C8.31196 16.0414 8.35604 15.9349 8.35604 15.824C8.35604 15.713 8.31196 15.6066 8.2335 15.5281C8.15504 15.4497 8.04862 15.4056 7.93766 15.4056C7.82671 15.4056 7.72029 15.4497 7.64183 15.5281L7.371 15.8031C7.00343 15.3323 6.77018 14.7708 6.696 14.1781H7.0835C7.194 14.1781 7.29999 14.1342 7.37813 14.0561C7.45627 13.978 7.50016 13.872 7.50016 13.7615C7.50016 13.651 7.45627 13.545 7.37813 13.4669C7.29999 13.3887 7.194 13.3448 7.0835 13.3448H6.696C6.77018 12.7521 7.00343 12.1906 7.371 11.7198L7.64183 11.9948C7.72029 12.0733 7.82671 12.1174 7.93766 12.1174C8.04862 12.1174 8.15504 12.0733 8.2335 11.9948C8.31196 11.9164 8.35604 11.8099 8.35604 11.699C8.35604 11.588 8.31196 11.4816 8.2335 11.4031L7.9585 11.1323C8.4293 10.7647 8.99083 10.5315 9.5835 10.4573V10.8448C9.5835 10.9553 9.6274 11.0613 9.70554 11.1394C9.78368 11.2176 9.88966 11.2615 10.0002 11.2615C10.1107 11.2615 10.2167 11.2176 10.2948 11.1394C10.3729 11.0613 10.4168 10.9553 10.4168 10.8448V10.4573C11.0095 10.5315 11.571 10.7647 12.0418 11.1323L11.7668 11.4031C11.728 11.442 11.6972 11.4881 11.6761 11.5389C11.6551 11.5896 11.6443 11.644 11.6443 11.699C11.6443 11.7539 11.6551 11.8083 11.6761 11.8591C11.6972 11.9098 11.728 11.956 11.7668 11.9948C11.8057 12.0337 11.8518 12.0645 11.9026 12.0855C11.9533 12.1065 12.0077 12.1174 12.0627 12.1174C12.1176 12.1174 12.172 12.1065 12.2228 12.0855C12.2735 12.0645 12.3196 12.0337 12.3585 11.9948L12.6293 11.7198C12.9969 12.1906 13.2301 12.7521 13.3043 13.3448V13.3448Z" fill="#4A4A4A"/>
</svg>
