<svg width="20" height="21" viewBox="0 0 20 21" fill="none" xmlns="http://www.w3.org/2000/svg">
<path d="M5.66686 6.34504C5.86686 6.34504 6.00018 6.21172 6.00018 6.01172C6.00018 5.81172 6.1335 5.6784 6.3335 5.6784C6.5335 5.6784 6.66682 5.54508 6.66682 5.34508C6.66682 5.14508 6.5335 5.01172 6.3335 5.01172C5.76682 5.01172 5.3335 5.44504 5.3335 6.01172C5.3335 6.21172 5.46686 6.34504 5.66686 6.34504Z" fill="#4A4A4A"/>
<path d="M3.33336 10.345C3.53336 10.345 3.66668 10.2117 3.66668 10.0117C3.66668 9.81168 3.8 9.67836 4 9.67836C4.2 9.67836 4.33332 9.54504 4.33332 9.34504C4.33332 9.14504 4.2 9.01172 4 9.01172C3.43332 9.01172 3 9.44504 3 10.0117C3.00004 10.2117 3.13336 10.345 3.33336 10.345Z" fill="#4A4A4A"/>
<path d="M2.66682 13.345C2.66682 13.145 2.5335 13.0117 2.3335 13.0117C1.76682 13.0117 1.3335 13.445 1.3335 14.0117C1.3335 14.2117 1.46682 14.345 1.66682 14.345C1.86682 14.345 2.00014 14.2117 2.00014 14.0117C2.00014 13.8117 2.13346 13.6784 2.33346 13.6784C2.53346 13.6784 2.66682 13.545 2.66682 13.345Z" fill="#4A4A4A"/>
<path d="M6.3335 13.0117C5.76682 13.0117 5.3335 13.445 5.3335 14.0117C5.3335 14.2117 5.46682 14.345 5.66682 14.345C5.86682 14.345 6.00014 14.2117 6.00014 14.0117C6.00014 13.8117 6.13346 13.6784 6.33346 13.6784C6.53346 13.6784 6.66678 13.5451 6.66678 13.3451C6.66678 13.1451 6.5335 13.0117 6.3335 13.0117Z" fill="#4A4A4A"/>
<path d="M11.3333 7.01137H13.3333C13.5333 7.01137 13.6666 6.87805 13.6666 6.67805C13.6666 6.47805 13.5333 6.34473 13.3333 6.34473H11.3333C11.1333 6.34473 11 6.47805 11 6.67805C11 6.87805 11.1333 7.01137 11.3333 7.01137Z" fill="#4A4A4A"/>
<path d="M11.6668 5.6784H12.0001C12.2001 5.6784 12.3335 5.54508 12.3335 5.34508C12.3335 5.14508 12.2001 5.01172 12.0001 5.01172H11.6668C11.4668 5.01172 11.3335 5.14504 11.3335 5.34504C11.3335 5.54504 11.4668 5.6784 11.6668 5.6784Z" fill="#4A4A4A"/>
<path d="M7.33336 10.345C7.53336 10.345 7.66668 10.2117 7.66668 10.0117C7.66668 9.81168 7.8 9.67836 8 9.67836C8.2 9.67836 8.33332 9.54504 8.33332 9.34504C8.33332 9.14504 8.2 9.01172 8 9.01172C7.43332 9.01172 7 9.44504 7 10.0117C7.00004 10.2117 7.13336 10.345 7.33336 10.345Z" fill="#4A4A4A"/>
<path d="M12.9998 11.0114H14.9998C15.1998 11.0114 15.3331 10.878 15.3331 10.678C15.3331 10.478 15.1998 10.3447 14.9998 10.3447H12.9998C12.7998 10.3447 12.6665 10.478 12.6665 10.678C12.6665 10.878 12.7998 11.0114 12.9998 11.0114Z" fill="#4A4A4A"/>
<path d="M13.3333 9.67836H13.6666C13.8666 9.67836 14 9.54504 14 9.34504C14 9.14504 13.8666 9.01172 13.6666 9.01172H13.3333C13.1333 9.01172 13 9.14504 13 9.34504C13 9.54504 13.1333 9.67836 13.3333 9.67836Z" fill="#4A4A4A"/>
<path d="M10.3335 13.0117C9.76682 13.0117 9.3335 13.445 9.3335 14.0117C9.3335 14.2117 9.46682 14.345 9.66682 14.345C9.86682 14.345 10.0002 14.2117 10.0002 14.0117C10.0002 13.8117 10.1335 13.6784 10.3335 13.6784C10.5335 13.6784 10.6668 13.5451 10.6668 13.3451C10.6668 13.1451 10.5335 13.0117 10.3335 13.0117Z" fill="#4A4A4A"/>
<path d="M17.3333 14.3447H15.3333C15.1333 14.3447 15 14.478 15 14.678C15 14.878 15.1333 15.0114 15.3333 15.0114H17.3333C17.5333 15.0114 17.6666 14.878 17.6666 14.678C17.6666 14.478 17.5333 14.3447 17.3333 14.3447Z" fill="#4A4A4A"/>
<path d="M15.6668 13.6784H16.0001C16.2001 13.6784 16.3335 13.545 16.3335 13.345C16.3335 13.145 16.2001 13.0117 16.0001 13.0117H15.6668C15.4668 13.0117 15.3335 13.145 15.3335 13.345C15.3335 13.545 15.4668 13.6784 15.6668 13.6784Z" fill="#4A4A4A"/>
<path d="M19.8989 14.6996C19.9646 14.4825 20 14.2516 20 14.0115C20 13.7718 19.9646 13.5412 19.8991 13.3244C19.8954 13.2458 19.8709 13.1782 19.8291 13.1263C19.4841 12.2724 18.6523 11.6782 17.6666 11.6782H16.9744C17.2044 11.4517 17.3865 11.1772 17.5063 10.8699C17.54 10.8226 17.5616 10.7649 17.5655 10.6996C17.6312 10.4825 17.6666 10.2516 17.6666 10.0115C17.6666 9.77178 17.6312 9.54123 17.5658 9.32443C17.5621 9.24584 17.5375 9.17822 17.4957 9.12635C17.1508 8.27248 16.3189 7.67822 15.3333 7.67822H15.3077C15.5377 7.45178 15.7198 7.17721 15.8395 6.86986C15.8732 6.82256 15.8948 6.76486 15.8988 6.69955C15.9645 6.48248 16 6.25162 16 6.01154C16 5.77178 15.9646 5.54123 15.8991 5.32443C15.8954 5.24584 15.8709 5.17822 15.8291 5.12635C15.4841 4.27248 14.6523 3.67822 13.6666 3.67822H6.33332C5.03332 3.67822 4 4.71154 4 6.01154C4 6.7633 4.34602 7.42541 4.88887 7.85057C4.61555 7.73963 4.31574 7.67822 4 7.67822C2.7 7.67822 1.66668 8.71154 1.66668 10.0115C1.66668 10.6685 1.93082 11.2571 2.35965 11.6788C2.35086 11.6788 2.34219 11.6782 2.33336 11.6782C1.03332 11.6782 0 12.7115 0 14.0115C0 15.3115 1.03332 16.3449 2.33332 16.3449H6.33332H10.3333H17.6666C18.6626 16.3449 19.5014 15.7381 19.8396 14.8699C19.8733 14.8226 19.8949 14.7649 19.8989 14.6996ZM15.3333 8.34486C15.8887 8.34486 16.3732 8.60459 16.6746 9.01154H15C14.8 9.01154 14.6667 9.14486 14.6667 9.34486C14.6667 9.54486 14.8 9.67818 15 9.67818H16.9678C16.9889 9.78564 17 9.89705 17 10.0115C17 10.126 16.9888 10.2374 16.9678 10.3448H16.3334C16.1334 10.3448 16 10.4781 16 10.6781C16 10.8781 16.1334 11.0115 16.3334 11.0115H16.6746C16.3732 11.4184 15.8887 11.6781 15.3334 11.6781H10.3334H9.64109C9.8352 11.4871 9.99539 11.2619 10.1126 11.0115H11.3334C11.5334 11.0115 11.6667 10.8781 11.6667 10.6781C11.6667 10.4781 11.5334 10.3448 11.3334 10.3448H10.3098C10.3141 10.3142 10.3183 10.2834 10.3214 10.2523C10.3219 10.2471 10.3221 10.2417 10.3226 10.2364C10.3258 10.2022 10.3286 10.1679 10.3304 10.1331C10.3324 10.0928 10.3334 10.0523 10.3334 10.0115C10.3334 9.97068 10.3324 9.93014 10.3304 9.8899C10.3286 9.85514 10.3258 9.8208 10.3226 9.78658C10.3221 9.78131 10.322 9.77596 10.3214 9.77072C10.3183 9.73955 10.3141 9.70885 10.3098 9.67818H12C12.2 9.67818 12.3333 9.54486 12.3333 9.34486C12.3333 9.14486 12.2 9.01154 12 9.01154H10.1126C9.99531 8.76119 9.83512 8.53596 9.64105 8.34486H13.6667H15.3333V8.34486ZM10.3333 15.6782C9.4 15.6782 8.66664 14.9449 8.66664 14.0115C8.66664 13.0782 9.39996 12.3449 10.3333 12.3449C11.2666 12.3449 12 13.0782 12 14.0115C12 14.9449 11.2667 15.6782 10.3333 15.6782ZM6.33332 15.6782C5.4 15.6782 4.66664 14.9449 4.66664 14.0115C4.66664 13.0782 5.39996 12.3449 6.33332 12.3449C7.26664 12.3449 8 13.0782 8 14.0115C8 14.9449 7.26668 15.6782 6.33332 15.6782ZM8 8.34486C8.93332 8.34486 9.66668 9.07818 9.66668 10.0115C9.66668 10.9449 8.93336 11.6782 8 11.6782C7.06668 11.6782 6.33332 10.9449 6.33332 10.0115C6.33332 9.07818 7.06668 8.34486 8 8.34486ZM8 12.3449H8.69227C8.55457 12.4804 8.43367 12.633 8.33332 12.7998C8.23277 12.6328 8.11168 12.4799 7.97367 12.3442C7.9825 12.3443 7.99117 12.3449 8 12.3449ZM6.35965 11.6788C6.35086 11.6788 6.34219 11.6782 6.33336 11.6782C6.01762 11.6782 5.71781 11.7396 5.44449 11.8505C5.66562 11.6773 5.85437 11.4652 6.00004 11.2233C6.10055 11.3903 6.22164 11.5431 6.35965 11.6788ZM13.6667 4.34486C14.2221 4.34486 14.7066 4.60459 15.0079 5.01154H13.3333C13.1333 5.01154 13 5.14486 13 5.34486C13 5.54486 13.1333 5.67818 13.3333 5.67818H15.3011C15.3222 5.78564 15.3333 5.89705 15.3333 6.0115C15.3333 6.12596 15.3221 6.23736 15.3011 6.34482H14.6667C14.4667 6.34482 14.3334 6.47814 14.3334 6.67814C14.3334 6.87814 14.4667 7.01146 14.6667 7.01146H15.0079C14.7066 7.41842 14.2221 7.67814 13.6667 7.67814H8H7.97437C8.16848 7.48709 8.32867 7.26186 8.4459 7.01146H9.66664C9.86664 7.01146 9.99996 6.87814 9.99996 6.67814C9.99996 6.47814 9.86664 6.34482 9.66664 6.34482H8.64313C8.64742 6.31416 8.65156 6.28342 8.65469 6.25229C8.6552 6.24705 8.65539 6.24166 8.6559 6.23643C8.65906 6.20225 8.66191 6.16791 8.66363 6.13311C8.66566 6.09283 8.66668 6.05232 8.66668 6.0115C8.66668 5.97068 8.66566 5.93014 8.66363 5.8899C8.66191 5.85514 8.6591 5.8208 8.6559 5.78658C8.65539 5.78131 8.65523 5.77596 8.65469 5.77072C8.65156 5.73955 8.64742 5.70885 8.64313 5.67818H10.3333C10.5333 5.67818 10.6666 5.54486 10.6666 5.34486C10.6666 5.14486 10.5333 5.01154 10.3333 5.01154H8.4459C8.32863 4.76119 8.16844 4.53596 7.97437 4.34486H13.6667V4.34486ZM4.66668 6.01154C4.66668 5.07822 5.4 4.34486 6.33336 4.34486C7.26668 4.34486 8.00004 5.07818 8.00004 6.01154C8.00004 6.94486 7.26672 7.67822 6.33336 7.67822C5.4 7.67822 4.66668 6.94486 4.66668 6.01154ZM6.33332 8.34486H6.35895C6.22125 8.48045 6.10035 8.63303 6 8.79979C5.85438 8.55783 5.66563 8.34568 5.44445 8.17252C5.71777 8.28346 6.01758 8.34486 6.33332 8.34486ZM2.33332 10.0115C2.33332 9.07822 3.06664 8.34486 4 8.34486C4.93332 8.34486 5.66668 9.07818 5.66668 10.0115C5.66668 10.9449 4.93336 11.6782 4 11.6782C3.06668 11.6782 2.33332 10.9449 2.33332 10.0115ZM4 12.3449C4.31574 12.3449 4.61555 12.2835 4.88887 12.1725C4.66773 12.3457 4.47898 12.5578 4.33332 12.7998C4.23277 12.6328 4.11168 12.4799 3.97367 12.3442C3.9825 12.3443 3.99117 12.3449 4 12.3449ZM0.66668 14.0115C0.66668 13.0782 1.4 12.3449 2.33336 12.3449C3.26672 12.3449 4 13.0782 4 14.0115C4 14.9449 3.26668 15.6782 2.33332 15.6782C1.39996 15.6782 0.66668 14.9449 0.66668 14.0115ZM3.97438 15.6782C4.11207 15.5426 4.23297 15.3901 4.33332 15.2233C4.43371 15.3901 4.55457 15.5426 4.69227 15.6782H3.97438ZM7.97437 15.6782C8.11207 15.5426 8.23297 15.3901 8.33332 15.2233C8.43371 15.3901 8.55457 15.5426 8.69227 15.6782H7.97437ZM17.6667 15.6782H11.9744C12.1685 15.4872 12.3287 15.2619 12.4459 15.0115H13.6666C13.8666 15.0115 14 14.8782 14 14.6782C14 14.4782 13.8666 14.3449 13.6666 14.3449H12.6431C12.6474 14.3142 12.6516 14.2835 12.6547 14.2524C12.6552 14.2471 12.6554 14.2417 12.6559 14.2365C12.6591 14.2023 12.6619 14.168 12.6636 14.1332C12.6657 14.0929 12.6667 14.0524 12.6667 14.0116C12.6667 13.9708 12.6657 13.9302 12.6636 13.89C12.6619 13.8552 12.6591 13.8209 12.6559 13.7867C12.6554 13.7814 12.6552 13.776 12.6547 13.7708C12.6516 13.7396 12.6474 13.7089 12.6431 13.6783H14.3333C14.5333 13.6783 14.6666 13.5449 14.6666 13.3449C14.6666 13.1449 14.5333 13.0116 14.3333 13.0116H12.4459C12.3286 12.7613 12.1684 12.536 11.9744 12.3449H15.3333H17.6666C18.222 12.3449 18.7065 12.6047 19.0079 13.0116H17.3333C17.1333 13.0116 17 13.1449 17 13.3449C17 13.5449 17.1333 13.6783 17.3333 13.6783H19.3011C19.3221 13.7857 19.3333 13.8971 19.3333 14.0116C19.3333 14.126 19.3221 14.2374 19.3011 14.3449H18.6666C18.4666 14.3449 18.3333 14.4782 18.3333 14.6782C18.3333 14.8782 18.4666 15.0115 18.6666 15.0115H19.0079C18.7066 15.4185 18.222 15.6782 17.6667 15.6782Z" fill="#4A4A4A"/>
</svg>
